<svg width="55" height="48" viewBox="0 0 55 48" fill="none" xmlns="http://www.w3.org/2000/svg">
<path d="M10.2554 4.932C10.5916 4.83047 10.5916 4.40035 10.2554 4.29882L8.28199 3.70348C7.84818 3.57244 7.45402 3.35166 7.13076 3.05863C6.80749 2.76561 6.56401 2.4084 6.4196 2.01531L5.76247 0.228376C5.6504 -0.0762152 5.17564 -0.0762152 5.06357 0.228376L4.40644 2.01623C4.26179 2.40925 4.01809 2.76634 3.69465 3.0592C3.37121 3.35207 2.97692 3.57265 2.54303 3.70348L0.570614 4.29882C0.496994 4.32071 0.432885 4.3631 0.387434 4.41995C0.341982 4.4768 0.317511 4.54521 0.317511 4.61541C0.317511 4.6856 0.341982 4.75401 0.387434 4.81086C0.432885 4.86771 0.496994 4.91011 0.570614 4.932L2.54405 5.52733C2.97775 5.65828 3.37184 5.87892 3.69509 6.17178C4.01835 6.46464 4.26189 6.82166 4.40644 7.21458L5.06357 9.00244C5.08773 9.06913 5.13452 9.12721 5.19728 9.16839C5.26003 9.20957 5.33554 9.23174 5.41302 9.23174C5.4905 9.23174 5.56601 9.20957 5.62876 9.16839C5.69151 9.12721 5.73831 9.06913 5.76247 9.00244L6.4196 7.21458C6.56414 6.82166 6.80769 6.46464 7.13094 6.17178C7.4542 5.87892 7.84829 5.65828 8.28199 5.52733L10.2554 4.932ZM15.4503 8.49755C15.4945 8.48432 15.5329 8.45882 15.5601 8.42469C15.5873 8.39056 15.6019 8.34952 15.6019 8.30742C15.6019 8.26531 15.5873 8.22428 15.5601 8.19014C15.5329 8.15601 15.4945 8.13051 15.4503 8.11728L14.2665 7.76007C13.7387 7.6004 13.3251 7.22566 13.1488 6.74754L12.7546 5.67501C12.74 5.63504 12.7118 5.60026 12.6741 5.5756C12.6365 5.55095 12.5912 5.53768 12.5447 5.53768C12.4982 5.53768 12.4529 5.55095 12.4152 5.5756C12.3776 5.60026 12.3494 5.63504 12.3348 5.67501L11.9405 6.74754C11.8538 6.98335 11.7077 7.19761 11.5137 7.37336C11.3197 7.54911 11.0832 7.68151 10.8229 7.76007L9.63904 8.11728C9.59492 8.13051 9.55653 8.15601 9.52932 8.19014C9.50211 8.22427 9.48746 8.26531 9.48746 8.30742C9.48746 8.34952 9.50211 8.39056 9.52932 8.42469C9.55653 8.45882 9.59492 8.48432 9.63904 8.49755L10.8229 8.85476C11.0832 8.93332 11.3197 9.06572 11.5137 9.24147C11.7077 9.41722 11.8538 9.63149 11.9405 9.86729L12.3348 10.9398C12.3494 10.9798 12.3776 11.0146 12.4152 11.0392C12.4529 11.0639 12.4982 11.0771 12.5447 11.0771C12.5912 11.0771 12.6365 11.0639 12.6741 11.0392C12.7118 11.0146 12.74 10.9798 12.7546 10.9398L13.1488 9.86729C13.2356 9.63149 13.3817 9.41722 13.5757 9.24147C13.7697 9.06572 14.0062 8.93332 14.2665 8.85476L15.4503 8.49755ZM16.5191 1.97285C16.5481 1.96374 16.5732 1.94667 16.591 1.924C16.6088 1.90134 16.6184 1.87422 16.6184 1.8464C16.6184 1.81858 16.6088 1.79146 16.591 1.7688C16.5732 1.74613 16.5481 1.72906 16.5191 1.71995L15.7305 1.48181C15.378 1.37567 15.1019 1.12554 14.9847 0.806177L14.7219 0.091773C14.7118 0.0654916 14.693 0.0427016 14.668 0.0265722C14.643 0.0104436 14.613 0.00177757 14.5823 0.00177757C14.5516 0.00177757 14.5217 0.0104436 14.4967 0.0265721C14.4716 0.0427016 14.4528 0.0654916 14.4427 0.0917729L14.1799 0.806177C14.1221 0.96356 14.0246 1.10657 13.8951 1.22385C13.7657 1.34113 13.6078 1.42946 13.4341 1.48181L12.6456 1.71995C12.6165 1.72906 12.5914 1.74613 12.5736 1.7688C12.5558 1.79146 12.5462 1.81858 12.5462 1.8464C12.5462 1.87422 12.5558 1.90134 12.5736 1.924C12.5914 1.94667 12.6165 1.96374 12.6456 1.97285L13.4341 2.21099C13.6078 2.26334 13.7657 2.35167 13.8951 2.46895C14.0246 2.58623 14.1221 2.72924 14.1799 2.88662L14.4427 3.6001C14.4528 3.62639 14.4716 3.64917 14.4967 3.6653C14.5217 3.68143 14.5516 3.6901 14.5823 3.6901C14.613 3.6901 14.643 3.68143 14.668 3.6653C14.693 3.64917 14.7118 3.62639 14.7219 3.6001L14.9847 2.8857C15.1019 2.56634 15.378 2.31621 15.7305 2.21006L16.5191 1.97285Z" fill="#858C36"/>
<path d="M6.75973 42.741L17.6609 32.529C15.0364 29.256 13.6196 25.272 13.6244 21.1785C13.6244 10.7223 22.7055 2.21533 33.8674 2.21533C45.0293 2.21533 54.1104 10.7223 54.1104 21.1785C54.1104 31.6347 45.0293 40.1416 33.8674 40.1416C29.4975 40.1461 25.2447 38.8188 21.7508 36.3603L10.8496 46.5723C10.2977 47.0343 9.57803 47.281 8.83817 47.2616C8.0983 47.2422 7.39444 46.9582 6.87107 46.4679C6.34771 45.9777 6.04455 45.3183 6.02384 44.6252C6.00314 43.9321 6.26645 43.2579 6.75973 42.741ZM48.3266 21.1785C48.3266 18.4995 47.4786 15.8807 45.8898 13.6532C44.301 11.4257 42.0428 9.68962 39.4007 8.66443C36.7586 7.63923 33.8513 7.37099 31.0465 7.89363C28.2417 8.41627 25.6653 9.70632 23.6431 11.6006C21.621 13.4949 20.2439 15.9085 19.6859 18.5359C19.128 21.1634 19.4144 23.8869 20.5088 26.3619C21.6031 28.837 23.4564 30.9524 25.8342 32.4408C28.2121 33.9291 31.0076 34.7235 33.8674 34.7235C37.7008 34.7192 41.3759 33.2908 44.0865 30.7515C46.7972 28.2123 48.322 24.7695 48.3266 21.1785Z" fill="#858C36"/>
</svg>
