<svg width="38" height="34" viewBox="0 0 38 34" fill="none" xmlns="http://www.w3.org/2000/svg">
<path d="M21.2345 16.9984L29.5383 16.9984M2.88718 17.851C2.71053 17.7732 2.56165 17.652 2.45754 17.5013C2.35343 17.3506 2.2983 17.1764 2.29844 16.9986C2.29859 16.8209 2.354 16.6468 2.45836 16.4962C2.56271 16.3456 2.71179 16.2247 2.88856 16.1471L34.5179 2.36818C34.707 2.28586 34.9191 2.25685 35.1267 2.28491C35.3342 2.31297 35.5277 2.39681 35.6819 2.52555C35.8362 2.6543 35.9441 2.822 35.9917 3.0069C36.0393 3.19181 36.0244 3.3854 35.9489 3.56254L30.3812 16.6591C30.2883 16.8775 30.2883 17.1193 30.3812 17.3377L35.9475 30.4355C36.0224 30.6125 36.0368 30.8056 35.9891 30.9901C35.9413 31.1746 35.8335 31.3418 35.6796 31.4703C35.5256 31.5987 35.3327 31.6825 35.1256 31.7107C34.9185 31.739 34.7068 31.7104 34.5179 31.6286L2.88718 17.851Z" stroke="white" stroke-width="3.39973" stroke-linecap="round" stroke-linejoin="round"/>
</svg>
