<svg width="733" height="788" viewBox="0 0 733 788" fill="none" xmlns="http://www.w3.org/2000/svg">
<path d="M146.739 18.089C146.549 17.6855 146.234 17.4165 145.728 17.4165C134.105 17.6855 122.546 17.82 110.923 17.6855C100.879 17.551 88.2455 19.1649 80.2231 11.2298C80.16 11.0953 80.0336 11.028 79.8441 10.8935C74.7907 8.13641 68.1581 5.04305 63.1047 9.54859C62.0308 10.4901 61.336 11.6333 60.8938 12.9109C59.2514 10.0193 56.3457 7.86742 52.8715 7.39669C44.0911 6.18625 39.3535 14.3231 38.2797 22.5273C38.2797 22.6618 38.2165 22.729 38.2165 22.8635C38.1533 30.9331 33.6053 33.4885 28.2992 33.2868C28.9308 30.3952 28.8677 27.369 28.5518 24.6119C27.3516 13.8524 21.098 4.57232 11.4333 0.806489C6.63258 -1.81614 2.90568 2.75665 2.58984 7.73293C2.08449 15.7353 6.25357 23.6032 11.8755 28.5795C15.3497 31.6728 20.1505 34.699 24.9513 35.7749C24.8881 35.9767 24.7618 36.1111 24.6986 36.3129C21.3507 41.8944 16.2341 38.801 11.4333 38.7338C11.2438 38.6665 11.0543 38.6665 10.8017 38.801C10.7385 38.801 10.7385 38.801 10.6753 38.8683C10.6122 38.8683 10.6122 38.8683 10.549 38.9355C0.568466 42.8358 3.09518 56.8232 10.928 60.6563C9.72781 61.0598 8.59079 61.7322 7.64327 62.8082C2.96884 68.0535 6.0009 75.5851 8.59079 80.9649C8.65395 81.1666 8.78029 81.3011 8.90662 81.3684C16.3604 89.9087 14.9076 103.358 14.9707 114.05C15.0971 126.424 15.0339 138.73 14.7181 151.103C14.7181 151.305 14.7812 151.507 14.8444 151.709C13.7706 190.107 13.1389 228.505 12.9494 266.97C13.7074 266.566 14.5286 266.365 15.4129 266.499C15.4129 264.146 15.4129 261.792 15.4761 259.438C15.7288 223.394 16.2341 187.282 17.308 151.238C17.308 151.036 17.2448 150.834 17.1816 150.633C17.4975 136.511 17.5606 122.389 17.308 108.2C17.1816 98.2473 17.4343 87.4206 10.6122 79.6199C9.1593 76.6611 7.5801 73.5005 7.5801 70.0709C7.5801 66.1033 9.85414 62.5392 13.9601 62.8082C17.1816 63.0099 20.6558 65.6998 21.4139 69.1294C21.7297 70.7433 21.4139 72.559 20.2768 73.7694C18.2555 76.0558 14.0864 74.7109 14.9076 71.0796C15.2866 69.5329 13.0125 68.8604 12.6335 70.4071C11.5597 74.9126 16.0446 79.0147 20.0873 76.9973C24.7618 74.6437 24.6986 68.188 21.7297 64.4221C20.6558 63.0772 19.2662 62.0012 17.7501 61.2615C17.8133 61.2615 17.9396 61.2615 18.0028 61.1943C23.4352 59.7148 27.4148 53.1919 24.0037 47.7449C21.098 43.0376 14.5917 44.1135 12.8862 49.2916C12.3809 50.8382 14.6549 51.5107 15.1602 49.964C16.1078 47.0724 19.582 46.3327 21.5402 48.4846C23.5616 50.6365 23.1194 54.0661 21.4139 56.218C19.0135 59.1769 14.9076 59.6476 11.686 58.0337C5.30606 54.8731 4.10587 44.0463 11.3702 41.2219C16.4236 41.2219 20.8454 44.1135 25.0776 39.8097C26.1515 38.7338 26.9095 37.5233 27.478 36.1784C28.6782 36.2456 29.9415 36.2456 31.0785 36.0439C37.0795 34.9679 40.6169 29.0502 40.6169 22.9307C41.6908 15.4663 46.4915 7.19495 54.7665 10.4228C59.3778 12.2385 61.4623 18.2235 58.6829 22.729C57.3564 24.8137 55.0192 26.3603 52.6188 26.3603C44.7228 26.4276 47.818 14.7266 52.4293 18.6942C53.6295 19.7029 55.2718 17.9545 54.1348 16.8785C49.2077 12.642 42.8909 18.3579 45.544 24.4102C48.7655 31.8073 58.4934 28.9157 61.336 22.8635C61.5886 22.3928 61.715 21.922 61.9045 21.4513C62.5361 22.729 63.4205 23.8722 64.4312 24.7464C67.8422 27.8398 73.6537 28.0415 76.0541 23.4015C78.3281 19.0304 74.4749 13.9196 70.0531 15.0628C68.6003 15.4663 69.2319 17.8872 70.6848 17.4837C74.0959 16.6095 75.2961 21.0478 73.2115 23.1997C72.0745 24.3429 70.3058 24.7464 68.8529 24.4102C65.6314 23.6705 63.1678 19.9046 62.9151 16.475C62.6625 12.104 65.9472 9.68309 69.7373 9.68309C72.9588 9.68309 75.9277 11.4315 78.7071 12.9109C86.0346 20.1064 96.2046 19.8374 105.553 20.0391C118.819 20.2409 132.147 20.1736 145.412 19.9046C145.602 20.2409 145.918 20.5771 146.423 20.5099C192.472 20.1064 238.585 19.6356 284.634 19.2322C284.698 18.3579 284.95 17.4837 285.203 16.6095C272.19 16.744 259.178 16.9458 246.165 17.013C212.939 17.4837 179.839 17.82 146.739 18.089ZM25.9619 33.0178C22.5509 32.4126 19.0767 30.8659 16.4236 29.0502C12.6335 26.4948 9.41197 23.0652 7.32743 18.7614C6.12724 16.2733 5.30606 13.5162 5.05338 10.6918C4.80071 8.06916 5.17972 -0.000474546 10.4227 3.02564C10.4858 3.09289 10.6122 3.09289 10.6753 3.16013C10.6753 3.16013 10.6753 3.16013 10.7385 3.16013C18.6345 6.119 24.0669 13.4489 25.8356 22.1238C26.4673 25.4189 26.8463 29.4537 25.9619 33.0178Z" fill="#493C24"/>
<path d="M142.76 764.329C142.57 764.329 142.381 764.396 142.191 764.464C142.128 764.464 142.002 764.396 141.939 764.396C128.484 764.06 115.092 763.993 101.637 764.195C92.2886 764.329 82.1186 764.06 74.7911 771.323C72.0117 772.869 69.0428 774.551 65.8212 774.551C62.0943 774.551 58.7464 772.13 58.9991 767.759C59.1886 764.329 61.7153 760.63 64.9369 759.823C66.4529 759.487 68.1585 759.823 69.2955 761.034C71.4432 763.186 70.1798 767.624 66.7688 766.75C65.3159 766.346 64.6842 768.767 66.1371 769.171C70.3693 770.314 74.2226 765.539 72.3275 761.236C70.1167 756.259 64.0526 756.327 60.5151 759.487C59.2518 760.63 58.2411 762.11 57.5463 763.724C57.5463 763.656 57.5463 763.522 57.4831 763.455C56.0934 757.672 49.9661 753.435 44.8495 757.066C40.4278 760.16 41.4385 767.086 46.3024 768.902C47.7552 769.44 48.3869 767.019 46.9341 766.481C44.2178 765.472 43.523 761.774 45.5444 759.689C47.5657 757.537 50.7873 758.008 52.8087 759.823C55.5881 762.379 56.0302 766.75 54.5142 770.18C51.5453 776.971 41.3753 778.249 38.7222 770.516C38.7222 765.136 41.4384 760.429 37.3957 755.923C36.385 754.78 35.248 753.973 33.9846 753.368C34.0478 752.09 34.0478 750.745 33.8583 749.535C32.8476 743.146 27.2888 739.38 21.5406 739.38C14.5289 738.237 6.75929 733.126 9.79135 724.317C11.4969 719.408 17.1188 717.189 21.3511 720.148C23.3093 721.56 24.7621 724.048 24.7621 726.603C24.8253 735.009 13.8341 731.714 17.561 726.805C18.5085 725.528 16.8661 723.779 15.8555 724.99C11.8759 730.235 17.2452 736.959 22.9303 734.135C29.8787 730.705 27.1625 720.349 21.4774 717.323C21.0352 717.054 20.5931 716.92 20.1509 716.718C21.3511 716.046 22.4249 715.104 23.2461 714.028C26.1518 710.397 26.3413 704.21 21.9827 701.655C17.8768 699.234 13.0761 703.336 14.1499 708.043C14.5289 709.59 16.803 708.918 16.424 707.371C15.6028 703.74 19.7719 702.462 21.7932 704.681C22.8671 705.891 23.2461 707.774 22.9303 709.321C22.2354 712.751 18.698 715.373 15.4765 715.642C11.3705 715.911 9.0965 712.414 9.0965 708.38C9.0965 704.95 10.7389 701.789 12.1286 698.83C18.8875 691.03 18.6348 680.203 18.8244 670.251C19.0139 656.196 18.9507 642.209 18.698 628.154C18.7612 628.019 18.7612 627.885 18.7612 627.683C18.0663 583.3 17.3715 538.917 16.7398 494.467C15.9818 494.534 15.2238 494.4 14.4658 494.063C14.6553 505.563 14.7816 517.062 14.9711 528.561C15.4765 561.31 15.9186 594.06 16.3608 626.809C16.2976 626.943 16.2976 627.145 16.2976 627.28C16.5503 639.653 16.6766 651.959 16.5503 664.333C16.424 675.025 17.94 688.474 10.4862 697.015C10.3599 697.082 10.2967 697.217 10.1704 697.418C7.58047 702.798 4.67475 709.859 8.907 715.239C9.79135 716.382 10.8652 717.122 12.0654 717.592C9.34917 719.341 7.3278 722.434 6.88563 726.133C5.7486 735.48 13.3919 740.524 21.0984 741.667C21.2247 741.667 21.2879 741.734 21.4142 741.734C28.9944 741.801 31.3948 746.643 31.2053 752.292C28.489 751.619 25.6465 751.687 23.0566 752.023C12.9497 753.301 4.23258 759.958 0.695175 770.247C-1.76837 775.358 2.52704 779.325 7.20147 779.661C14.7184 780.267 22.1091 775.828 26.8467 769.843C29.7524 766.145 32.5949 761.034 33.6056 755.923C33.7951 755.99 33.9215 756.125 34.111 756.192C39.3539 759.756 36.4482 765.203 36.385 770.314C36.3219 770.516 36.3219 770.717 36.4482 770.986C36.4482 771.054 36.4482 771.054 36.5114 771.121C36.5114 771.188 36.5114 771.188 36.5745 771.255C40.3014 781.813 53.3772 779.191 57.0409 770.852C57.4199 772.13 58.0516 773.34 59.0623 774.349C63.9894 779.325 71.0642 776.097 76.1176 773.34C76.3071 773.273 76.4334 773.138 76.4966 773.004C84.5189 765.069 97.1525 766.615 107.196 766.548C118.819 766.414 130.379 766.481 142.002 766.817C142.191 766.817 142.381 766.75 142.57 766.683C142.633 766.683 142.76 766.683 142.823 766.75C188.683 767.691 234.479 768.633 280.339 769.372C280.655 768.498 281.034 767.691 281.54 766.884C268.085 766.683 254.567 766.414 241.112 766.145C208.265 765.674 175.481 765.001 142.76 764.329ZM27.2888 765.136C24.8885 769.171 21.6669 772.6 17.6242 774.819C15.287 776.097 12.6971 776.971 10.044 777.24C7.58047 777.509 0.000328125 777.106 2.77971 771.524C2.84288 771.457 2.84288 771.323 2.90605 771.255C2.90605 771.255 2.90605 771.255 2.90605 771.188C5.7486 762.782 12.5707 756.999 20.7194 755.116C23.8146 754.376 27.6679 754.04 30.9526 754.914C30.4472 758.546 28.9944 762.244 27.2888 765.136Z" fill="#493C24"/>
<path d="M722.767 759.42C719.293 756.327 714.492 753.3 709.691 752.225C709.755 752.023 709.881 751.888 709.944 751.687C713.292 746.105 718.409 749.198 723.209 749.266C723.399 749.333 723.588 749.333 723.841 749.198C723.904 749.198 723.904 749.198 723.967 749.131C724.031 749.131 724.031 749.131 724.094 749.064C734.011 745.096 731.548 731.176 723.715 727.276C724.915 726.872 726.052 726.2 726.999 725.124C731.674 719.879 728.642 712.347 726.052 706.967C725.989 706.766 725.862 706.631 725.736 706.564C718.282 698.023 719.735 684.574 719.672 673.882C719.546 661.508 719.609 649.202 719.925 636.829C719.925 636.627 719.925 636.492 719.861 636.358C720.619 595.337 721.062 554.384 721.314 513.363C720.62 514.103 719.798 514.506 718.914 514.775C718.851 520.895 718.851 526.947 718.788 533.067C718.535 567.699 718.093 602.331 717.461 636.963C717.461 637.165 717.461 637.299 717.524 637.434C717.208 651.556 717.145 665.678 717.398 679.8C717.524 689.752 717.272 700.579 724.094 708.38C725.547 711.338 727.126 714.499 727.126 717.929C727.126 721.896 724.852 725.46 720.746 725.191C717.524 724.99 714.05 722.3 713.292 718.87C712.976 717.256 713.292 715.44 714.429 714.23C716.45 711.944 720.62 713.288 719.798 716.92C719.419 718.467 721.693 719.139 722.072 717.592C723.146 713.087 718.661 708.985 714.619 711.002C709.944 713.356 710.007 719.811 712.976 723.577C714.05 724.922 715.44 725.998 716.956 726.738C716.893 726.738 716.766 726.738 716.703 726.805C711.271 728.285 707.291 734.808 710.702 740.255C713.608 744.962 720.114 743.886 721.82 738.708C722.325 737.161 720.051 736.489 719.546 738.035C718.598 740.927 715.124 741.667 713.166 739.515C711.144 737.363 711.586 733.933 713.292 731.781C715.692 728.823 719.798 728.352 723.02 729.966C729.4 733.126 730.6 743.953 723.336 746.778C718.282 746.778 713.861 743.886 709.628 748.19C708.554 749.266 707.796 750.476 707.228 751.821C706.028 751.754 704.764 751.754 703.627 751.955C697.626 753.031 694.089 758.949 694.089 765.069C693.015 772.533 688.214 780.805 679.939 777.577C675.328 775.761 673.244 769.776 676.023 765.27C677.349 763.186 679.687 761.639 682.087 761.639C689.983 761.572 686.888 773.273 682.277 769.305C681.076 768.297 679.434 770.045 680.571 771.121C685.498 775.357 691.815 769.641 689.162 763.589C685.94 756.192 676.212 759.084 673.37 765.136C673.117 765.607 672.991 766.077 672.801 766.548C672.17 765.27 671.285 764.127 670.275 763.253C666.864 760.16 661.052 759.958 658.652 764.598C656.378 768.969 660.231 774.08 664.653 772.937C666.106 772.533 665.474 770.112 664.021 770.516C660.61 771.39 659.41 766.952 661.494 764.8C662.631 763.657 664.4 763.253 665.853 763.589C669.075 764.329 671.538 768.095 671.791 771.524C672.043 775.895 668.759 778.316 664.969 778.316C661.747 778.316 658.778 776.568 655.999 775.088C648.671 767.893 638.501 768.162 629.152 767.96C615.698 767.691 602.243 767.826 588.851 768.162C588.788 768.162 588.725 768.162 588.725 768.162C588.725 768.162 588.725 768.162 588.662 768.162C553.983 768.767 519.303 769.036 484.688 769.103C485.003 769.91 485.13 770.785 485.067 771.659C486.835 771.659 488.604 771.659 490.373 771.659C523.157 771.592 555.878 771.323 588.662 770.717C588.725 770.717 588.788 770.717 588.788 770.717C588.788 770.717 588.788 770.717 588.851 770.717C600.474 770.448 612.034 770.314 623.657 770.448C633.701 770.583 646.334 768.969 654.356 776.904C654.42 777.039 654.546 777.106 654.735 777.24C659.789 779.998 666.421 783.091 671.475 778.585C672.549 777.644 673.244 776.501 673.686 775.223C675.328 778.115 678.234 780.267 681.708 780.737C690.488 781.948 695.226 773.811 696.3 765.607C696.3 765.472 696.363 765.405 696.363 765.27C696.426 757.201 700.974 754.645 706.28 754.847C705.649 757.739 705.712 760.765 706.028 763.522C707.228 774.282 713.482 783.562 723.146 787.327C727.947 789.95 731.674 785.377 731.99 780.401C732.495 772.264 728.326 764.396 722.767 759.42ZM729.526 777.308C729.779 779.93 729.4 788 724.157 785.041C724.094 784.974 723.967 784.974 723.904 784.907C723.904 784.907 723.904 784.907 723.841 784.907C715.945 781.88 710.513 774.618 708.744 765.943C708.049 762.648 707.733 758.546 708.554 755.049C711.965 755.654 715.44 757.201 718.093 759.016C721.883 761.572 725.104 765.001 727.189 769.305C728.452 771.726 729.274 774.483 729.526 777.308Z" fill="#493C24"/>
<path d="M725.736 5.11043C718.219 4.5052 710.828 8.9435 706.091 14.9285C703.185 18.6271 700.342 23.7378 699.332 28.8486C699.142 28.7814 699.016 28.6469 698.826 28.5796C693.583 25.0155 696.489 19.5685 696.552 14.4578C696.615 14.256 696.615 14.0543 696.489 13.7853C696.489 13.718 696.489 13.718 696.426 13.6508C696.426 13.5835 696.426 13.5835 696.363 13.5163C692.636 2.95852 679.56 5.58116 675.896 13.9198C675.517 12.6421 674.886 11.4316 673.875 10.4229C668.948 5.44666 661.873 8.67451 656.82 11.4316C656.63 11.4989 656.504 11.6334 656.441 11.7679C648.418 19.703 635.785 18.1563 625.741 18.2236C614.118 18.3581 602.558 18.2908 590.936 17.9546C590.62 17.9546 590.367 18.0218 590.178 18.2236C590.051 18.1563 589.925 18.1563 589.799 18.1563C549.245 17.7529 508.691 18.1563 468.137 17.7529C468.137 17.7529 468.137 17.7529 468.2 17.8201C468.453 18.1563 468.706 18.4926 468.832 18.8288C469.211 19.165 469.464 19.703 469.59 20.241C478.055 20.3082 486.456 20.3755 494.92 20.4427C526.568 20.51 558.151 20.3755 589.799 20.7117C590.114 20.7117 590.367 20.6445 590.493 20.4427C590.62 20.51 590.746 20.51 590.872 20.51C604.327 20.8462 617.719 20.9135 631.174 20.7117C640.522 20.5772 650.692 20.8462 658.02 13.5835C660.799 12.0369 663.768 10.3557 666.99 10.3557C670.717 10.3557 674.064 12.7766 673.812 17.1476C673.622 20.5772 671.096 24.2758 667.874 25.0828C666.358 25.419 664.652 25.0828 663.515 23.8723C661.368 21.7204 662.631 17.2821 666.042 18.1563C667.495 18.5598 668.127 16.1389 666.674 15.7354C662.442 14.5922 658.588 19.3668 660.483 23.6706C662.694 28.6469 668.758 28.5796 672.296 25.419C673.559 24.2758 674.57 22.7964 675.265 21.1824C675.265 21.2497 675.265 21.3842 675.328 21.4514C676.718 27.2347 682.845 31.4712 687.961 27.8399C692.383 24.7465 691.373 17.8201 686.509 16.0044C685.056 15.4665 684.424 17.8873 685.877 18.4253C688.593 19.434 689.288 23.1326 687.267 25.2173C685.245 27.3692 682.024 26.8984 680.002 25.0828C677.223 22.5274 676.781 18.1563 678.297 14.7267C681.266 7.9348 691.436 6.65711 694.089 14.3905C694.089 19.7703 691.373 24.4775 695.415 28.9831C696.426 30.1263 697.563 30.9333 698.826 31.5385C698.763 32.8162 698.763 34.1611 698.953 35.3716C699.963 41.76 705.522 45.5258 711.27 45.5258C718.282 46.669 726.052 51.7798 723.02 60.5892C721.314 65.4982 715.692 67.7174 711.46 64.7585C709.502 63.3463 708.049 60.8582 708.049 58.3028C707.986 49.8969 718.977 53.192 715.25 58.101C714.302 59.3787 715.945 61.1271 716.955 59.9167C720.935 54.6714 715.566 47.9467 709.881 50.7711C702.932 54.2007 705.648 64.5567 711.334 67.5829C711.776 67.8518 712.218 67.9863 712.66 68.1881C711.46 68.8605 710.386 69.802 709.565 70.878C706.659 74.5093 706.47 80.696 710.828 83.2514C714.934 85.6723 719.735 81.5702 718.661 76.8629C718.282 75.3163 716.008 75.9887 716.387 77.5354C717.208 81.1667 713.039 82.4444 711.018 80.2253C709.944 79.0148 709.565 77.1319 709.881 75.5852C710.576 72.1556 714.113 69.533 717.334 69.264C721.44 68.995 723.714 72.4919 723.714 76.5267C723.714 79.9563 722.072 83.1169 720.682 86.0758C713.923 93.8764 714.176 104.703 713.987 114.656C713.734 128.979 713.86 143.303 714.176 157.559C714.176 157.627 714.176 157.694 714.176 157.761C715.313 193.066 716.197 228.438 716.955 263.742C717.714 263.473 718.535 263.406 719.356 263.608C719.356 263.003 719.356 262.33 719.293 261.725C718.598 227.025 717.714 192.326 716.576 157.559C716.576 157.492 716.576 157.425 716.576 157.425C716.324 145.119 716.197 132.812 716.324 120.506C716.45 109.814 714.934 96.3646 722.388 87.8242C722.514 87.757 722.577 87.6225 722.704 87.4207C725.294 82.041 728.199 74.98 723.967 69.6003C723.083 68.4571 722.009 67.7174 720.809 67.2466C723.525 65.4982 725.546 62.4048 725.989 58.7063C727.126 49.3589 719.482 44.3154 711.776 43.1722C711.649 43.1722 711.586 43.105 711.46 43.105C703.88 43.0377 701.479 38.1959 701.669 32.5472C704.385 33.2197 707.228 33.1524 709.817 32.8162C719.924 31.5385 728.642 24.881 732.179 14.5922C734.769 9.48148 730.473 5.51391 725.736 5.11043ZM730.221 13.449C730.158 13.5163 730.158 13.6508 730.094 13.718C730.094 13.718 730.094 13.718 730.094 13.7853C727.252 22.1912 720.43 27.9744 712.281 29.8573C709.186 30.597 705.333 30.9333 702.048 30.059C702.616 26.4277 704.069 22.7291 705.775 19.9048C708.175 15.8699 711.397 12.4403 715.439 10.2212C717.777 8.9435 720.367 8.06929 723.02 7.8003C725.42 7.46407 733 7.86755 730.221 13.449Z" fill="#493C24"/>
</svg>
