<svg width="312" height="201" viewBox="0 0 312 201" fill="none" xmlns="http://www.w3.org/2000/svg">
<path d="M22.624 162.598L17.1309 159.742C19.7675 153.372 34.0496 150.076 37.1257 145.024C40.2018 139.971 44.3766 133.161 47.8922 129.646C51.188 126.131 54.7036 123.495 58.4389 121.738C62.1742 119.98 66.349 119.102 70.5237 119.102C72.5012 119.102 74.4787 119.321 76.8957 119.541C79.0929 119.761 81.5099 120.2 83.7071 120.42C85.9044 120.639 87.8819 120.859 89.6397 120.859C91.8369 120.859 93.375 121.298 94.4736 122.397C95.5722 123.495 96.0117 124.813 96.0117 126.79C96.0117 130.964 94.913 134.699 92.9355 138.214C90.958 141.729 88.1016 144.584 84.8058 146.781C81.5099 148.978 77.7746 150.076 73.5999 150.076C70.7434 150.076 67.6673 149.637 64.5912 148.539C61.2953 147.44 58.2192 147.001 55.3628 147.001C50.5289 147.001 43.9372 148.099 40.861 150.296C33.3904 155.568 26.1395 157.985 22.624 162.598Z" fill="#FDFFF8"/>
<path d="M106.339 174.24C105.02 172.922 103.922 171.604 102.603 170.506C101.285 169.407 99.9667 168.309 98.8681 167.211C97.7695 166.112 96.4512 165.234 95.3525 164.135V162.817C95.792 161.938 96.6709 160.84 97.7695 159.742C98.8681 158.423 99.9667 157.105 101.285 155.787C102.384 154.469 103.702 153.151 104.801 152.053C105.899 150.954 106.778 150.295 107.218 150.076H108.316C110.513 151.394 112.491 152.712 114.029 153.81C115.567 154.909 116.666 156.227 117.545 157.545C119.083 155.568 120.84 153.59 122.818 151.394C124.796 149.197 126.114 148.098 126.993 147.439H128.091C131.607 149.636 134.244 151.613 136.001 153.371C137.759 155.128 138.638 156.886 138.638 158.643C138.638 160.401 137.759 162.378 136.001 164.355C134.244 166.552 131.607 168.748 127.872 171.385H126.773C125.235 169.847 123.697 168.529 122.379 167.211C121.06 165.893 119.522 164.794 118.204 163.696C116.885 166.552 113.59 170.066 107.877 174.021H106.339V174.24Z" fill="#FDFFF8"/>
<path d="M97.5497 142.387C94.913 142.387 92.9355 141.508 91.3974 139.751C90.0791 137.993 89.2002 135.357 89.2002 131.842C89.2002 127.229 90.0791 123.714 92.0566 120.858C94.0341 118.222 96.2314 116.245 99.0878 114.927C101.724 113.609 104.361 113.169 106.778 113.169C110.513 113.169 114.029 112.071 117.764 109.654C121.28 107.238 124.795 102.844 128.091 96.2539L132.046 97.1326C130.289 104.602 128.311 111.192 126.114 116.904C123.917 122.616 121.28 127.229 118.204 131.183C115.347 134.918 112.051 137.993 108.536 139.751C105.24 141.288 101.505 142.387 97.5497 142.387Z" fill="#FDFFF8"/>
<path d="M143.472 181.709L142.593 177.535C146.108 175.338 150.283 172.922 154.678 169.846C159.292 166.771 163.686 163.695 168.3 160.4C172.915 157.105 176.87 153.81 180.605 150.515C184.34 147.219 187.197 144.364 189.174 141.727C190.493 139.97 191.811 138.213 192.69 136.455C193.569 134.917 194.228 133.38 194.667 132.281C192.47 132.501 189.833 132.721 186.977 133.16C184.121 133.38 182.143 133.599 180.605 133.599C177.309 133.38 174.672 132.94 172.255 131.842C169.839 130.743 168.081 129.206 166.762 127.229C165.444 125.251 164.785 123.055 164.785 120.638C164.785 118.441 165.005 116.245 165.664 114.048C166.323 111.851 167.202 109.434 168.52 106.798L174.892 94.4962C177.968 88.7845 182.363 85.709 187.856 85.709C191.591 85.709 194.667 86.8074 197.084 89.2239C199.501 91.4207 201.479 94.9356 202.797 99.5488C204.115 104.162 204.775 109.874 204.775 116.904C204.775 120.418 204.555 124.153 203.896 128.107C203.237 132.061 202.358 136.235 201.039 140.629C199.721 145.023 197.743 149.197 195.546 153.37C193.349 157.544 190.493 161.499 187.197 165.453C185.439 166.551 183.022 167.869 179.726 169.407C176.43 170.945 172.695 172.483 168.52 174.02C164.345 175.558 159.951 177.096 155.776 178.414C151.162 179.512 147.207 180.611 143.472 181.709Z" fill="#FDFFF8"/>
<path d="M201.699 130.304C200.82 130.304 199.721 129.865 198.623 128.986C197.524 128.108 197.084 126.57 197.084 124.593C197.084 121.298 198.183 118.661 200.38 117.124C202.578 115.366 204.775 114.707 206.533 114.707C212.465 114.707 218.617 113.609 224.77 111.632C230.922 109.654 236.415 107.458 241.029 105.041C237.733 103.503 235.536 101.307 233.998 98.8902C232.46 96.254 231.801 93.3982 231.801 89.8833C231.801 86.1487 232.46 82.1945 233.998 78.4599C235.316 74.7254 237.733 70.9908 241.249 67.2562C242.348 65.9382 243.666 64.8398 244.984 63.5217C246.303 62.2036 247.621 60.8855 248.939 59.7871C248.939 59.5674 248.939 59.3477 248.939 59.1281C248.939 58.9084 248.939 58.6887 248.939 58.469C248.939 56.4919 249.598 54.0754 250.917 51.2196C252.235 48.3637 254.432 45.0685 257.069 41.334L258.827 41.7733C259.706 43.5308 261.683 45.5079 264.759 47.7047C267.835 49.9015 272.01 52.0983 277.284 54.7345C283.436 57.81 288.49 60.4462 292.445 62.643C296.4 64.8398 299.476 66.5972 301.453 67.9153C305.189 70.5514 308.045 73.4073 309.583 76.4828C311.121 79.5583 312 83.0732 312 87.0274C312 92.2998 311.121 96.6934 309.144 100.648C307.386 104.382 305.189 107.458 302.552 109.654C299.915 111.851 296.18 112.95 291.346 112.95C286.951 112.95 281.898 112.73 276.624 112.071C271.131 111.412 265.199 110.753 258.827 109.654C246.742 117.563 236.415 123.055 227.187 126.13C218.178 128.767 209.609 130.304 201.699 130.304ZM260.804 94.2769C264.54 92.0801 267.176 89.8833 268.714 88.1258C270.252 86.1487 270.912 83.9519 270.912 81.0961C270.912 76.4828 269.374 72.9679 266.078 70.7711C262.782 68.3546 259.706 67.2562 256.63 67.2562C254.432 67.2562 252.015 68.135 249.818 69.6727C247.621 71.4302 245.643 73.4073 244.105 75.8238C242.567 78.2402 241.908 80.6567 241.908 82.8535C241.908 85.929 243.446 88.5652 246.522 90.5423C249.818 92.2998 254.652 93.6178 260.804 94.2769ZM298.377 98.4508C298.597 98.4508 298.817 98.4508 299.256 98.4508C299.695 98.4508 299.915 98.4508 300.135 98.4508C302.552 98.4508 303.87 96.913 303.87 93.8375C303.87 91.421 302.772 89.0046 300.574 86.5881C298.817 84.8306 296.4 83.2929 293.104 81.7551C289.808 80.2174 286.073 78.6796 281.678 77.1418C281.458 77.8009 281.458 78.4599 281.458 79.119C281.458 79.778 281.239 80.437 281.019 81.0961C280.579 83.7322 279.701 86.3684 278.602 89.0046C277.503 91.6407 275.965 94.0572 274.207 96.254C280.14 96.913 284.974 97.5721 288.929 98.0114C292.664 98.2311 295.96 98.4508 298.377 98.4508Z" fill="#FDFFF8"/>
<path d="M22.9064 83.3201C21.1487 83.7595 19.8303 84.8579 18.7317 85.9563C17.4133 87.2744 16.3147 88.8121 15.2161 90.3499C14.5569 91.2286 14.3372 92.327 15.2161 92.9861C14.9964 92.9861 14.7767 93.2057 14.5569 93.2057C14.3372 93.2057 13.8978 93.2057 13.678 92.9861C13.4583 92.9861 13.4583 92.7664 13.2386 92.7664C13.0189 92.5467 12.7991 92.5467 12.3597 92.327C12.14 92.1073 11.9203 91.8877 12.14 91.668C12.14 91.668 12.14 91.668 12.3597 91.4483L12.5794 91.668C13.678 91.4483 14.3372 90.1302 14.9964 89.2515C15.6556 88.3728 16.5345 87.0547 17.4133 86.176C18.9514 84.6382 20.7092 83.5398 22.6867 82.8808C22.6867 82.6611 22.6867 82.6611 22.6867 82.4414C20.9289 82.8808 19.6106 83.7595 18.0725 84.8579C16.9739 85.7366 16.095 86.835 15.2161 87.9334C14.7767 88.5924 14.3372 89.0318 13.8978 89.6909C13.4583 90.3499 13.0189 91.0089 12.3597 91.2286H12.14C11.7005 91.2286 11.2611 91.2286 11.4808 91.8877C11.7005 92.1073 11.9203 92.327 12.14 92.5467C12.7991 92.7664 13.0189 92.9861 13.4583 93.2057C13.678 93.4254 13.678 93.4254 13.8978 93.4254C14.1175 93.4254 14.5569 93.4254 14.7767 93.4254C14.9964 93.4254 15.2161 93.4254 15.4358 93.4254C15.6556 93.4254 15.4358 93.2057 15.6556 93.2057V92.9861C14.3372 91.8877 15.8753 90.3499 16.7542 89.2515C17.6331 88.1531 18.512 87.0547 19.6106 86.176C20.7092 85.0776 21.8078 84.1988 23.3459 83.7595C22.9064 83.5398 22.9064 83.3201 22.9064 83.3201Z" fill="#F9FAF7"/>
<path d="M16.5342 116.052C18.5117 114.295 19.8301 111.659 20.9287 109.242C22.0273 106.826 22.9062 104.409 23.1259 101.773C23.3456 99.3568 23.1259 96.9403 22.0273 94.9632C20.709 92.5467 18.5117 91.009 16.0948 90.1302H15.875C15.6553 90.1302 15.6553 90.3499 15.875 90.5696C18.292 91.4483 20.2695 92.7664 21.5879 94.9632C22.6865 96.9403 22.9062 99.3568 22.9062 101.554C22.4667 105.947 20.4892 110.341 18.0723 113.856C16.7539 115.833 14.9961 117.371 12.5792 118.03C10.3819 118.689 7.96498 118.469 5.98747 117.59C3.35079 116.272 1.593 114.075 0.933826 111.22C0.494378 109.023 0.714102 107.705 1.15355 105.508C1.81272 102.213 2.47189 98.2584 4.22968 95.4026C6.20719 92.327 10.1622 89.6909 14.1172 90.1302H14.337C14.5567 89.9106 14.337 89.9106 14.1172 89.6909C9.9425 89.0318 5.54802 91.8877 3.57051 95.4026C2.47189 97.16 1.81272 99.3568 1.37327 101.334C0.933826 103.531 0.274655 105.728 0.0549309 108.144C-0.164793 110.121 0.274655 112.098 1.37327 113.856C2.47189 115.613 3.57051 116.931 5.3283 117.59C7.08609 118.249 9.0636 118.689 11.0411 118.469C13.2384 118.249 14.9961 117.371 16.5342 116.052Z" fill="#F9FAF7"/>
<path d="M17.1936 90.7892C17.1936 90.5695 16.9738 90.3498 16.7541 90.5695C16.5344 91.0089 16.095 91.2286 15.6555 91.6679L14.9963 92.1073C14.7766 92.1073 14.7766 92.3269 14.9963 92.5466C15.2161 92.5466 15.4358 92.3269 15.6555 92.3269C16.3147 91.6679 16.7541 91.2286 17.1936 90.7892Z" fill="#F9FAF7"/>
<path d="M17.4133 92.5466C17.8528 92.1072 18.0725 91.8876 18.2922 91.4482C18.2922 91.4482 18.0725 91.2285 17.8528 91.2285C17.6331 91.6679 17.4133 91.8876 16.9739 92.3269C16.5344 92.7663 16.095 92.986 15.6555 93.4253C14.5569 94.304 13.4583 94.5237 12.14 94.9631C11.9202 94.9631 12.3597 95.4024 12.5794 95.1828C13.678 94.7434 14.7766 94.5237 15.8753 93.8647C16.5344 93.4253 16.9739 92.986 17.4133 92.5466Z" fill="#F9FAF7"/>
<path d="M18.0724 93.6452C18.5118 93.2058 18.9513 92.7665 19.3907 92.3271C19.6105 92.3271 19.8302 92.1074 19.6105 92.1074H19.3907C19.171 92.3271 18.9513 92.7665 18.5118 92.9861C18.0724 93.6452 17.4132 94.0845 16.9738 94.5239C15.8752 95.1829 14.7765 95.6223 13.6779 95.842C13.4582 95.842 13.6779 96.2813 13.8976 96.2813C14.9963 96.0617 16.0949 95.842 17.1935 94.9633C17.1935 94.5239 17.633 94.0845 18.0724 93.6452Z" fill="#F9FAF7"/>
<path d="M20.4892 93.2052C20.7089 93.2052 20.7089 93.2052 20.4892 93.2052C20.4892 92.9855 20.2694 92.7658 20.2694 92.9855C19.1708 94.0839 18.2919 94.9626 16.7539 95.8414C15.6552 96.2807 14.1172 96.7201 12.7988 97.1594C12.5791 97.1594 13.0186 97.5988 13.0186 97.3791C14.5566 96.9398 15.875 96.5004 17.1933 95.8414C18.7314 95.1823 19.6103 94.3036 20.4892 93.2052Z" fill="#F9FAF7"/>
<path d="M19.83 96.0621C20.2694 95.8424 20.4892 95.4031 20.9286 95.1834C21.1483 94.9637 21.3681 94.5244 21.5878 94.5244C21.8075 94.5244 21.3681 94.3047 21.3681 94.3047C20.9286 94.3047 20.4892 95.1834 20.2694 95.4031C19.6103 96.0621 18.7314 96.7212 17.8525 97.1605C17.1933 97.5999 16.3144 97.8196 15.6552 98.2589C14.7763 98.6983 13.6777 98.6983 12.7988 98.918C12.7988 98.918 13.0186 99.1376 13.2383 99.1376C14.9961 98.918 16.5341 98.2589 18.0722 97.5999C18.5116 97.1605 19.1708 96.5015 19.83 96.0621Z" fill="#F9FAF7"/>
<path d="M22.2471 96.2812C22.4669 96.2812 22.4669 96.2812 22.2471 96.2812C22.4669 95.8418 22.2471 95.8418 22.0274 95.8418C20.7091 97.1599 19.171 98.0386 17.6329 98.9173C16.9738 99.3567 16.0949 99.3567 15.4357 99.5764C14.5568 100.016 13.6779 100.235 12.799 100.235C12.5793 100.235 12.799 100.675 13.0187 100.675C13.8976 100.455 14.7765 100.455 15.6554 100.016C16.0949 99.796 16.3146 99.5764 16.754 99.5764C17.1935 99.3567 17.4132 99.3567 17.8527 99.3567C19.3907 98.6976 20.9288 97.5992 22.2471 96.2812Z" fill="#F9FAF7"/>
<path d="M22.9061 97.8193C22.9061 97.5996 22.6864 97.5996 22.4667 97.5996C21.5878 98.2586 20.9286 98.9177 20.0497 99.357C19.1708 99.7964 18.2919 100.236 17.413 100.675C15.6552 101.554 13.6777 101.774 11.9199 102.433C11.7002 102.433 12.1396 102.872 12.1396 102.652C13.8974 101.993 15.8749 101.774 17.6327 101.114C18.5116 100.675 19.3905 100.236 20.2694 99.7964C21.1483 99.3571 22.0272 98.4783 22.9061 97.8193C23.1258 98.039 22.9061 98.039 22.9061 97.8193Z" fill="#F9FAF7"/>
<path d="M23.1258 100.236C22.9061 99.7967 22.6864 100.016 22.2469 100.236C21.368 101.115 20.2694 101.554 19.1708 101.994C16.5341 103.092 13.6777 103.751 10.8213 104.19C10.6016 104.19 11.041 104.63 11.041 104.41C13.2382 103.971 15.4355 103.531 17.413 102.872C18.5116 102.433 19.6102 101.994 20.4891 101.554C20.9286 101.334 21.5877 100.895 22.0272 100.675C22.0272 100.675 22.0272 100.675 22.2469 100.456L22.4666 100.236C22.9061 100.456 22.9061 100.456 23.1258 100.236C23.3455 100.456 23.1258 100.456 23.1258 100.236Z" fill="#F9FAF7"/>
<path d="M22.6864 102.213C22.0272 101.993 21.1483 102.872 20.7088 103.091C19.6102 103.75 18.2919 104.409 17.1933 104.849C16.5341 105.069 15.8749 105.288 15.4355 105.728C14.7763 105.947 14.1171 105.947 13.2382 106.167C11.9199 106.167 10.8213 106.167 9.50293 105.947C9.28321 105.947 9.72265 106.167 9.72265 106.167C11.9199 106.387 14.3369 106.606 16.3144 105.508C17.413 105.069 18.5116 104.629 19.6102 103.97C20.2694 103.531 20.9286 103.311 21.368 102.872C21.5877 102.652 22.2469 102.213 22.4666 102.213C23.1258 102.652 22.9061 102.432 22.6864 102.213Z" fill="#F9FAF7"/>
<path d="M22.0274 104.85C21.8076 104.85 21.5879 104.85 21.3682 105.069C20.709 105.289 20.2696 105.509 19.6104 105.728C18.5118 106.168 17.4132 106.607 16.0948 107.046C13.6779 107.705 11.0412 107.266 8.62422 107.266C8.40449 107.266 8.62422 107.705 8.84394 107.705C11.2609 107.925 13.6779 108.145 15.8751 107.705C16.9737 107.486 17.8526 107.046 18.9512 106.607C19.3907 106.387 20.0498 106.168 20.4893 105.948C20.9287 105.728 21.8076 105.289 22.2471 105.289C22.4668 105.289 22.2471 105.069 22.0274 104.85Z" fill="#F9FAF7"/>
<path d="M21.5877 107.484C21.5877 107.265 21.368 107.045 21.1483 107.045C20.2694 107.704 18.951 107.924 18.0721 108.363C16.9735 108.802 15.6552 109.022 14.5566 109.242C13.4579 109.461 12.579 109.901 11.4804 109.901C10.3818 109.901 9.06346 109.461 7.96484 109.242C7.74512 109.242 8.18457 109.461 8.18457 109.461C9.28318 109.681 10.6015 109.901 11.7001 110.12C12.579 110.12 13.6777 109.901 14.5566 109.681C15.6552 109.242 16.7538 109.242 17.8524 108.802C18.2919 108.583 18.951 108.363 19.3905 108.143C20.2694 107.924 20.9285 107.704 21.5877 107.484Z" fill="#F9FAF7"/>
<path d="M19.8299 109.902C19.6102 109.902 19.6102 109.902 19.3905 109.902C18.951 110.342 18.0721 110.561 17.6327 110.781C16.534 111.22 15.2157 111.44 13.8974 111.66C12.579 111.879 11.4804 111.66 10.1621 111.66C9.50289 111.66 8.84371 111.66 8.18454 111.66C7.52537 111.44 6.8662 111.22 6.20703 111.001C5.98731 110.781 6.20703 111.22 6.20703 111.22C7.08592 111.66 7.96482 111.879 9.06344 112.099C9.72261 112.099 10.3818 112.099 10.8212 112.099C11.4804 112.099 11.9198 112.319 12.579 112.319C13.8974 112.319 14.996 111.879 16.3143 111.66C16.9735 111.44 17.6327 111.22 18.2918 111.001C18.5116 111.001 19.6102 110.342 19.6102 110.342C20.2693 110.342 20.0496 110.122 19.8299 109.902Z" fill="#F9FAF7"/>
<path d="M18.2921 112.976C18.2921 112.757 18.0723 112.757 17.8526 112.757C16.9737 112.976 16.0948 113.636 14.9962 113.855C14.1173 114.075 13.0187 114.075 11.9201 114.075C11.4806 114.075 10.8215 114.075 10.382 114.075C9.72284 114.075 9.2834 113.855 8.62423 113.636C7.52561 113.416 6.42699 112.976 5.54809 112.537C5.32837 112.537 5.32837 112.757 5.54809 112.757C6.86644 113.416 7.96505 113.855 9.06367 114.075C9.94257 114.295 10.8215 114.514 11.9201 114.514C13.0187 114.514 14.337 114.514 15.4357 114.295C16.3146 114.075 17.1934 113.416 18.2921 112.976C18.2921 113.196 18.2921 113.196 18.2921 112.976Z" fill="#F9FAF7"/>
<path d="M16.0948 115.393C15.8751 115.393 15.8751 115.393 15.6554 115.393C15.2159 115.613 14.7765 115.613 14.1173 115.833C13.2384 116.052 12.1398 116.272 11.2609 116.272C10.1623 116.272 9.06366 115.833 8.18477 115.393C7.08615 114.954 5.98753 114.515 4.88891 114.075C4.66919 113.856 4.66919 114.295 4.88891 114.295C6.86643 115.174 8.84394 115.833 10.8215 116.272C11.7004 116.492 12.5792 116.272 13.2384 116.272C13.8976 116.272 14.337 116.052 14.7765 115.833C14.9962 115.833 15.6554 115.393 15.8751 115.613C16.3145 115.833 16.3145 115.613 16.0948 115.393Z" fill="#F9FAF7"/>
<path d="M12.3595 117.591C11.92 117.371 11.4806 117.591 11.0411 117.591C10.3819 117.591 9.72277 117.371 9.0636 117.152C7.30581 116.712 5.54802 116.273 4.22968 115.175C4.00996 114.955 3.79023 114.955 4.00996 115.175C5.10858 116.273 6.42692 116.712 7.96498 117.152C8.84388 117.371 9.72277 117.591 10.6017 117.811C10.8214 117.811 11.2608 118.03 11.7003 118.03C11.92 118.03 12.5792 117.811 12.5792 118.03C12.7989 118.03 12.5792 117.811 12.3595 117.591Z" fill="#F9FAF7"/>
<path d="M18.7314 91.6689C18.5117 91.6689 18.0722 91.4493 17.8525 91.4493C17.4131 91.4493 16.9736 91.2296 16.5342 91.0099C16.0947 90.7902 15.4355 90.5705 14.9961 90.7902C14.9961 91.0099 15.4355 91.2296 15.4355 91.0099C15.4355 91.0099 18.5117 91.8886 18.9511 91.8886C18.9511 92.1083 18.9511 91.6689 18.7314 91.6689Z" fill="#F9FAF7"/>
<path d="M20.2695 93.6442C19.3906 93.2049 18.292 92.7655 17.4131 92.5458C16.7539 92.5458 16.3144 92.3262 15.6553 92.3262C15.4355 92.3262 15.2158 92.1065 15.2158 92.3262C14.9961 92.5458 15.4355 92.7655 15.4355 92.5458C15.4355 92.5458 15.875 92.5458 16.0947 92.5458C16.3144 92.7655 16.7539 92.7655 17.1933 92.7655C18.292 92.9852 19.1708 93.4246 20.2695 93.8639C20.4892 94.0836 20.4892 93.6442 20.2695 93.6442Z" fill="#F9FAF7"/>
<path d="M20.9286 95.1833C20.4892 95.1833 20.0497 94.744 19.6103 94.744C19.1709 94.5243 18.7314 94.5243 18.292 94.3046C17.4131 94.0849 16.5342 93.8652 15.6553 93.8652C15.4355 93.8652 15.875 94.0849 15.875 94.0849C16.9736 94.0849 17.8525 94.3046 18.9511 94.744C19.3906 94.9636 19.6103 94.9636 20.0497 94.9636C20.4892 95.1833 20.7089 95.1833 21.1484 95.403C21.3681 95.6227 21.1484 95.403 20.9286 95.1833Z" fill="#F9FAF7"/>
<path d="M21.5878 96.9411C20.9287 96.9411 20.0498 96.7215 19.3906 96.5018C18.5117 96.2821 17.6328 96.0624 16.7539 95.623C16.5342 95.623 16.5342 95.623 16.5342 95.8427C16.5342 95.8427 16.5342 95.8427 16.7539 95.8427C17.6328 96.2821 18.5117 96.5018 19.1709 96.7214C19.6103 96.7214 19.83 96.9411 20.2695 96.9411C20.7089 96.9411 21.1484 97.1608 21.5878 97.1608C22.0273 97.1608 21.8075 96.9411 21.5878 96.9411Z" fill="#F9FAF7"/>
<path d="M21.3681 98.4781C20.9287 98.2584 20.2695 98.2584 19.83 98.0387C19.6103 98.0387 18.0723 97.5994 18.0723 97.5994C18.0723 97.3797 17.6328 97.16 17.6328 97.5994C17.6328 98.0387 18.5117 98.0387 18.7314 98.2584C19.6103 98.4781 20.4892 98.6978 21.3681 98.9174C21.5878 98.9174 21.5878 98.6978 21.3681 98.4781Z" fill="#F9FAF7"/>
<path d="M21.1486 100.235C19.8302 99.7957 18.5119 99.1366 16.9738 98.6973C16.7541 98.6973 16.9738 98.9169 17.1935 98.9169C17.8527 99.1366 18.5119 99.3563 19.1711 99.576C19.8302 99.7957 20.7091 100.015 21.3683 100.235C21.588 100.674 21.3683 100.235 21.1486 100.235Z" fill="#F9FAF7"/>
<path d="M20.9287 101.774C20.2695 101.774 19.3906 101.334 18.9511 101.115C18.5117 100.895 17.8525 100.675 17.4131 100.456C17.4131 100.236 16.9736 100.236 17.1934 100.456C17.6328 101.115 18.5117 101.115 19.1709 101.554C19.83 101.774 20.4892 102.213 21.1484 102.213C21.3681 101.994 20.9287 101.774 20.9287 101.774Z" fill="#F9FAF7"/>
<path d="M20.7087 102.871C20.0496 102.651 19.6101 102.651 18.951 102.432C18.0721 102.212 17.1932 101.773 16.534 101.333C16.3143 101.114 16.0945 101.333 16.534 101.553C17.1932 101.992 17.8523 102.212 18.5115 102.432C19.3904 102.651 20.2693 102.651 20.9285 103.091C21.1482 103.31 20.9285 102.871 20.7087 102.871Z" fill="#F9FAF7"/>
<path d="M20.2695 104.848C19.83 104.628 19.6103 104.409 19.1708 104.409C18.292 104.189 17.8525 103.969 16.9736 103.53C16.5342 103.091 15.6553 102.651 15.2158 102.432C14.9961 102.432 15.4355 102.651 15.4355 102.651C15.875 102.651 16.3144 103.091 16.5342 103.31C16.9736 103.53 17.4131 103.969 17.8525 104.189C18.7314 104.628 19.6103 104.628 20.4892 105.068C20.7089 105.287 20.4892 104.848 20.2695 104.848Z" fill="#F9FAF7"/>
<path d="M19.8303 107.046C18.9514 106.607 18.2922 105.948 17.4133 105.508C16.3147 104.849 15.4358 104.19 14.5569 103.751C14.3372 103.531 14.3372 103.971 14.5569 103.971C15.4358 104.41 16.3147 105.069 17.1936 105.508C18.0725 105.948 18.9514 106.826 19.8303 107.266C20.05 107.266 20.05 107.046 19.8303 107.046Z" fill="#F9FAF7"/>
<path d="M18.7316 108.144C18.2921 108.144 17.8527 107.705 17.6329 107.485C16.9738 107.046 16.5343 106.826 15.8752 106.386C14.9963 105.727 13.8976 105.288 13.0187 104.409C12.799 104.19 12.5793 104.409 12.799 104.629C13.6779 105.508 14.9963 106.167 16.0949 106.826C16.754 107.265 17.1935 107.485 17.8527 107.924C18.2921 108.144 18.5118 108.364 18.9513 108.364C19.171 108.364 18.9513 108.144 18.7316 108.144Z" fill="#F9FAF7"/>
<path d="M17.8527 110.12C17.4133 109.681 16.7541 109.242 16.3146 108.802C15.8752 108.363 15.4357 108.143 14.9963 107.704C13.8977 107.045 12.7991 106.386 11.9202 105.507C11.7004 105.287 11.7004 105.507 11.9202 105.727C13.678 107.264 15.8752 108.363 17.8527 110.12C18.0724 110.34 17.8527 110.34 17.8527 110.12Z" fill="#F9FAF7"/>
<path d="M17.8526 111.659C17.1935 111.439 16.754 110.78 16.3146 110.341C15.4357 109.682 14.7765 109.023 14.1173 108.584C13.4582 108.144 12.799 107.485 11.9201 107.046C11.7004 106.826 11.0412 106.387 10.6018 106.387C10.382 106.387 10.6018 106.826 10.8215 106.826C11.0412 106.826 11.2609 107.046 11.2609 107.046C11.7004 107.265 11.9201 107.485 12.3595 107.705C13.0187 108.144 13.6779 108.803 14.5568 109.243C14.9962 109.682 15.216 110.121 15.6554 110.341C15.8751 110.561 16.3146 110.78 16.5343 111C16.9737 111.22 17.4132 111.659 17.8526 111.879C18.0724 112.098 18.0724 111.879 17.8526 111.659Z" fill="#F9FAF7"/>
<path d="M16.754 112.757C16.3146 112.537 15.8751 111.878 15.4357 111.659C14.9962 111.219 14.3371 111 13.8976 110.56C13.4582 110.121 13.0187 109.681 12.5793 109.462C11.9201 109.022 11.2609 108.583 10.6018 108.144C10.382 107.924 10.1623 108.144 10.382 108.363C10.8215 108.803 11.4806 109.242 11.9201 109.462C12.5793 109.901 13.0187 110.341 13.4582 110.78C14.1173 111.219 14.7765 111.659 15.216 112.098C15.6554 112.537 16.0948 112.977 16.5343 113.196C16.9737 113.196 16.9737 112.757 16.754 112.757Z" fill="#F9FAF7"/>
<path d="M15.4357 113.855C14.7765 113.416 14.1173 112.977 13.6779 112.318C13.0187 111.878 12.5793 111.219 11.9201 110.78C11.2609 110.34 10.8215 109.901 10.1623 109.242C9.94257 109.022 9.72285 108.803 9.50312 108.803C9.2834 108.803 9.50312 109.022 9.72285 109.022C10.1623 109.022 10.8215 109.901 11.0412 110.121C11.4806 110.56 11.9201 111 12.3595 111.219C12.799 111.659 13.2384 112.098 13.6779 112.318C14.1173 112.757 14.7765 113.196 15.2159 113.636C15.4357 114.075 15.6554 114.075 15.4357 113.855Z" fill="#F9FAF7"/>
<path d="M14.1171 115.174C13.458 114.295 12.5791 113.856 11.9199 112.977C11.4804 112.538 11.041 112.098 10.6015 111.659C10.1621 111.22 9.94237 110.78 9.2832 110.561H9.06348C9.06348 110.78 9.2832 110.78 9.50292 110.78C9.72265 111 10.1621 111.439 10.3818 111.659C10.8213 112.098 11.2607 112.318 11.7002 112.757C12.5791 113.416 13.458 114.075 14.1171 114.954C13.8974 115.174 14.3368 115.394 14.1171 115.174Z" fill="#F9FAF7"/>
<path d="M13.2382 115.832C12.7988 115.612 12.579 115.393 12.3593 114.953C11.9199 114.734 11.2607 114.514 10.8213 114.075C10.3818 113.635 9.94236 113.196 9.50291 112.976C9.28319 112.756 8.62402 112.537 8.62402 112.317C8.62402 112.097 8.18457 112.097 8.18457 112.317C8.40429 112.537 8.62402 112.537 9.06347 112.756C9.72264 113.196 10.1621 113.635 10.8213 114.294C11.2607 114.734 11.7001 114.953 12.1396 115.393C12.579 115.612 12.7988 116.052 13.2382 116.271C13.2382 116.271 13.4579 116.052 13.2382 115.832Z" fill="#F9FAF7"/>
<path d="M11.7003 116.932C10.8214 116.493 10.382 115.614 9.72282 114.955C9.5031 114.735 9.28338 114.516 9.06365 114.516C8.84393 114.296 8.18476 114.076 7.96503 113.857C7.74531 113.637 7.52559 113.857 7.74531 114.076C7.96503 114.296 8.18476 114.296 8.40448 114.516C9.06365 114.735 9.5031 115.394 9.94255 115.834C10.6017 116.493 11.0412 117.152 11.7003 117.372C11.9201 117.372 11.9201 116.932 11.7003 116.932Z" fill="#F9FAF7"/>
<path d="M9.94234 117.37C9.06345 116.272 7.96483 115.393 7.08593 114.295C7.08593 114.295 6.64649 114.075 6.86621 114.295C7.74511 115.393 8.624 116.272 9.50289 117.151C9.72262 117.59 10.1621 117.59 9.94234 117.37Z" fill="#F9FAF7"/>
<path d="M8.40451 117.371C7.96506 116.931 7.74534 116.492 7.30589 116.272C6.86644 116.053 6.42699 115.613 6.20727 115.394L5.98755 115.174C5.76782 115.174 5.76782 115.174 5.98755 115.394C6.20727 115.833 6.64672 116.053 6.86644 116.272C7.30589 116.712 7.74534 117.151 8.18478 117.59C8.18478 117.371 8.62423 117.59 8.40451 117.371Z" fill="#F9FAF7"/>
<path d="M2.91112 99.3564C2.6914 99.5761 2.25195 99.5761 2.03223 99.7958C2.03223 99.7958 2.25195 100.235 2.47167 100.015C2.6914 99.7958 3.13085 99.7958 3.35057 99.5761C3.35057 99.5761 2.91112 99.1368 2.91112 99.3564Z" fill="#F9FAF7"/>
<path d="M3.57048 100.016C3.35075 100.016 3.35075 100.016 3.35075 100.235C3.13103 100.455 2.9113 100.455 2.69158 100.455C2.47186 100.455 2.25213 100.675 2.03241 100.894C1.81269 100.894 1.59296 101.114 1.37324 101.334C1.15352 101.334 1.37324 101.773 1.59296 101.773C2.03241 101.773 2.25213 101.334 2.47186 101.334C2.69158 101.334 2.9113 101.114 3.13103 101.114C3.35075 101.114 3.57048 100.894 3.7902 100.675C4.22965 100.455 3.7902 100.016 3.57048 100.016Z" fill="#F9FAF7"/>
<path d="M3.13083 101.554C2.91111 101.554 2.69138 101.774 2.25194 101.993C1.81249 102.213 1.37304 102.433 0.933593 102.872C0.713869 103.092 1.15332 103.311 1.15332 103.311C1.37304 103.092 1.81249 102.872 2.03221 102.652C2.25194 102.433 2.69138 102.213 2.91111 101.993C3.79 101.774 3.35055 101.334 3.13083 101.554Z" fill="#F9FAF7"/>
<path d="M3.13083 102.651C2.91111 102.651 2.69138 102.871 2.25194 103.091C1.81249 103.31 1.37304 103.53 0.933593 103.969C0.713869 104.189 1.15332 104.409 1.15332 104.409C1.81249 103.75 2.03221 103.75 2.47166 103.53C2.69138 103.31 3.13083 103.091 3.35055 102.871C3.57028 102.871 3.35055 102.432 3.13083 102.651Z" fill="#F9FAF7"/>
<path d="M2.9111 103.75C2.69138 103.75 2.47166 103.97 2.03221 104.189C1.59276 104.409 1.15331 104.629 0.713866 105.068C0.494143 105.288 0.93359 105.507 0.93359 105.507C1.15331 105.288 1.59276 105.068 1.81248 104.848C2.03221 104.629 2.47166 104.409 2.69138 104.189C3.35055 103.97 3.13083 103.75 2.9111 103.75Z" fill="#F9FAF7"/>
<path d="M2.69138 105.068C2.47165 105.068 2.25193 105.287 1.81248 105.507C1.37303 105.727 0.933587 105.946 0.49414 106.386C0.274416 106.605 0.713864 106.825 0.713864 106.825C0.933588 106.605 1.37303 106.386 1.59276 106.166C1.81248 105.946 2.25193 105.727 2.47165 105.507C3.13082 105.287 2.9111 104.848 2.69138 105.068Z" fill="#F9FAF7"/>
<path d="M2.47165 106.166C2.25193 106.166 2.0322 106.386 1.59276 106.605C1.15331 106.825 0.713861 107.045 0.274413 107.484C0.0546896 107.704 0.494137 107.923 0.494137 107.923C0.71386 107.704 1.15331 107.484 1.37303 107.264C1.59276 107.045 2.0322 106.825 2.25193 106.605C2.9111 106.605 2.69137 106.166 2.47165 106.166Z" fill="#F9FAF7"/>
<path d="M2.25193 107.484C2.0322 107.484 1.81248 107.704 1.37303 107.924C1.15331 108.143 0.713861 108.363 0.274413 108.583C0.0546896 108.802 0.494137 109.022 0.494137 109.022C0.71386 108.802 1.15331 108.583 1.37303 108.363C1.81248 108.143 2.25193 107.924 2.47165 107.924C2.9111 107.704 2.47165 107.484 2.25193 107.484Z" fill="#F9FAF7"/>
<path d="M2.25192 108.804C2.0322 108.804 1.81248 109.023 1.37303 109.243C0.933582 109.463 0.494135 109.682 0.0546875 110.122C0.0546875 110.122 0.274411 110.341 0.494135 110.341C0.713858 110.122 1.15331 109.902 1.37303 109.682C1.59275 109.463 2.0322 109.243 2.25192 109.023C2.69137 109.023 2.47165 108.584 2.25192 108.804Z" fill="#F9FAF7"/>
<path d="M2.47165 109.682C2.25193 109.682 2.0322 109.901 1.59276 110.121C1.15331 110.341 0.713861 110.56 0.274413 111C0.0546896 111.219 0.494137 111.439 0.494137 111.439C0.71386 111.219 1.15331 111 1.37303 110.78C1.59276 110.56 2.0322 110.341 2.25193 110.121C2.9111 110.121 2.69137 109.682 2.47165 109.682Z" fill="#F9FAF7"/>
<path d="M2.9111 110.779C2.69138 110.779 2.47166 110.999 2.03221 111.219C1.59276 111.438 1.15331 111.658 0.713866 112.097C0.494143 112.317 0.93359 112.537 0.93359 112.537C1.15331 112.317 1.59276 112.097 1.81248 111.878C2.03221 111.658 2.47166 111.438 2.69138 111.219C3.35055 110.999 2.9111 110.779 2.9111 110.779Z" fill="#F9FAF7"/>
<path d="M3.13083 111.878C2.91111 111.878 2.69138 112.098 2.25194 112.318C1.81249 112.537 1.37304 112.757 0.933593 113.196C0.713869 113.416 1.15332 113.636 1.15332 113.636C1.37304 113.416 1.81249 113.196 2.03221 112.977C2.25194 112.757 2.69138 112.537 2.91111 112.318C3.57028 112.098 3.35055 111.659 3.13083 111.878Z" fill="#F9FAF7"/>
<path d="M3.57028 112.758C3.35056 112.758 3.13084 112.977 2.69139 113.197C2.25194 113.417 1.81249 113.637 1.37305 114.076C1.15332 114.296 1.59277 114.515 1.59277 114.515C1.81249 114.296 2.25194 114.076 2.47166 113.856C2.69139 113.637 3.13084 113.417 3.35056 113.197C4.22945 113.197 3.79001 112.758 3.57028 112.758Z" fill="#F9FAF7"/>
<path d="M4.44919 113.637C4.22947 113.637 4.00974 113.856 3.57029 114.076C3.13085 114.296 2.6914 114.515 2.25195 114.955C2.03223 115.174 2.47168 115.394 2.47168 115.394C2.6914 115.174 3.13085 114.955 3.35057 114.735C3.57029 114.515 4.00974 114.296 4.22947 114.076C4.88864 114.076 4.44919 113.637 4.44919 113.637Z" fill="#F9FAF7"/>
<path d="M5.10837 114.516C4.88864 114.516 4.66892 114.735 4.22947 114.955C3.79003 115.175 3.35058 115.394 2.91113 115.834C2.69141 116.053 3.13086 116.273 3.13086 116.273C3.35058 116.053 3.79003 115.834 4.00975 115.614C4.22947 115.394 4.66892 115.175 4.88865 114.955C5.54782 114.955 5.32809 114.516 5.10837 114.516Z" fill="#F9FAF7"/>
<path d="M5.98728 115.393C5.76755 115.393 5.54783 115.612 5.10838 115.832C4.66893 116.052 4.22949 116.271 3.79004 116.711C3.79004 116.711 4.22949 116.93 4.44921 116.93C4.66893 116.711 5.10838 116.491 5.32811 116.271C5.54783 116.052 5.98728 115.832 6.207 115.612C6.64645 115.612 6.207 115.393 5.98728 115.393Z" fill="#F9FAF7"/>
<path d="M16.3146 115.614C16.9738 114.955 17.633 114.296 18.0724 113.637C18.7316 112.977 19.1711 111.879 19.8302 111.22C20.0499 111 19.8302 111 19.8302 110.781C20.7091 109.682 21.3683 108.364 21.8077 107.266C22.6866 105.069 23.1261 102.433 23.1261 100.016C23.1261 97.5999 22.4669 94.9637 20.9288 93.2063C20.2697 92.3275 19.1711 91.6685 18.2922 90.7898C17.633 90.3504 16.9738 89.9111 16.0949 89.9111V89.6914C15.8752 89.4717 15.8752 89.6914 15.6555 89.6914C15.216 90.1307 14.7766 90.5701 14.5569 91.2291C14.5569 91.6685 14.5569 91.8882 14.7766 92.3275C14.7766 92.5472 14.9963 92.5472 14.9963 92.7669C14.7766 92.5472 14.5569 93.2063 14.7766 93.4259C15.4358 93.8653 15.8752 93.2063 15.6555 92.5472C15.6555 92.3275 15.216 91.8882 14.9963 91.6685C14.7766 91.2291 15.216 90.7898 15.4358 90.5701H15.6555C16.5344 90.5701 17.4133 91.2291 18.0724 91.8882C18.9513 92.5472 19.8302 93.2063 20.4894 94.3047C21.1486 95.1834 21.3683 96.5015 21.8077 97.5999C22.0275 98.6983 22.2472 99.7967 22.2472 100.895C22.2472 103.092 21.8077 105.289 20.9288 107.485C20.0499 109.682 18.5119 111.44 17.1935 113.417V113.637C16.9738 113.856 16.7541 114.076 16.5344 114.296C15.4358 115.394 14.1174 116.712 12.5793 117.151C11.261 117.591 9.94266 117.591 8.40459 117.591C6.6468 117.591 5.10874 117.151 3.7904 116.053C3.57067 115.833 2.9115 116.053 3.35095 116.492C5.54819 118.469 9.06376 118.689 11.9202 118.03C13.8977 117.81 15.216 116.712 16.3146 115.614Z" fill="#F9FAF7"/>
<path d="M54.1072 109.023C54.3269 109.023 54.3269 109.023 54.5466 109.023H54.7663C55.4255 108.803 55.865 108.584 56.5241 108.144C56.5241 108.144 56.5241 108.144 56.7439 108.144C58.2819 107.046 59.6003 105.288 59.82 103.311C60.4792 99.357 58.5016 95.4028 55.6452 92.7666C52.5691 90.1304 48.6141 87.4943 44.4393 86.8352C41.1435 86.1762 36.0898 85.9565 34.1123 89.2517C34.1123 89.2517 33.8926 89.2517 33.8926 89.032C33.0137 88.5927 32.1348 88.1533 31.4756 87.714C31.0362 87.4943 24.2247 82.6613 22.2472 82.222C21.5881 82.0023 20.9289 82.0023 20.05 81.7826C20.05 81.7826 20.05 81.7826 20.2697 81.7826C20.9289 81.5629 22.0275 81.1236 22.9064 81.1236C24.6642 81.3432 26.6417 81.1236 28.6192 81.5629C29.4981 81.7826 30.1573 81.7826 31.0362 81.5629C31.4756 81.5629 33.2334 81.3432 33.6729 81.3432C35.2109 81.3432 38.0673 81.7826 38.0673 81.7826C38.2871 81.7826 38.5068 81.7826 38.7265 81.7826C38.7265 81.7826 38.7265 81.7826 38.9462 81.7826C40.4843 81.7826 42.0224 81.3432 43.5604 80.9039H43.7802C44.6591 80.4645 45.5379 80.2448 46.6366 79.8055C47.076 79.5858 47.5155 79.3661 47.9549 79.3661C47.9549 79.3661 47.9549 79.3661 48.1746 79.3661C48.8338 79.1464 49.2733 78.9268 49.9324 78.7071C50.5916 78.2677 51.4705 78.048 52.1297 77.8284C52.1297 77.8284 52.3494 77.8284 52.5691 77.6087C53.0086 77.389 53.448 77.389 53.8874 77.1693H54.1072C54.5466 76.9496 55.2058 76.9496 55.6452 76.73C55.865 76.73 56.3044 76.5103 56.5241 76.5103C57.403 76.2906 58.5016 76.2906 59.3805 76.2906H59.6003C60.4792 76.2906 61.3581 76.2906 62.237 76.2906H62.4567C63.1158 76.2906 63.775 76.2906 64.4342 76.2906C65.9723 76.2906 67.2906 76.73 68.8287 76.9496C69.2681 76.9496 69.7076 76.9496 70.147 76.9496C70.147 76.9496 70.147 76.9496 70.3667 76.9496C71.2456 77.1693 72.3442 77.389 73.2231 77.6087C73.4429 77.6087 73.6626 77.389 73.4429 77.389C73.4429 77.389 73.4429 77.389 73.2231 77.389C73.2231 77.389 73.0034 77.389 73.0034 77.1693C73.0034 77.1693 72.7837 77.1693 72.7837 76.9496C71.0259 75.6316 69.2681 74.0938 67.5103 72.556C66.192 71.4576 65.0934 70.5789 63.775 69.4805C63.3356 69.0412 62.6764 68.8215 62.237 68.3821C60.4792 67.5034 58.7214 67.064 56.7439 66.6247C56.3044 66.6247 55.865 66.6247 55.4255 66.405H55.2058C53.6677 66.1853 52.1297 66.1853 50.5916 66.405C49.7127 66.405 48.8338 66.6247 47.9549 66.8444H47.7352C46.6366 67.064 45.7577 67.5034 44.6591 67.7231C42.6815 68.6018 40.4843 69.2608 38.5068 70.1396C36.5293 71.0183 34.7715 72.3364 32.794 73.4348C30.8165 74.7528 29.0587 75.8512 27.0812 77.1693C25.1036 78.4874 22.9064 79.8055 20.7092 80.9039C19.8303 81.1236 19.1711 81.5629 18.2922 81.5629H18.0725C17.8528 81.5629 17.633 81.5629 17.4133 81.5629C16.7541 81.7826 16.3147 82.0023 15.6555 82.222C14.5569 82.6613 9.50326 85.9565 8.18492 86.6156H7.96519C7.52575 86.8352 7.74547 87.2746 7.96519 87.4943C5.10879 90.7895 7.52575 88.8124 7.52575 88.8124C7.96519 88.5927 11.9202 85.9565 14.1175 84.4188C14.3372 84.4188 14.5569 84.1991 14.5569 84.1991C15.6555 83.7597 16.9739 83.3204 18.0725 82.881C18.7317 82.6613 19.1711 82.4416 19.8303 82.222C20.7092 82.222 21.5881 82.4416 22.2472 82.6613C22.467 82.881 22.6867 82.881 23.1261 83.1007C23.7853 83.54 24.4445 83.9794 24.8839 84.1991C25.9825 84.8581 27.0812 85.5172 28.1798 86.1762C29.2784 86.8352 30.1573 87.714 31.0362 88.5927C31.6954 89.2517 32.3545 89.9108 33.0137 90.5698C33.0137 90.7895 32.794 91.0092 32.794 91.0092C31.6954 92.7666 31.6954 95.1831 32.3545 96.9405C32.3545 97.1602 32.5743 97.3799 32.5743 97.5996C33.2334 99.1373 34.332 100.455 35.6504 101.554C35.8701 101.993 36.3096 102.213 36.5293 102.433C38.7265 104.629 41.3632 105.728 43.9999 106.606C44.4393 106.826 44.8788 107.046 45.3182 107.046C45.7577 107.265 46.1971 107.265 46.6366 107.485C48.3944 108.144 50.1521 108.584 51.9099 108.584C52.1297 108.584 52.3494 108.584 52.5691 108.584C53.0086 109.243 53.6677 109.243 54.1072 109.023ZM25.3234 80.4645C25.1036 80.4645 24.8839 80.4645 24.6642 80.4645C24.6642 80.2448 24.8839 80.0252 25.1036 79.8055C25.3234 79.8055 25.3234 79.8055 25.5431 79.5858C25.5431 79.5858 25.5431 79.5858 25.5431 79.8055C25.5431 79.8055 25.5431 79.8055 25.5431 80.0252V80.2448C25.5431 80.4645 25.7628 80.4645 25.9825 80.2448C25.9825 80.2448 25.9825 80.2448 25.9825 80.4645C25.7628 80.6842 25.5431 80.4645 25.3234 80.4645ZM27.7403 80.6842C27.3009 80.6842 26.8614 80.6842 26.6417 80.6842C26.6417 80.4645 26.422 80.2448 26.2023 80.0252V79.8055V79.5858C26.422 79.5858 26.6417 79.3661 26.8614 79.3661V79.5858C26.8614 79.8055 26.6417 79.8055 26.6417 80.0252C26.6417 80.2448 26.422 80.4645 26.422 80.4645C26.422 80.6842 26.8614 80.6842 26.8614 80.4645C26.8614 80.2448 27.0812 80.2448 27.0812 80.0252V79.8055C27.3009 80.0252 27.5206 80.2448 27.5206 80.2448L27.9601 80.0252C27.7403 79.8055 27.5206 79.5858 27.3009 79.1464C27.3009 78.9268 27.5206 78.9268 27.7403 78.7071C27.9601 78.9268 28.1798 79.1464 28.3995 79.5858C28.1798 79.8055 28.1798 80.0252 28.1798 80.2448C28.1798 80.4645 28.6192 80.2448 28.6192 80.0252C28.6192 79.8055 28.6192 79.8055 28.6192 79.5858C28.8389 79.8055 29.0587 80.0252 29.0587 80.2448C28.8389 80.6842 28.1798 80.6842 27.7403 80.6842ZM34.5518 76.2906C34.7715 76.0709 34.9912 76.0709 34.9912 76.0709C34.9912 76.2906 35.2109 76.5103 35.2109 76.73C34.9912 77.1693 34.9912 77.6087 34.9912 77.8284C34.7715 77.389 34.5518 76.9496 34.332 76.73C34.332 76.5103 34.332 76.5103 34.5518 76.2906ZM33.8926 76.5103C34.1123 76.5103 34.1123 76.5103 33.8926 76.5103ZM49.9324 70.5789H50.1521C50.1521 70.5789 50.1521 70.5789 50.1521 70.7986C50.1521 71.0183 50.1521 71.0183 49.9324 71.238C49.9324 71.4576 49.7127 71.6773 49.7127 71.897C49.493 71.4576 49.493 71.238 49.2733 70.7986H49.493C49.7127 70.5789 49.9324 70.5789 49.9324 70.5789ZM62.0172 72.556C61.7975 72.7757 61.7975 72.9954 61.7975 72.9954C61.5778 72.7757 61.5778 72.556 61.3581 72.3364C61.3581 72.1167 61.5778 72.1167 61.7975 71.897C61.7975 71.897 61.7975 71.897 61.7975 72.1167C61.7975 72.3364 61.7975 72.3364 62.0172 72.556ZM62.237 72.1167C62.4567 72.3364 62.4567 72.3364 62.237 72.1167ZM65.0934 74.0938C64.8736 73.8741 64.6539 73.4348 64.4342 73.2151C64.6539 73.2151 64.8736 73.4348 65.0934 73.4348C65.3131 73.4348 65.3131 73.6544 65.5328 73.6544C65.3131 73.8741 65.3131 74.0938 65.0934 74.0938ZM65.7525 73.8741C65.9723 74.0938 65.9723 74.0938 66.192 74.3135C65.9723 74.5332 65.9723 74.7528 65.7525 74.7528C65.7525 74.5332 65.5328 74.3135 65.3131 74.3135C65.3131 74.3135 65.3131 74.3135 65.3131 74.0938C65.5328 74.0938 65.5328 74.0938 65.7525 73.8741ZM63.9947 73.4348C63.775 73.6544 63.775 73.8741 63.5553 74.0938C63.3356 73.8741 63.1158 73.6544 63.1158 73.4348L63.3356 73.2151C63.3356 73.2151 63.5553 73.2151 63.5553 72.9954C63.5553 72.7757 63.1158 72.9954 63.1158 72.9954C63.1158 72.9954 63.1158 73.2151 62.8961 73.2151C62.6764 72.9954 62.6764 72.7757 62.4567 72.7757L62.6764 72.556C62.8961 72.556 63.1158 72.7757 63.3356 72.9954C63.5553 72.9954 63.775 73.2151 63.9947 73.4348ZM62.6764 73.4348C62.4567 73.6544 62.4567 73.8741 62.237 73.8741C62.0172 73.6544 62.0172 73.4348 61.7975 73.2151C62.0172 72.9954 62.0172 72.9954 62.237 72.7757C62.4567 72.9954 62.4567 73.2151 62.6764 73.4348ZM47.2957 73.2151C47.2957 72.9954 47.5155 72.7757 47.5155 72.556C47.5155 72.3364 47.5155 71.897 47.7352 71.4576C47.7352 71.6773 47.9549 71.897 47.9549 72.1167C47.9549 72.1167 47.9549 72.3364 48.1746 72.3364C47.9549 72.556 47.9549 72.7757 47.7352 72.9954C47.7352 73.2151 47.5155 73.2151 47.5155 73.4348C47.2957 73.4348 47.2957 73.2151 47.2957 73.2151ZM46.4168 74.5332C46.1971 74.3135 45.9774 73.8741 45.9774 73.6544C45.9774 73.4348 45.9774 73.4348 46.1971 73.2151C46.1971 72.9954 46.4168 72.7757 46.4168 72.556C46.6366 72.7757 46.8563 73.2151 47.076 73.4348C46.6366 73.6544 46.6366 74.0938 46.4168 74.5332ZM56.5241 72.9954C56.5241 72.9954 56.5241 72.7757 56.7439 72.7757C57.403 73.6544 57.8425 74.5332 58.5016 75.4119C58.0622 75.4119 57.8425 75.4119 57.403 75.6316C56.7439 74.7528 56.3044 74.0938 55.6452 73.2151C55.865 72.9954 56.0847 72.556 56.3044 72.3364C56.3044 72.556 56.5241 72.556 56.5241 72.7757C56.3044 72.9954 55.865 73.2151 56.0847 73.4348C56.3044 73.2151 56.5241 72.9954 56.5241 72.9954ZM51.9099 73.4348V73.2151C51.9099 73.2151 51.9099 73.2151 51.9099 73.4348C52.7888 74.0938 53.448 75.1922 54.3269 76.0709C54.1072 76.0709 53.6677 76.2906 53.448 76.2906C52.7888 75.4119 51.9099 74.5332 51.2508 73.4348C51.031 73.2151 51.031 72.9954 50.8113 72.7757C51.031 72.556 51.031 72.1167 51.2508 71.897C51.4705 72.1167 51.4705 72.3364 51.6902 72.556C51.6902 72.7757 51.4705 72.9954 51.4705 73.2151C51.4705 73.8741 51.9099 73.6544 51.9099 73.4348ZM56.7439 75.4119C56.5241 75.4119 56.3044 75.4119 56.0847 75.6316C55.865 75.4119 55.6452 75.1922 55.4255 74.9725C54.9861 74.5332 54.7663 73.8741 54.3269 73.4348C54.3269 73.2151 54.1072 73.2151 54.1072 73.2151H54.3269C54.3269 72.9954 54.5466 72.7757 54.5466 72.556C54.7663 72.7757 54.9861 72.9954 55.2058 73.4348C55.6452 73.8741 56.3044 74.7528 56.7439 75.4119ZM56.7439 71.6773C56.9636 71.4576 57.1833 71.238 57.1833 71.238C57.403 71.4576 57.403 71.6773 57.6228 71.6773C57.403 71.897 57.1833 71.897 56.9636 72.1167C56.9636 72.1167 56.7439 71.897 56.7439 71.6773ZM55.4255 72.7757C55.2058 72.556 54.9861 72.3364 54.7663 72.1167C54.9861 71.897 55.2058 71.6773 55.4255 71.4576L55.6452 71.238C55.865 71.4576 56.0847 71.6773 56.0847 71.897C55.865 72.1167 55.6452 72.3364 55.4255 72.7757ZM54.3269 72.1167C54.1072 72.3364 54.1072 72.556 53.8874 72.7757L53.6677 72.556C53.8874 72.3364 53.8874 72.1167 54.1072 71.6773C54.1072 71.897 54.3269 72.1167 54.3269 72.1167ZM53.2283 72.7757C53.2283 72.9954 53.0086 73.2151 53.0086 73.4348C52.7888 73.6544 53.2283 73.6544 53.448 73.4348L53.6677 73.2151C53.8874 73.4348 53.8874 73.6544 54.1072 73.8741C54.5466 74.3135 54.7663 74.9725 55.2058 75.4119C55.2058 75.4119 55.4255 75.6316 55.6452 75.8512H55.4255C55.2058 75.8512 54.9861 76.0709 54.5466 76.0709C53.6677 74.9725 52.7888 74.0938 51.9099 72.9954C51.9099 72.9954 51.9099 72.9954 51.9099 72.7757C52.1297 72.556 52.1297 72.3364 52.3494 72.1167C52.3494 72.1167 52.3494 71.897 52.5691 71.897C52.7888 72.1167 53.0086 72.3364 53.2283 72.7757ZM51.9099 72.1167L51.6902 72.3364C51.4705 72.1167 51.4705 71.897 51.2508 71.4576C51.4705 71.238 51.4705 71.0183 51.6902 70.5789C51.9099 70.7986 52.1297 71.0183 52.3494 71.238C52.3494 71.6773 52.1297 71.897 51.9099 72.1167ZM51.031 71.6773C51.031 71.897 50.8113 72.1167 50.8113 72.3364C50.8113 72.556 50.5916 72.556 50.5916 72.7757C50.3719 72.556 50.3719 72.3364 50.1521 72.1167V71.897C50.3719 71.6773 50.3719 71.4576 50.5916 71.0183C50.5916 71.238 50.8113 71.4576 51.031 71.6773ZM49.7127 72.1167C49.493 72.556 49.2733 72.9954 49.2733 73.4348C49.0535 72.9954 48.8338 72.556 48.6141 72.3364C48.8338 71.897 49.0535 71.4576 49.2733 71.0183C49.2733 71.4576 49.493 71.6773 49.7127 72.1167ZM48.1746 72.7757C48.1746 72.9954 48.3944 72.9954 48.3944 73.2151C48.8338 73.8741 49.0535 74.3135 49.493 74.9725C49.9324 75.6316 50.5916 76.2906 51.031 76.9496C50.8113 76.9496 50.5916 77.1693 50.1521 77.1693C49.2733 76.2906 48.6141 75.1922 47.9549 74.3135C47.7352 74.0938 47.7352 73.8741 47.5155 73.6544C47.7352 73.4348 47.9549 72.9954 48.1746 72.7757ZM49.493 74.0938C49.493 73.8741 49.2733 73.8741 49.2733 73.6544C49.2733 73.6544 49.493 73.6544 49.493 73.4348C49.493 72.9954 49.7127 72.556 49.7127 72.3364C49.7127 72.3364 49.7127 72.556 49.9324 72.556C49.9324 72.7757 50.1521 72.7757 50.1521 72.9954C49.9324 73.2151 49.9324 73.6544 49.9324 73.8741C49.9324 74.0938 50.3719 73.8741 50.3719 73.6544C50.3719 73.4348 50.3719 73.4348 50.3719 73.2151C50.5916 73.4348 50.5916 73.6544 50.8113 73.8741C51.4705 74.7528 52.1297 75.4119 52.7888 76.2906C52.3494 76.5103 51.9099 76.5103 51.6902 76.73C50.8113 75.8512 50.1521 74.9725 49.493 74.0938ZM58.9411 75.1922C58.2819 74.3135 57.6228 73.4348 57.1833 72.3364C57.1833 72.3364 57.403 72.3364 57.403 72.1167C57.6228 72.1167 57.6228 71.897 57.8425 71.897C58.0622 72.3364 58.2819 72.556 58.5016 72.9954C58.5016 72.9954 58.5016 73.2151 58.2819 73.2151C58.0622 73.4348 58.5016 73.2151 58.5016 73.2151C58.9411 73.8741 59.3805 74.5332 59.82 75.1922C59.6003 75.1922 59.1608 75.1922 58.9411 75.1922ZM58.9411 72.9954C58.9411 72.556 59.1608 72.3364 59.3805 72.1167L59.6003 72.3364C59.6003 72.556 59.82 72.556 59.82 72.7757C59.6003 72.9954 59.6003 73.2151 59.3805 73.4348C58.9411 73.2151 58.9411 72.9954 58.9411 72.9954ZM60.0397 72.556C60.2594 72.3364 60.2594 72.1167 60.4792 71.897C60.6989 72.1167 60.6989 72.3364 60.9186 72.556C60.6989 72.7757 60.6989 72.9954 60.4792 73.2151C60.4792 73.2151 60.4792 73.2151 60.4792 72.9954C60.2594 72.7757 60.0397 72.7757 60.0397 72.556ZM61.1383 72.1167C61.1383 71.897 60.9186 71.897 60.9186 71.6773C60.9186 71.6773 60.9186 71.6773 61.1383 71.6773C61.3581 71.6773 61.3581 71.6773 61.5778 71.897C61.3581 71.897 61.1383 72.1167 61.1383 72.1167ZM60.4792 71.897C60.2594 72.1167 60.0397 72.1167 60.0397 72.3364C59.82 72.1167 59.82 71.897 59.6003 71.6773L59.82 71.4576H60.0397C60.2594 71.4576 60.2594 71.4576 60.4792 71.4576C60.2594 71.4576 60.2594 71.6773 60.4792 71.897C60.2594 71.6773 60.2594 71.6773 60.4792 71.897ZM59.3805 71.4576L59.1608 71.238C59.3805 71.238 59.3805 71.238 59.3805 71.4576ZM59.1608 71.897C58.9411 72.1167 58.9411 72.3364 58.7214 72.556C58.5016 72.3364 58.2819 71.897 58.0622 71.6773L58.2819 71.4576H58.5016C58.7214 71.4576 58.9411 71.6773 59.1608 71.897ZM57.8425 71.4576C57.6228 71.238 57.6228 71.0183 57.403 71.0183C57.6228 71.0183 57.8425 71.0183 58.2819 71.0183C58.0622 71.238 58.0622 71.238 57.8425 71.4576ZM56.5241 71.4576C56.3044 71.238 56.3044 71.0183 56.0847 70.7986C56.3044 70.7986 56.7439 70.7986 56.9636 70.7986C56.7439 71.238 56.7439 71.238 56.5241 71.4576ZM55.6452 71.0183C55.4255 71.238 54.9861 71.4576 54.7663 71.6773C54.7663 71.4576 54.5466 71.4576 54.5466 71.238L54.7663 71.0183C54.7663 71.0183 54.9861 71.0183 54.9861 70.7986V70.5789C55.2058 70.5789 55.2058 70.5789 55.4255 70.5789C55.4255 70.7986 55.4255 70.7986 55.6452 71.0183ZM54.1072 71.0183C53.8874 70.7986 53.8874 70.5789 53.6677 70.5789C53.8874 70.5789 54.1072 70.5789 54.3269 70.5789C54.5466 70.7986 54.3269 70.7986 54.1072 71.0183ZM53.8874 71.4576C53.6677 71.6773 53.6677 71.897 53.448 72.3364C53.2283 72.1167 53.0086 71.6773 52.7888 71.4576C53.0086 71.238 53.0086 70.7986 53.2283 70.5789C53.448 70.7986 53.6677 71.238 53.8874 71.4576ZM52.5691 71.0183C52.3494 70.7986 52.1297 70.5789 52.1297 70.3592C52.3494 70.3592 52.7888 70.3592 53.0086 70.3592C52.7888 70.5789 52.7888 70.7986 52.5691 71.0183ZM51.2508 71.238C51.031 71.0183 50.8113 70.7986 50.8113 70.5789C51.031 70.5789 51.2508 70.5789 51.4705 70.5789H51.6902C51.4705 70.5789 51.2508 70.7986 51.2508 71.238ZM48.8338 70.7986C48.6141 71.238 48.3944 71.6773 48.1746 72.1167C47.9549 71.897 47.9549 71.6773 47.7352 71.238C47.7352 71.238 47.7352 71.238 47.7352 71.0183C48.1746 70.7986 48.3944 70.7986 48.8338 70.7986ZM47.2957 71.0183C47.5155 71.238 47.2957 71.238 47.2957 71.0183C47.076 71.4576 47.076 71.897 46.8563 72.3364V72.556C46.6366 72.3364 46.6366 72.1167 46.4168 71.6773C46.4168 71.4576 46.6366 71.238 46.6366 71.238H46.8563C47.076 71.238 47.076 71.0183 47.2957 71.0183ZM45.9774 71.897C45.7577 72.3364 45.7577 72.7757 45.5379 72.9954C45.5379 72.7757 45.3182 72.7757 45.3182 72.556C45.3182 72.556 45.3182 72.3364 45.0985 72.3364C45.3182 72.1167 45.5379 71.6773 45.3182 71.4576H45.5379C45.7577 71.6773 45.9774 71.897 45.9774 71.897ZM44.8788 72.1167C44.8788 71.897 44.8788 71.897 44.8788 71.897H45.0985C45.0985 71.897 44.8788 71.897 44.8788 72.1167ZM44.6591 72.556C44.4393 72.9954 43.9999 73.6544 43.9999 73.6544C43.7802 73.4348 43.7802 73.2151 43.5604 72.9954C43.5604 72.9954 43.5604 72.9954 43.5604 72.7757C43.5604 72.556 43.7802 72.3364 43.7802 72.1167C43.9999 72.1167 44.2196 71.897 44.4393 71.897C44.4393 72.1167 44.4393 72.3364 44.6591 72.556ZM43.5604 74.3135C43.3407 74.7528 43.3407 75.1922 43.121 75.6316C42.9013 75.4119 42.6815 74.9725 42.6815 74.7528C42.6815 74.5332 42.9013 74.3135 42.9013 74.3135C42.9013 74.0938 43.121 73.8741 43.121 73.6544C43.121 73.6544 43.121 73.8741 43.3407 73.8741C43.3407 73.8741 43.5604 74.0938 43.5604 74.3135ZM43.121 72.556C43.121 72.3364 43.121 72.3364 43.121 72.3364C43.3407 72.556 43.121 72.556 43.121 72.556ZM42.9013 72.9954C42.6815 73.4348 42.4618 73.8741 42.4618 74.0938C42.2421 73.6544 42.0224 73.4348 41.8026 72.9954C41.8026 72.7757 41.8026 72.7757 41.8026 72.556C42.0224 72.556 42.2421 72.3364 42.6815 72.3364C42.6815 72.7757 42.9013 72.9954 42.9013 72.9954ZM41.1435 73.2151C41.1435 73.2151 41.1435 73.4348 41.3632 73.4348C41.3632 73.6544 41.3632 73.8741 41.1435 74.0938C41.1435 74.3135 40.9237 74.5332 40.9237 74.7528C40.704 74.5332 40.4843 74.3135 40.4843 74.0938C40.4843 73.8741 40.4843 73.8741 40.4843 73.6544C40.704 73.6544 40.704 73.4348 40.9237 73.4348C40.9237 73.2151 40.9237 73.2151 41.1435 73.2151ZM39.6054 73.8741C39.6054 74.0938 39.3857 74.5332 39.3857 74.7528C39.3857 74.9725 39.3857 74.9725 39.3857 75.1922C39.166 74.9725 39.166 74.7528 38.9462 74.5332C38.9462 74.3135 38.9462 74.3135 39.166 74.0938C39.166 74.0938 39.166 74.0938 39.166 73.8741C39.3857 73.8741 39.3857 73.8741 39.6054 73.8741ZM38.5068 74.5332C38.5068 74.5332 38.5068 74.7528 38.7265 74.7528C38.5068 75.1922 38.5068 75.4119 38.2871 75.8512C38.0673 75.6316 38.0673 75.4119 37.8476 74.9725V74.7528H38.0673C38.0673 74.5332 38.0673 74.5332 38.5068 74.5332C38.2871 74.5332 38.2871 74.5332 38.5068 74.5332ZM36.9687 76.73C36.9687 76.5103 37.1884 76.2906 37.1884 76.2906C37.1884 76.0709 37.4082 75.8512 37.4082 75.6316C37.6279 75.8512 37.6279 76.0709 37.8476 76.2906C37.6279 76.5103 37.4082 76.9496 37.4082 77.389C37.1884 77.1693 36.9687 76.9496 36.9687 76.73ZM36.3096 77.1693C36.3096 77.389 36.3096 77.6087 36.3096 77.8284C36.0898 77.389 35.8701 77.1693 35.6504 76.73C35.6504 76.5103 35.8701 76.2906 36.0898 76.0709C36.3095 76.2906 36.5293 76.73 36.5293 76.9496C36.5293 76.9496 36.3096 76.9496 36.3096 77.1693ZM37.1884 74.9725C36.9687 75.1922 36.749 75.8512 36.749 76.0709C36.749 75.8512 36.5293 75.4119 36.3096 75.4119C36.5293 75.4119 36.749 75.1922 37.1884 74.9725ZM35.4307 76.0709C35.2109 75.8512 35.2109 75.8512 35.4307 76.0709C35.4307 75.8512 35.4307 75.8512 35.6504 75.8512C35.4307 75.8512 35.4307 76.0709 35.4307 76.0709ZM33.6729 76.9496C33.6729 77.1693 33.4531 77.389 33.4531 77.389C33.2334 77.6087 33.2334 77.8284 33.0137 78.2677C32.794 78.048 32.794 77.8284 32.5743 77.6087C32.794 77.389 32.794 76.9496 33.0137 76.73H33.2334C33.6729 76.73 33.6729 76.73 33.6729 76.9496ZM32.1348 78.9268C32.1348 78.7071 32.3545 78.7071 32.3545 78.4874V78.2677C32.5742 78.4874 32.5742 78.4874 32.794 78.7071C32.5742 78.9268 32.5742 79.1464 32.3545 79.1464C32.3545 79.1464 32.3545 78.9268 32.1348 78.9268ZM31.6954 79.1464C31.6954 79.3661 31.4756 79.5858 31.4756 79.5858C31.2559 79.3661 31.0362 79.1464 30.8165 78.9268C30.8165 78.7071 31.0362 78.7071 31.0362 78.4874C31.4756 78.7071 31.4756 78.9268 31.6954 79.1464ZM32.5743 77.389C32.3545 77.389 32.3545 77.1693 32.3545 77.1693C32.1348 77.1693 31.9151 77.389 31.9151 77.389C32.1348 77.389 32.3545 77.6087 32.3545 77.8284C32.3545 78.048 32.1348 78.2677 32.1348 78.4874C31.9151 78.2677 31.6954 78.048 31.4756 77.8284C31.6954 77.6087 31.6954 77.389 31.9151 77.1693C32.3545 76.9496 32.5742 76.9496 33.0137 76.73C32.5742 77.1693 32.5743 77.1693 32.5743 77.389ZM31.2559 77.8284C31.0362 77.8284 30.8165 78.048 31.0362 78.048L30.8165 78.2677V78.4874C30.5967 78.2677 30.377 78.048 30.1573 77.8284C30.5967 77.6087 31.0362 77.6087 31.4756 77.389C31.2559 77.6087 31.2559 77.6087 31.2559 77.8284ZM30.5967 78.9268C30.5967 79.1464 30.377 79.1464 30.377 79.3661C30.1573 79.1464 29.9376 78.7071 29.7178 78.4874C29.7178 78.2677 29.9376 78.2677 29.9376 78.048C29.9376 78.4874 30.1573 78.7071 30.5967 78.9268ZM28.8389 78.4874C28.8389 78.7071 29.0587 78.7071 29.0587 78.7071C29.0587 78.9268 28.8389 79.1464 28.8389 79.3661L28.3995 78.7071C28.3995 78.4874 28.6192 78.4874 28.8389 78.4874ZM31.0362 80.9039C30.8165 80.9039 30.5967 80.9039 30.377 80.9039C30.1573 80.9039 29.9376 80.9039 29.9376 80.9039C29.7178 80.4645 29.4981 80.2448 29.0587 79.8055C29.0587 79.5858 29.2784 79.5858 29.2784 79.3661V79.1464C29.7178 79.8055 30.1573 80.2448 30.5967 80.9039C30.5967 81.1236 31.0362 80.9039 31.0362 80.6842C30.8165 80.4645 30.5967 80.2448 30.377 80.0252C30.377 80.0252 30.377 80.0252 30.5967 80.0252C30.5967 80.0252 30.5967 79.8055 30.8165 79.8055C31.2559 80.2448 31.4756 80.6842 31.9151 81.1236C31.6954 80.6842 31.2559 80.9039 31.0362 80.9039ZM32.3545 80.6842C32.1348 80.4645 31.9151 80.0252 31.6954 79.8055C31.9151 79.5858 31.9151 79.5858 32.1348 79.3661C32.5742 79.8055 32.794 80.2448 33.2334 80.6842C32.794 80.6842 32.5742 80.6842 32.3545 80.6842ZM33.6729 80.6842C33.2334 80.2448 33.0137 79.8055 32.5743 79.5858C32.794 79.3661 32.794 79.3661 33.0137 79.1464C33.4531 79.8055 33.8926 80.2448 34.332 80.9039C34.1123 80.6842 33.8926 80.6842 33.6729 80.6842ZM34.9912 80.6842C34.332 80.0252 33.8926 79.3661 33.2334 78.7071C33.4531 78.4874 33.4531 78.2677 33.4531 78.048C33.6729 77.8284 33.6729 77.6087 33.8926 77.1693C33.8926 77.389 34.1123 77.389 34.1123 77.389C34.332 77.8284 34.5518 78.048 34.9912 78.4874C35.6504 79.1464 36.0898 79.8055 36.5293 80.4645C36.0898 80.6842 35.6504 80.6842 34.9912 80.6842ZM37.1884 80.6842C36.5293 79.8055 35.8701 79.1464 35.2109 78.2677C35.2109 78.2677 35.2109 78.2677 35.2109 78.048C35.2109 77.8284 35.2109 77.389 35.2109 77.1693C35.6504 77.8284 36.0898 78.4874 36.5293 79.1464C36.749 79.3661 37.6279 80.2448 37.8476 80.9039C37.8476 80.6842 37.4082 80.6842 37.1884 80.6842ZM38.7265 80.9039C38.5068 80.9039 38.5068 80.9039 38.7265 80.9039C38.7265 80.4645 37.6279 79.3661 37.4082 79.1464C36.9687 78.7071 36.749 78.2677 36.5293 77.8284C36.5293 77.8284 36.749 77.8284 36.749 77.6087C36.749 77.389 36.749 77.1693 36.9687 76.9496C37.1884 77.389 37.6279 77.6087 37.8476 78.048C38.5068 79.1464 39.3857 80.0252 40.0449 80.9039C39.3857 80.9039 38.9462 80.9039 38.7265 80.9039ZM40.2646 80.9039C39.3857 79.8055 38.7265 78.7071 37.8476 77.8284V77.6087C37.8476 77.389 37.8476 76.9496 38.0673 76.73C38.2871 77.1693 38.7265 77.6087 38.9462 78.048C39.6054 78.9268 40.2646 80.0252 41.1435 80.9039C40.704 80.6842 40.4843 80.9039 40.2646 80.9039ZM42.6815 80.2448C42.2421 80.4645 41.8026 80.4645 41.3632 80.4645C40.4843 79.5858 39.8251 78.4874 39.166 77.389C38.9462 76.9496 38.5068 76.5103 38.2871 76.0709C38.5068 75.8512 38.5068 75.6316 38.5068 75.6316C38.5068 75.4119 38.7265 75.4119 38.7265 75.1922C38.9462 75.4119 38.9462 75.6316 39.166 75.8512C39.166 76.0709 39.166 76.5103 39.166 76.73C39.166 76.9496 39.6054 76.73 39.6054 76.5103C40.4843 77.8284 41.5829 79.1464 42.6815 80.2448ZM43.121 80.2448C41.8026 78.9268 40.704 77.389 39.6054 75.6316C39.6054 75.4119 39.6054 75.1922 39.8251 74.7528C39.8251 74.5332 39.8251 74.0938 40.0449 73.8741C40.0449 74.0938 40.0449 74.0938 40.2646 74.3135C40.4843 74.5332 40.4843 74.7528 40.704 74.9725C40.4843 75.4119 40.2646 75.8512 40.4843 76.5103C40.4843 76.73 40.9237 76.5103 40.9237 76.2906C40.9237 75.8512 40.9237 75.6316 40.9237 75.1922C41.1435 75.6316 41.5829 76.2906 41.8026 76.73C42.4618 77.8284 43.3407 78.7071 43.9999 79.8055C43.7802 80.0252 43.5604 80.0252 43.121 80.2448ZM44.4393 79.8055C43.5604 78.7071 42.6815 77.6087 41.8026 76.2906C41.5829 75.8512 41.3632 75.4119 40.9237 74.9725C40.9237 74.7528 41.1435 74.5332 41.1435 74.3135C41.1435 74.0938 41.3632 73.8741 41.3632 73.8741C41.5829 74.3135 41.8026 74.5332 42.0224 74.9725C42.0224 75.1922 42.0224 75.6316 42.0224 76.0709C42.0224 76.2906 42.4618 76.0709 42.4618 75.8512C42.4618 75.6316 42.4618 75.4119 42.4618 74.9725C42.9013 75.6316 43.3407 76.0709 43.5604 76.73C43.9999 77.389 44.4393 77.8284 44.6591 78.2677C44.8788 78.4874 45.0985 78.7071 45.3182 78.9268C45.0985 79.3661 44.8788 79.5858 44.4393 79.8055ZM47.076 78.7071C46.6366 78.9268 46.4168 78.9268 45.9774 79.1464C45.5379 78.9268 45.0985 78.048 44.6591 77.6087C44.2196 77.1693 43.9999 76.5103 43.5604 76.0709L43.3407 75.8512C43.3407 75.8512 43.5604 75.8512 43.5604 75.6316C43.5604 75.4119 43.7802 74.9725 43.7802 74.7528C43.9999 74.9725 44.2196 75.4119 44.4393 75.6316C45.3182 76.5103 46.1971 77.6087 47.076 78.7071ZM48.3944 78.048C48.1746 78.2677 47.7352 78.2677 47.5155 78.4874C46.6366 77.1693 45.538 76.0709 44.6591 74.9725C44.4393 74.7528 44.4393 74.5332 44.2196 74.3135C44.4393 73.8741 44.6591 73.4348 44.8788 72.9954C45.0985 73.2151 45.3182 73.4348 45.3182 73.8741C45.0985 74.3135 44.8788 74.9725 44.8788 75.4119C44.8788 75.6316 45.3182 75.4119 45.3182 75.1922C45.3182 74.7528 45.5379 74.5332 45.5379 74.0938C45.5379 74.0938 45.538 74.3135 45.7577 74.3135C45.7577 74.5332 45.9774 74.7528 45.9774 74.7528C45.9774 74.7528 45.9774 74.7528 45.7577 74.9725C45.538 75.1922 45.7577 74.9725 45.9774 74.9725C46.8563 76.0709 47.7352 77.1693 48.3944 78.048ZM49.9324 77.389C49.493 77.6087 49.2733 77.6087 48.8338 77.8284C47.9549 76.73 47.2957 75.8512 46.4168 74.5332C46.6366 74.3135 46.8563 73.8741 46.8563 73.4348C46.8563 73.6544 47.076 73.6544 47.076 73.8741C47.076 74.0938 47.076 74.3135 47.076 74.3135H47.2957C47.2957 74.3135 47.2957 74.3135 47.2957 74.5332C48.3944 75.6316 49.0535 76.5103 49.9324 77.389ZM60.2594 75.1922C59.82 74.7528 59.3805 74.0938 59.1608 73.6544H59.3805C59.6003 73.4348 59.6003 73.4348 59.82 73.2151C60.0397 73.4348 60.0397 73.6544 60.2594 73.8741C60.6989 74.3135 60.9186 74.9725 61.3581 75.4119C60.9186 75.1922 60.6989 75.1922 60.2594 75.1922ZM61.7975 75.1922C61.3581 74.5332 60.9186 74.0938 60.4792 73.4348C60.6989 73.2151 60.6989 72.9954 60.9186 72.7757C61.1383 72.9954 61.1383 73.2151 61.3581 73.4348L61.1383 73.6544C60.9186 73.8741 61.3581 73.8741 61.3581 73.8741C61.5778 74.3135 62.0172 74.9725 62.237 75.4119C62.237 75.1922 62.0172 75.1922 61.7975 75.1922ZM63.1158 75.1922C62.8961 74.7528 62.6764 74.5332 62.4567 74.0938C62.6764 73.8741 62.6764 73.8741 62.8961 73.6544C62.8961 73.6544 62.8961 73.8741 63.1158 73.8741C63.3356 74.0938 63.3356 74.3135 63.5553 74.3135C63.5553 74.3135 63.5553 74.5332 63.775 74.3135C63.9947 74.5332 64.2145 74.7528 64.2145 74.9725C63.775 75.1922 63.3356 75.1922 63.1158 75.1922ZM64.4342 75.4119C64.2145 75.1922 63.9947 74.7528 63.775 74.3135C63.9947 74.0938 63.9947 73.8741 64.2145 73.6544C64.4342 73.8741 64.6539 74.3135 64.8736 74.5332C64.8736 74.7528 64.6539 74.7528 64.6539 74.9725C64.4342 75.1922 64.8736 74.9725 64.8736 74.9725C64.8736 74.9725 64.8736 74.9725 64.8736 74.7528C65.0934 74.9725 65.0934 75.1922 65.3131 75.4119C65.0934 75.4119 64.8736 75.4119 64.4342 75.4119ZM65.9723 75.4119C65.9723 75.4119 65.9723 75.1922 65.7525 75.1922C65.9723 74.9725 65.9723 74.9725 66.192 74.7528C66.4117 74.9725 66.8512 75.4119 67.0709 75.8512C66.6314 75.6316 66.4117 75.4119 65.9723 75.4119ZM67.73 75.6316C67.5103 75.1922 67.0709 74.7528 66.6314 74.3135C67.0709 74.5332 67.2906 74.7528 67.73 74.9725C67.9498 75.1922 68.1695 75.6316 68.3892 75.8512C68.1695 75.8512 67.9498 75.8512 67.73 75.6316ZM67.2906 72.9954C68.6089 74.0938 69.9273 74.9725 71.0259 76.0709C70.147 75.8512 69.4878 75.8512 68.6089 75.8512C68.3892 75.4119 68.1695 74.9725 67.73 74.7528H67.5103C66.8511 74.3135 66.192 73.8741 65.3131 73.6544C64.6539 73.4348 63.9947 72.9954 63.5553 72.7757C63.5553 72.7757 63.5553 72.556 63.3356 72.556H63.1158C63.1158 72.556 62.8961 72.556 62.8961 72.3364C62.8961 72.3364 62.8961 72.1167 62.6764 72.3364C62.4567 72.3364 62.237 72.1167 62.0172 72.1167C62.237 72.1167 62.2369 71.897 62.4567 71.897C63.1158 71.6773 63.775 71.4576 64.4342 71.0183C65.5328 71.4576 66.4117 72.3364 67.2906 72.9954ZM63.775 70.1396C63.775 70.3592 63.5553 70.1396 63.775 70.1396C63.9947 70.3592 64.2145 70.5789 64.4342 70.5789C63.9947 70.7986 63.5553 70.7986 63.3356 71.0183C63.1158 71.238 62.6764 71.238 62.4567 71.4576C62.4567 71.4576 62.237 71.6773 62.0172 71.6773C61.5778 71.4576 60.9186 71.238 60.4792 71.238C60.4792 71.238 60.4792 71.238 60.6989 71.238C61.1383 71.0183 61.7975 70.7986 62.237 70.7986C62.4567 70.7986 62.4567 70.7986 62.6764 70.5789C62.6764 70.3592 63.5553 70.1396 63.775 70.1396ZM62.8961 69.4805C63.1158 69.7002 63.3356 69.7002 63.5553 69.9199C62.8961 69.9199 62.2369 70.3592 61.5778 70.3592C61.1383 70.3592 60.9186 70.5789 60.4792 70.7986C60.4792 70.7986 60.4792 70.7986 60.2594 71.0183H60.0397C59.82 71.0183 59.6003 71.0183 59.3805 70.7986C60.2594 70.1396 61.5778 69.7002 62.8961 69.4805ZM62.0172 68.8215C62.237 69.0412 62.4567 69.0412 62.6764 69.2608C61.3581 69.4805 60.0397 69.9199 59.1608 70.5789H58.9411C58.7214 70.5789 58.5016 70.5789 58.2819 70.5789H58.0622C58.5016 70.1396 59.1608 69.9199 59.82 69.7002C60.4792 69.2608 61.1383 69.0412 61.7975 68.8215C61.5778 68.8215 61.5778 68.8215 62.0172 68.8215C61.7975 68.8215 61.7975 68.8215 62.0172 68.8215ZM60.4792 68.1624C59.1608 68.8215 58.0622 69.4805 56.7439 70.5789C56.5241 70.7986 56.9636 70.5789 56.9636 70.5789C58.0622 69.4805 59.3805 68.8215 60.4792 68.1624C60.9186 68.3821 61.3581 68.6018 61.5778 68.6018C60.9186 68.8215 60.2594 69.0412 59.82 69.4805C59.1608 69.9199 58.5016 70.1396 57.8425 70.5789C57.403 70.5789 56.9636 70.5789 56.5241 70.3592C56.5241 70.3592 56.5241 70.3592 56.3044 70.3592C56.0847 70.3592 55.865 70.3592 55.4255 70.3592C56.7439 69.2608 58.0622 68.3821 59.6003 67.7231C59.82 67.9428 60.0397 67.9428 60.4792 68.1624ZM59.1608 67.7231C57.6228 68.3821 56.0847 69.2608 54.7663 70.3592C54.3269 70.3592 53.8875 70.3592 53.448 70.1396C53.448 70.1396 53.448 70.1396 53.2283 70.1396C54.1072 69.2608 54.9861 68.6018 56.0847 68.1624C56.5241 67.9428 57.1833 67.7231 57.6228 67.2837C58.2819 67.2837 58.7214 67.5034 59.1608 67.7231ZM56.0847 66.8444C56.5241 66.8444 57.1833 67.064 57.6228 67.064C56.9636 67.5034 56.0847 67.7231 55.4255 68.1624C54.5466 68.8215 53.8874 69.2608 53.0086 69.9199C52.5691 69.9199 52.3494 69.9199 51.9099 69.9199C51.6902 69.9199 51.4705 69.9199 51.4705 69.9199C51.9099 69.7002 52.1297 69.2608 52.5691 68.8215C53.0086 68.6018 53.448 68.1624 53.8874 67.9428C54.5466 67.7231 55.2058 67.2837 56.0847 66.8444ZM55.865 66.8444C54.9861 67.5034 54.1072 67.9428 53.2283 68.3821C52.7888 68.6018 52.5691 68.8215 52.1297 69.2608C51.9099 69.4805 51.4705 69.9199 51.2508 70.1396H51.031H50.8113H50.5916C50.8113 69.7002 51.2508 69.4805 51.6902 69.0412C52.1297 68.6018 52.5691 68.3821 53.2283 67.9428C53.8875 67.5034 54.5466 67.064 55.2058 66.6247C54.9861 66.8444 55.4255 66.8444 55.865 66.8444ZM54.1072 66.6247C53.448 67.064 52.7888 67.5034 52.1297 67.9428C51.6902 68.3821 51.031 68.8215 50.3719 69.2608C49.9324 69.7002 49.7127 69.9199 49.493 70.3592H49.2733H49.0535H48.8338C48.3944 70.3592 47.7352 70.5789 47.2957 70.7986C47.7352 70.3592 47.9549 69.9199 48.1746 69.4805C48.6141 69.0412 49.0535 68.8215 49.493 68.3821C50.3719 67.7231 51.2508 67.064 52.3494 66.6247C52.3494 66.6247 52.5691 66.405 52.3494 66.405C53.0086 66.6247 53.6677 66.6247 54.1072 66.6247ZM52.1297 66.6247C51.031 67.2837 50.1521 67.7231 49.2733 68.6018C48.8338 69.0412 48.1746 69.4805 47.7352 69.9199C47.5155 70.1396 47.2957 70.5789 46.8563 71.0183C46.6366 71.0183 46.1971 71.238 45.9774 71.238V71.0183L45.5379 71.238H45.3182C45.5379 70.7986 45.5379 70.3592 45.9774 70.1396C46.4168 69.7002 46.6366 69.2608 47.076 68.8215C47.9549 67.9428 49.0535 67.064 50.3719 66.405C50.8113 66.6247 51.4705 66.6247 52.1297 66.6247ZM49.493 66.6247C49.7127 66.6247 49.7127 66.6247 49.9324 66.6247C49.493 66.8444 48.8338 67.2837 48.3944 67.7231C47.9549 68.1624 47.5155 68.3821 47.076 68.8215C46.6366 69.2608 45.9774 69.9199 45.5379 70.3592C45.3182 70.7986 45.0985 71.238 44.8788 71.6773H44.6591C44.4393 71.6773 44.2196 71.897 43.7802 71.897C43.7802 71.897 43.7802 71.897 43.5604 71.897C43.7802 71.238 43.9999 70.5789 44.4393 70.1396C44.6591 69.9199 44.8788 69.4805 45.0985 69.2608C45.7577 68.3821 46.6366 67.7231 47.2957 66.8444C48.1746 66.8444 48.8338 66.6247 49.493 66.6247ZM38.9462 70.1396C40.2646 69.4805 41.5829 69.0412 42.9013 68.6018C44.2196 68.1624 45.5379 67.5034 47.076 67.2837C46.4168 67.9428 45.5379 68.8215 44.8788 69.7002C44.6591 70.1396 44.2196 70.5789 43.9999 71.0183C43.7802 71.4576 43.5604 71.897 43.3407 72.3364C43.3407 72.3364 43.121 72.3364 43.121 72.556C42.9013 72.556 42.9013 72.556 42.6815 72.7757C42.4618 72.7757 42.2421 72.9954 42.2421 72.9954C42.4618 72.556 42.6815 72.3364 42.9013 71.897C43.121 71.4576 43.5604 71.0183 43.7802 70.5789C43.9999 70.1396 44.2196 69.7002 44.6591 69.2608C44.8788 69.0412 44.8788 69.0412 45.0985 68.8215C45.0985 68.6018 44.8788 68.6018 44.8788 68.6018V68.8215C44.6591 69.0412 44.2196 69.4805 44.2196 69.7002C43.9999 70.1396 43.7802 70.3592 43.5604 70.7986C43.121 71.4576 42.6815 72.1167 42.4618 72.7757V72.9954C42.4618 72.9954 42.4618 72.9954 42.2421 72.9954C41.8026 73.2151 41.5829 73.2151 41.3632 73.4348C41.3632 73.4348 41.5829 73.4348 41.5829 73.2151C41.5829 72.9954 41.3632 73.2151 41.1435 73.2151C41.3632 72.556 42.0224 71.897 42.2421 71.4576C42.6815 70.5789 43.121 69.7002 43.7802 69.0412C43.9999 68.8215 43.5604 68.8215 43.5604 69.0412C42.9013 69.7002 42.4618 70.5789 42.0224 71.4576C41.5829 72.1167 40.9237 72.9954 40.704 73.8741C40.4843 73.8741 40.4843 74.0938 40.2646 74.0938H40.0449C40.0449 74.0938 40.0449 74.0938 39.8251 74.0938H39.6054C39.6054 74.0938 39.6054 74.0938 39.3857 74.0938C39.166 74.3135 38.7265 74.3135 38.5068 74.5332C39.8251 72.9954 40.704 71.238 41.8026 69.7002C41.8026 69.4805 41.8026 69.4805 41.5829 69.4805C41.3632 69.4805 41.3632 69.7002 41.3632 69.7002C40.9238 70.3592 40.704 71.0183 40.0449 71.6773C39.6054 72.1167 39.3857 72.556 38.9462 72.9954C38.7265 73.4348 38.5068 73.8741 38.0673 74.0938C37.8476 74.3135 38.0673 74.3135 38.2871 74.3135C37.8476 74.5332 37.4082 74.7528 36.749 74.9725C36.749 74.7528 36.749 74.5332 36.9687 74.3135C37.1884 74.0938 37.4082 73.8741 37.4082 73.6544C37.6279 73.2151 38.0673 72.7757 38.2871 72.3364C38.7265 71.4576 39.3857 70.7986 39.8251 69.9199C39.166 70.3592 39.166 70.1396 38.9462 70.1396ZM36.9687 71.0183C37.4082 70.7986 38.0673 70.3592 38.5068 70.1396C38.5068 70.1396 38.5068 70.1396 38.5068 70.3592C38.2871 70.7986 38.0673 71.0183 37.8476 71.4576C37.6279 71.897 37.1884 72.3364 36.9687 72.7757C36.749 73.2151 36.3096 73.8741 35.8701 74.3135C35.6504 74.7528 35.6504 74.9725 35.4307 75.1922V75.4119C34.9912 75.6316 34.7715 75.6316 34.332 75.8512C34.5518 75.6316 34.5518 75.4119 34.5518 75.1922C34.7715 74.7528 34.9912 74.5332 34.9912 74.3135C35.2109 73.8741 35.4307 73.4348 35.6504 72.9954C36.0898 72.7757 37.1884 71.4576 36.9687 71.0183ZM33.0137 73.4348C33.4531 72.9954 33.8926 72.7757 34.5518 72.556C34.332 72.7757 34.332 72.9954 34.332 73.4348C34.1123 73.8741 33.8926 74.0938 33.8926 74.5332C33.6729 75.1922 33.0137 75.8512 32.794 76.5103C32.794 76.73 33.2334 76.5103 33.2334 76.5103C33.4531 75.8512 33.8926 75.1922 34.332 74.5332C34.5518 74.0938 34.7715 73.8741 34.7715 73.4348C34.7715 73.2151 34.9912 72.7757 34.9912 72.556C35.4307 72.3364 35.8701 71.897 36.3096 71.6773C36.3096 71.6773 36.5293 71.6773 36.5293 71.4576C36.5293 71.897 35.6504 73.2151 35.4307 73.4348C35.2109 73.6544 35.2109 74.0938 34.9912 74.5332C34.7715 74.9725 34.5518 75.1922 34.5518 75.4119C34.5518 75.6316 34.332 75.8512 34.332 76.0709C34.1123 76.0709 33.8926 76.2906 33.8926 76.2906C33.8926 76.2906 33.6729 76.2906 33.6729 76.5103C33.0137 76.73 32.3545 76.9496 31.6954 77.1693C31.9151 76.9496 31.9151 76.73 31.9151 76.5103C32.1348 76.0709 32.5742 75.4119 32.794 74.9725C32.794 74.7528 33.2334 73.8741 33.0137 73.4348ZM29.0587 76.0709C30.1573 75.1922 31.4756 74.5332 32.5743 73.6544C32.5743 73.8741 32.3545 74.3135 32.3545 74.5332C32.1348 74.9725 31.9151 75.1922 31.6954 75.6316C31.4756 75.8512 31.2559 76.2906 31.2559 76.5103C31.2559 76.73 31.0362 77.1693 31.0362 77.389C30.8165 77.389 30.5967 77.6087 30.1573 77.6087H29.9376C30.377 76.73 30.8165 75.8512 31.2559 74.9725C31.2559 74.9725 31.0362 74.9725 30.8165 74.9725V75.1922C30.5967 75.4119 30.1573 76.73 30.1573 76.73C29.9376 77.1693 29.7178 77.389 29.4981 77.8284C29.0587 78.048 28.6192 78.2677 28.1798 78.4874C28.1798 78.048 28.6192 77.6087 28.8389 77.1693C28.8389 76.9496 29.0587 76.5103 29.0587 76.0709C29.2784 75.8512 29.2784 75.8512 29.0587 76.0709ZM23.7853 80.4645C23.5656 80.4645 23.1261 80.2448 22.9064 80.4645C22.2472 80.6842 21.8078 80.6842 21.1486 80.9039C22.467 80.2448 23.5656 79.5858 24.6642 78.9268C25.9825 78.048 27.5206 77.1693 28.8389 76.2906C28.6192 76.73 28.3995 77.1693 28.1798 77.6087C27.9601 77.8284 27.7403 78.2677 27.7403 78.4874C27.5206 78.7071 27.3009 78.7071 26.8614 78.9268C27.0812 78.7071 27.0812 78.4874 27.3009 78.2677C27.3009 78.048 27.5206 77.8284 27.5206 77.6087C27.5206 77.389 27.5206 77.389 27.5206 77.1693C27.7403 76.9496 27.3009 76.9496 27.3009 76.9496C27.0812 77.1693 27.0812 77.389 27.0812 77.6087C26.8614 77.8284 26.8614 78.2677 26.6417 78.4874C26.6417 78.4874 26.2023 78.4874 26.2023 78.7071V78.9268C25.9825 78.9268 25.7628 79.1464 25.7628 79.1464C25.9825 78.7071 25.9825 78.4874 26.2023 78.2677C26.422 78.048 25.9825 78.048 25.9825 78.048C25.9825 78.048 25.9825 78.048 25.9825 78.2677C25.7628 78.4874 25.5431 78.9268 25.5431 79.1464L25.3234 79.3661C25.1036 79.5858 25.1036 79.8055 25.1036 80.0252C24.2247 80.4645 24.005 80.4645 23.7853 80.4645ZM54.7663 108.364C54.7663 107.925 54.5466 107.485 54.3269 107.046C54.7663 106.826 55.2058 106.606 55.6452 106.167C55.6452 106.167 55.6452 106.387 55.6452 106.606C55.6452 107.046 55.865 107.265 55.865 107.705C55.6452 107.925 55.2058 108.144 54.7663 108.364ZM33.2334 96.5012C33.4531 96.0618 33.6729 95.6224 33.8926 95.1831C34.332 95.1831 34.7715 94.9634 34.9912 94.7437C34.9912 95.1831 34.9912 95.6224 34.7715 96.0618C34.7715 96.0618 34.7715 96.0618 34.7715 96.2815C34.332 96.5012 33.6729 96.5012 33.2334 96.5012ZM36.5293 95.6224C36.0898 95.8421 35.6504 96.0618 35.2109 96.2815C35.2109 95.8421 35.4307 95.4028 35.4307 94.7437C36.0898 94.524 36.749 94.0847 37.4082 93.4256V93.6453C37.1884 94.0847 37.1884 94.524 36.9687 94.9634C36.749 95.1831 36.749 95.1831 36.5293 95.6224ZM38.5068 94.0847C38.5068 94.524 38.2871 95.1831 38.0673 95.6224C38.0673 95.8421 37.8476 96.0618 37.8476 96.5012C37.6279 96.7208 37.4082 96.9405 37.1884 97.1602C36.9687 97.3799 36.749 97.3799 36.5293 97.3799C36.5293 97.1602 36.5293 97.1602 36.5293 96.9405C36.749 96.5012 36.749 95.8421 36.9687 95.4028C37.6279 95.1831 38.0673 94.524 38.5068 94.0847ZM36.5293 95.8421C36.5293 96.2815 36.3096 96.7208 36.3096 97.1602C36.3096 97.3799 36.3095 97.3799 36.0898 97.5996C35.6504 97.8192 34.9912 97.8192 34.5518 98.0389C34.7715 97.5996 34.7715 97.1602 34.9912 96.5012C35.6504 96.2815 36.0898 96.0618 36.5293 95.8421ZM37.8476 96.9405C37.6279 97.3799 37.6279 97.8192 37.4082 98.2586C37.4082 98.4783 37.4082 98.4783 37.1884 98.698C36.749 98.9176 36.5293 98.9176 36.0898 98.9176C36.3095 98.4783 36.3096 98.0389 36.5293 97.5996C36.9687 97.3799 37.4082 97.1602 37.8476 96.9405ZM39.166 98.0389C38.9462 98.698 38.9462 99.1373 38.9462 99.7964C38.5068 100.016 37.8476 100.016 37.4082 100.236V100.016C37.6279 99.5767 37.6279 99.1373 37.8476 98.698C38.0673 98.698 38.7265 98.2586 39.166 98.0389ZM40.4843 99.1373C40.4843 99.5767 40.2646 100.236 40.2646 100.675C39.8251 100.895 39.3857 100.895 39.166 100.895C39.166 100.455 39.3857 100.016 39.3857 99.7964C39.6054 99.7964 40.0449 99.5767 40.4843 99.1373ZM42.0224 100.236C42.0224 100.455 41.8026 100.895 41.8026 101.114C41.8026 101.334 41.5829 101.554 41.5829 101.993C41.1435 102.213 40.704 102.213 40.2646 102.433C40.2646 101.993 40.4843 101.554 40.4843 101.334C40.9237 100.675 41.5829 100.455 42.0224 100.236ZM43.3407 101.114C43.3407 101.554 43.121 102.213 43.121 102.872C42.6815 103.092 42.2421 103.092 41.8026 103.311C41.8026 103.311 41.8026 103.311 41.8026 103.092C41.8026 102.872 41.8026 102.433 41.8026 101.993C42.4618 101.773 42.9013 101.554 43.3407 101.114ZM54.9861 106.387C54.7663 106.606 54.5466 106.606 54.3269 106.826C54.1072 106.387 54.1072 105.947 53.8874 105.508C54.3269 105.069 54.7663 104.849 54.9861 104.41C54.9861 104.41 54.9861 104.41 54.9861 104.629C55.2058 105.069 55.4255 105.508 55.6452 105.947C55.4255 106.167 55.2058 106.387 54.9861 106.387ZM56.9636 105.069C57.1833 105.508 57.1833 106.167 57.1833 106.606C56.9636 106.826 56.7439 107.046 56.5241 107.265C56.5241 106.826 56.3044 106.606 56.3044 106.167C56.3044 105.947 56.3044 105.947 56.0847 105.728C56.3044 105.508 56.7439 105.288 56.9636 105.069ZM53.0086 105.728C52.7888 105.947 52.3494 106.167 51.9099 106.167V105.947C51.9099 105.728 51.6902 105.288 51.6902 105.069C52.1297 104.849 52.5691 104.41 53.0086 103.97C53.0086 104.19 53.0086 104.19 53.0086 104.19C53.0086 104.629 53.2283 104.849 53.448 105.288C53.2283 105.508 53.2283 105.728 53.0086 105.728ZM51.2508 105.288C50.8113 105.508 50.5916 105.728 50.1521 105.947C50.1521 105.508 50.1521 105.069 50.1521 104.849C50.5916 104.629 51.031 104.19 51.2508 103.97C51.2508 104.629 51.2508 105.069 51.2508 105.069C51.2508 104.849 51.2508 105.069 51.2508 105.288ZM49.493 104.629C49.0535 104.849 48.8338 105.069 48.3944 105.069C48.3944 104.629 48.3944 104.19 48.3944 103.751C48.8338 103.531 49.2733 103.092 49.7127 102.652C49.7127 103.092 49.7127 103.531 49.7127 103.751C49.7127 104.19 49.7127 104.41 49.493 104.629ZM47.9549 103.751L47.7352 103.97C47.2957 104.19 47.076 104.41 46.6366 104.41C46.6366 103.97 46.6366 103.311 46.6366 102.872C47.076 102.433 47.5155 101.993 48.1746 101.554C47.9549 102.433 47.9549 103.092 47.9549 103.751ZM45.7577 103.311C45.538 103.531 45.3182 103.531 44.8788 103.751C44.8788 103.092 45.0985 102.652 45.0985 101.993C45.5379 101.554 45.9774 101.114 46.4168 100.675C46.4168 100.895 46.4168 100.895 46.4168 101.114C46.1971 101.773 46.1971 102.433 46.1971 103.092C45.9774 103.092 45.9774 103.092 45.7577 103.311ZM44.2196 102.213C43.9999 102.433 43.7802 102.433 43.5604 102.652C43.5604 101.993 43.7802 101.334 43.7802 100.895C44.2196 100.455 44.6591 100.016 45.0985 99.5767C45.0985 100.236 44.8788 101.114 44.8788 101.993C44.6591 101.993 44.4393 102.213 44.2196 102.213ZM44.8788 102.213C44.8788 102.872 44.8788 103.311 44.6591 103.751C44.2196 103.97 43.7802 103.97 43.3407 103.97C43.3407 103.531 43.3407 103.311 43.5604 102.872C43.9999 102.652 44.4393 102.433 44.8788 102.213ZM46.1971 103.311C46.1971 103.751 46.1971 104.19 46.1971 104.629C45.7577 104.629 45.3182 104.849 45.0985 104.849C45.0985 104.849 45.0985 104.849 45.0985 104.629C45.0985 104.41 45.0985 104.19 45.0985 103.751C45.3182 103.751 45.7577 103.531 46.1971 103.311ZM47.9549 103.97C47.9549 104.41 47.9549 104.849 47.9549 105.288C47.5155 105.508 47.076 105.508 46.4168 105.508C46.4168 105.508 46.4168 105.508 46.4168 105.288C46.4168 105.069 46.4168 104.849 46.4168 104.629C47.076 104.629 47.5155 104.41 47.9549 103.97ZM49.7127 104.849C49.7127 105.288 49.7127 105.508 49.7127 105.947C49.2733 106.167 48.8338 106.167 48.3944 106.167C48.3944 105.947 48.3944 105.728 48.3944 105.508C48.8338 105.288 49.2733 105.069 49.7127 104.849ZM51.4705 105.508C51.4705 105.947 51.4705 106.167 51.6902 106.606C51.2508 106.826 50.8113 106.826 50.3719 106.826C50.3719 106.606 50.3719 106.606 50.3719 106.387V106.167C50.5916 105.947 51.031 105.728 51.4705 105.508ZM53.448 105.728C53.6677 106.167 53.6677 106.606 53.8874 107.046C53.448 107.265 52.7888 107.265 52.1297 107.485C52.1297 107.265 51.9099 107.046 51.9099 106.606C52.5691 106.387 53.0086 106.167 53.448 105.728ZM56.9636 107.265C57.1833 107.046 57.1833 106.826 57.403 106.826C57.403 107.046 57.1833 107.046 56.9636 107.265ZM57.6228 106.606C57.6228 106.387 57.8425 106.387 57.8425 106.387C57.8425 106.387 57.8425 106.387 57.6228 106.606ZM40.4843 86.3959C42.4618 86.3959 44.4393 86.8352 46.1971 87.4943C49.9324 88.8124 53.6677 91.2288 56.3044 94.0847C58.0622 96.2815 59.3805 99.1373 59.1608 101.993C58.9411 101.773 58.7214 101.334 58.7214 101.114C58.5016 100.675 58.2819 100.016 57.6228 99.7964C57.403 99.7964 57.1833 100.016 57.403 100.016C57.8425 100.236 58.0622 100.895 58.2819 101.334C58.5016 101.773 58.7214 101.993 58.9411 102.652H59.1608C59.1608 103.311 58.9411 104.19 58.5016 104.849C58.2819 104.19 58.0622 103.531 57.8425 102.872C57.6228 102.433 57.6228 101.993 57.403 101.554C57.1833 101.334 56.9636 100.895 56.9636 100.675C56.9636 100.455 56.5241 100.675 56.5241 100.895C56.5241 101.334 56.9636 101.554 56.9636 101.773C57.1833 102.213 57.1833 102.652 57.403 102.872C57.6228 103.751 58.0622 104.629 58.0622 105.508C57.8425 105.728 57.6228 105.947 57.403 106.167C57.403 105.728 57.1833 105.288 56.9636 104.629L57.1833 104.41C57.403 104.19 56.9636 104.19 56.9636 104.19C56.9636 103.97 56.7439 103.751 56.7439 103.311C56.5241 102.652 56.5241 102.213 56.0847 101.773C55.865 101.554 55.865 100.895 55.4255 100.895C55.2058 100.895 54.9861 101.114 55.2058 101.114C55.4255 101.334 55.865 101.993 55.865 102.433C56.0847 102.872 56.0847 103.311 56.3044 103.751C56.3044 103.97 56.5241 104.19 56.5241 104.41C56.3044 104.629 55.865 105.069 55.6452 105.288C55.4255 104.849 55.2058 104.41 55.2058 103.97V103.751C55.2058 103.751 55.2058 103.531 55.4255 103.531C55.6452 103.311 55.2058 103.311 55.2058 103.311C54.9861 102.872 54.9861 102.213 54.7663 101.773C54.5466 101.334 54.3269 100.675 54.1072 100.236C54.1072 100.016 53.8874 100.236 53.6677 100.236C53.448 100.236 53.8874 100.675 53.8874 100.895C54.1072 101.334 54.1072 101.554 54.3269 101.773C54.5466 102.213 54.7663 102.872 54.9861 103.311C54.5466 103.751 54.3269 104.19 53.8874 104.41C53.8874 103.97 53.6677 103.751 53.6677 103.311C53.6677 103.092 53.6677 103.092 53.448 102.872C53.6677 102.652 53.6677 102.433 53.8874 102.433C54.1072 102.213 53.6677 102.213 53.6677 102.213C53.6677 102.433 53.448 102.433 53.448 102.652C53.0086 102.872 53.0086 102.213 52.7888 101.554C52.7888 101.114 52.7888 100.236 52.5691 99.7964C52.5691 99.7964 52.5691 99.7964 52.3494 99.7964C52.1297 99.7964 52.7888 102.433 53.0086 103.751C52.5691 104.19 52.1297 104.629 51.6902 104.849C51.6902 104.19 51.6902 103.751 51.6902 103.092C51.9099 102.872 51.9099 102.872 52.1297 102.652C52.3494 102.433 51.9099 102.433 51.9099 102.433L51.6902 102.652C51.6902 101.773 51.6902 101.114 51.4705 100.236C51.4705 99.7964 51.4705 99.5767 51.031 99.5767C51.031 99.5767 51.031 101.773 51.2508 103.311C50.8113 103.751 50.5916 103.97 50.1521 104.41V104.19C50.1521 103.531 50.1521 103.092 50.1521 102.433L50.3719 102.213C50.5916 101.993 50.3719 101.993 50.1521 101.993C50.1521 101.114 50.1521 100.016 50.3719 99.1373C50.3719 98.9176 49.9324 99.1373 49.9324 99.1373C49.7127 100.236 49.7127 101.334 49.7127 102.433C49.2733 102.872 48.8338 103.311 48.3944 103.751C48.3944 103.751 48.3944 103.751 48.3944 103.531C48.3944 102.652 48.3944 101.773 48.6141 100.675C48.8338 100.236 49.0535 99.357 48.8338 98.9176C48.8338 98.9176 48.3944 98.9176 48.3944 99.1373C48.3944 99.5767 48.3944 100.016 48.1746 100.455C48.1746 100.675 47.9549 101.114 47.9549 101.334C47.5155 101.773 47.076 102.433 46.4168 102.872C46.4168 102.213 46.6366 101.334 46.8563 100.675C47.076 100.016 47.2957 99.357 47.5155 98.4783C47.5155 98.4783 47.5155 98.4783 47.5155 98.2586C47.5155 98.0389 47.076 98.2586 47.076 98.4783C46.8563 99.1373 46.6366 99.7964 46.6366 100.455H46.4168C45.9774 100.895 45.5379 101.334 45.0985 101.773C45.0985 100.895 45.3182 100.236 45.3182 99.357C45.5379 98.698 45.7577 98.0389 45.7577 97.3799C45.7577 97.1602 45.3182 97.3799 45.3182 97.5996C45.3182 98.2586 45.0985 98.698 44.8788 99.357H44.6591C44.2196 99.7964 43.9999 100.236 43.5604 100.675C43.7802 99.357 43.9999 98.0389 44.4393 96.5012C44.4393 96.2815 43.9999 96.2815 43.9999 96.5012C43.5604 98.0389 43.3407 99.5767 43.121 100.895C42.9013 101.114 42.6815 101.334 42.4618 101.334C42.4618 101.554 42.2421 101.554 42.0224 101.773C42.0224 101.773 42.0224 101.773 42.0224 101.554C42.2421 101.114 42.2421 100.675 42.2421 100.236C42.2421 100.016 42.2421 100.016 42.2421 99.7964C42.6815 99.357 43.121 98.9176 43.5604 98.4783C43.7802 98.2586 43.3407 98.2586 43.3407 98.2586C42.9013 98.698 42.6815 99.1373 42.2421 99.357C42.4618 98.698 42.6815 98.0389 42.6815 97.3799C42.6815 96.9405 42.6815 96.5012 42.9013 96.0618C42.9013 95.8421 43.121 95.6224 42.9013 95.4028C42.9013 95.4028 42.4618 95.4028 42.4618 95.6224C42.4618 96.0618 42.2421 96.5012 42.2421 96.7208C42.2421 97.1602 42.2421 97.5996 42.0224 98.0389C41.8026 98.4783 41.8026 98.9176 41.8026 99.5767C41.5829 99.7964 41.3632 100.016 40.9237 100.236C40.704 100.455 40.4843 100.455 40.2646 100.675C40.2646 100.455 40.2646 100.455 40.4843 100.236C40.704 99.7964 40.704 99.1373 40.704 98.698C41.1435 98.2586 41.5829 97.8192 42.0224 97.3799C42.2421 97.1602 41.8026 97.1602 41.8026 97.1602C41.5829 97.5996 41.1435 97.8192 40.9237 98.2586C41.1435 97.3799 41.3632 96.2815 41.5829 95.4028C41.5829 95.1831 41.1435 95.1831 41.1435 95.4028C40.704 96.5012 40.4843 97.5996 40.2646 98.698C40.0449 98.9176 39.8251 99.1373 39.3857 99.357C39.166 99.5767 38.9462 99.5767 38.7265 99.5767C38.7265 99.357 38.7265 99.1373 38.7265 98.9176C38.7265 98.4783 38.9462 98.0389 39.166 97.5996C39.6054 97.1602 40.2646 96.7208 40.704 96.0618C40.9237 95.8421 40.4843 95.8421 40.4843 95.8421C40.0449 96.2815 39.8251 96.7208 39.3857 96.9405C39.3857 96.7208 39.6054 96.5012 39.6054 96.2815C39.8251 95.6224 40.0449 94.9634 40.0449 94.3044C40.0449 94.3044 39.6054 94.3044 39.6054 94.524C39.8251 95.4028 39.3857 96.5012 38.9462 97.1602C38.9462 97.3799 38.9462 97.3799 38.7265 97.5996C38.5068 97.8192 38.2871 98.0389 38.0673 98.0389C37.8476 98.2586 37.6279 98.2586 37.4082 98.4783C37.6279 98.0389 37.6279 97.8192 37.8476 97.3799C37.8476 97.1602 38.0673 96.7208 38.0673 96.5012C38.5068 96.0618 38.9462 95.6224 39.3857 95.1831C39.6054 94.9634 39.166 94.9634 39.166 94.9634C38.7265 95.4028 38.5068 95.6224 38.0673 96.0618C38.2871 95.6224 38.2871 95.1831 38.2871 94.7437C38.2871 94.524 38.5068 94.0847 38.5068 93.865V93.6453C38.5068 93.4256 38.5068 93.4256 38.5068 93.206C38.5068 92.9863 38.0673 93.206 38.0673 93.4256C38.0673 93.4256 38.0673 93.4256 38.0673 93.6453C38.0673 93.6453 38.0673 93.865 38.0673 94.0847C37.6279 94.524 37.1884 95.1831 36.749 95.6224C36.749 95.4028 36.9687 95.1831 36.9687 94.9634C37.1884 94.524 37.1884 94.0847 37.4082 93.6453C37.6279 93.4256 37.8476 93.206 38.0673 92.7666C38.2871 92.5469 37.8476 92.5469 37.8476 92.5469C37.6279 92.7666 37.6279 92.9863 37.4082 92.9863V92.7666C37.4082 92.5469 36.9687 92.7666 36.9687 92.9863C36.9687 93.206 36.9687 93.206 36.9687 93.4256C36.5293 93.865 36.0898 94.3044 35.6504 94.524C35.4307 94.7437 35.2109 94.7437 34.9912 94.7437C35.2109 94.3044 35.2109 93.6453 35.6504 93.206C35.6504 93.206 35.8701 93.206 35.8701 92.9863C35.8701 92.7666 35.4307 92.9863 35.4307 92.9863C35.2109 93.4256 34.9912 94.0847 34.7715 94.524V94.7437C34.332 94.9634 34.1123 94.9634 33.6729 94.9634C34.1123 94.3044 34.1123 93.4256 34.332 92.5469H34.5518C34.5518 92.5469 34.7715 92.5469 34.7715 92.3272C35.4307 91.8879 35.6504 91.2288 35.8701 90.5698C35.8701 90.1304 36.3096 89.2517 35.8701 88.8124C35.6504 88.8124 35.4307 88.8124 35.2109 89.032C35.2109 89.032 34.9912 89.032 34.7715 89.2517C34.5518 89.4714 34.1123 89.2517 33.8926 89.032H34.1123C35.4307 86.8352 38.2871 86.3959 40.4843 86.3959ZM8.18492 87.2746C8.84409 86.8352 9.72298 86.1762 10.8216 85.5172C11.2611 85.2975 11.7005 85.2975 11.9202 85.0778C10.6019 85.9565 9.28354 86.8352 8.18492 87.2746ZM33.0137 90.1304C32.3545 89.4714 31.4756 89.032 30.8165 88.373C30.1573 87.714 29.4981 87.2746 28.8389 86.8352C27.7403 85.9565 26.6417 85.2975 25.5431 84.6384C24.4445 83.9794 23.5656 83.3204 22.467 82.881C21.5881 82.4416 20.4894 82.222 19.3908 82.222C18.9514 82.222 18.5119 82.4416 17.8528 82.6613C17.1936 82.881 16.3147 83.1007 15.6555 83.54C15.2161 83.7597 14.7766 83.9794 14.1175 84.1991C14.3372 83.9794 14.5569 83.7597 14.7766 83.7597C14.9964 83.54 14.5569 83.54 14.5569 83.54C14.3372 83.7597 13.4583 84.1991 12.3597 84.8581C11.9202 85.0778 11.4808 85.2975 11.0413 85.5172C12.7991 84.4188 14.5569 83.1007 14.9964 83.1007C15.6555 82.881 16.5344 82.222 17.4133 82.222V82.4416C17.8528 82.222 18.5119 82.222 18.9514 82.0023C20.2697 82.0023 21.5881 82.222 22.9064 82.6613C23.7853 83.1007 24.4445 83.7597 25.1036 84.1991C25.5431 84.4188 30.377 87.714 31.9151 88.5927C32.3545 88.8124 32.794 89.032 33.2334 89.2517C33.4531 89.4714 33.8926 89.6911 34.1123 89.6911C34.332 89.6911 34.5518 89.6911 34.9912 89.6911C35.2109 89.6911 35.6504 89.2517 35.6504 89.2517C36.0898 88.8124 36.0898 89.6911 36.0898 89.9108C36.0898 90.3501 35.8701 90.7895 35.6504 91.2288C35.4307 91.4485 35.4307 91.8879 34.9912 91.8879H34.7715H34.5518C34.332 91.2288 33.8926 90.5698 33.0137 90.1304ZM33.0137 91.4485C33.0137 91.6682 33.2334 91.6682 33.2334 91.8879C33.2334 91.8879 33.2334 91.8879 33.2334 92.1076V92.3272C33.2334 92.3272 32.3545 93.206 32.1348 93.865C32.3545 92.7666 32.5742 92.1076 33.0137 91.4485ZM32.1348 94.3044C32.5742 93.6453 33.2334 92.9863 33.6729 92.3272C33.8926 92.5469 34.1123 92.5469 34.332 92.5469C34.1123 93.4256 33.8926 94.3044 33.6729 94.9634C33.4531 94.9634 33.0137 94.9634 32.794 94.9634C32.5742 94.9634 32.5742 95.1831 32.794 95.1831C33.0137 95.1831 33.2334 95.1831 33.4531 95.1831C33.2334 95.8421 32.794 96.2815 32.5743 96.9405C32.3545 96.0618 32.1348 95.1831 32.1348 94.3044ZM33.0137 97.8192C33.0137 97.5996 33.0137 97.5996 32.794 97.3799C32.794 97.1602 33.0137 96.9405 33.0137 96.7208C33.0137 96.7208 33.0137 96.7208 33.2334 96.7208C33.6729 96.7208 34.332 96.7208 34.7715 96.5012C34.5518 96.9405 34.5518 97.3799 34.332 97.8192H34.1123C33.8926 97.8192 33.8926 98.0389 34.1123 98.0389H34.332C34.332 98.2586 34.1123 98.698 34.1123 98.9176C33.4531 98.698 33.2334 98.2586 33.0137 97.8192ZM34.1123 99.5767C34.332 99.1373 34.332 98.698 34.5518 98.2586C35.2109 98.2586 35.6504 98.0389 36.0898 97.8192C36.0898 98.2586 35.8701 98.698 35.8701 98.9176C35.6504 98.9176 35.4307 98.9176 35.2109 98.9176C34.9912 98.9176 34.9912 99.1373 35.2109 99.1373C35.4307 99.1373 35.6504 99.1373 35.6504 99.1373C35.6504 99.357 35.6504 99.357 35.4307 99.5767C35.2109 100.016 35.2109 100.236 34.9912 100.675C34.7715 100.455 34.332 100.016 34.1123 99.5767ZM35.4307 101.114C35.4307 100.895 35.6504 100.455 35.6504 100.236C35.8701 99.7964 35.8701 99.5767 36.0898 99.1373C36.5293 99.1373 36.749 98.9176 37.1884 98.9176C36.9687 99.357 36.9687 99.7964 36.749 100.236H36.5293C36.3096 100.236 36.3096 100.455 36.5293 100.455H36.749C36.5293 100.895 36.5293 101.334 36.5293 101.993C36.0898 101.773 35.6504 101.554 35.4307 101.114ZM37.8476 103.531C37.6279 103.311 37.4082 103.311 37.4082 103.092C37.1884 102.872 36.9687 102.652 36.749 102.433C36.749 101.773 36.9687 101.114 36.9687 100.455C37.6279 100.455 38.0673 100.236 38.5068 100.016C38.5068 100.455 38.2871 100.675 38.2871 101.114C38.0673 101.114 37.8476 101.114 37.6279 101.114C37.4082 101.114 37.4082 101.334 37.6279 101.334C37.8476 101.334 38.0673 101.334 38.0673 101.334C38.2871 102.213 38.0673 103.092 37.8476 103.531C38.0673 103.751 38.0673 103.531 37.8476 103.531ZM38.5068 103.97C38.5068 103.092 38.5068 102.213 38.7265 101.554C39.166 101.554 39.6054 101.334 39.8251 101.334C39.8251 101.773 39.6054 101.993 39.6054 102.433C39.3857 102.433 39.3857 102.433 39.166 102.433C38.9462 102.433 38.9462 102.652 39.166 102.652C39.3857 102.652 39.3857 102.652 39.3857 102.652C39.166 103.311 39.166 103.97 39.166 104.629C39.166 104.41 38.9462 104.19 38.5068 103.97ZM40.704 105.069C40.4843 104.849 40.2646 104.849 40.0449 104.629C40.0449 103.97 40.0449 103.092 40.2646 102.433C40.704 102.433 41.1435 102.213 41.5829 101.993C41.5829 102.433 41.5829 102.652 41.5829 103.092C41.3632 103.092 41.3632 103.092 41.1435 103.092C40.9237 103.092 40.9237 103.311 41.1435 103.311C41.3632 103.311 41.3632 103.311 41.5829 103.311C41.5829 103.531 41.5829 103.531 41.5829 103.751C41.5829 104.19 41.5829 104.629 41.5829 105.069V105.288C41.1435 105.288 40.9237 105.288 40.704 105.069ZM41.5829 105.508C41.5829 105.288 41.5829 104.849 41.5829 104.41C41.5829 103.97 41.5829 103.751 41.5829 103.311C42.0224 103.311 42.4618 103.092 42.9013 103.092C42.9013 103.531 42.9013 103.751 42.9013 104.19C42.6815 104.19 42.6815 104.19 42.4618 104.19C42.2421 104.19 42.2421 104.41 42.4618 104.41H42.6815C42.6815 104.849 42.6815 105.508 42.6815 105.947C42.4618 105.947 42.0224 105.728 41.5829 105.508ZM43.7802 106.387C43.5604 106.387 43.3407 106.167 43.121 106.167C43.121 105.508 43.121 105.069 43.121 104.41C43.5604 104.41 43.9999 104.19 44.4393 104.19C44.4393 104.41 44.4393 104.849 44.4393 105.069C44.4393 105.069 44.4393 105.069 44.2196 105.069C43.9999 105.069 43.9999 105.288 44.2196 105.288C44.2196 105.288 44.2196 105.288 44.4393 105.288C44.4393 105.728 44.6591 106.167 44.6591 106.606C44.4393 106.606 43.9999 106.387 43.7802 106.387ZM45.0985 106.826C45.0985 106.606 45.0985 106.387 45.0985 106.167C45.0985 105.947 45.0985 105.508 45.0985 105.288C45.5379 105.288 45.9774 105.069 46.4168 105.069C46.4168 105.288 46.4168 105.508 46.4168 105.728V105.947V106.167C46.4168 106.387 46.4168 106.826 46.4168 107.265C45.7577 107.046 45.5379 106.826 45.0985 106.826ZM46.6366 107.265C46.6366 106.826 46.6366 106.387 46.6366 105.947C47.076 105.947 47.5155 105.728 47.9549 105.728C47.9549 105.947 47.9549 106.167 47.9549 106.387C47.7352 106.387 47.7352 106.606 47.9549 106.606C47.9549 107.046 47.9549 107.265 47.9549 107.705C47.7352 107.485 47.2957 107.265 46.6366 107.265ZM48.6141 107.705C48.6141 107.265 48.6141 106.826 48.3944 106.387C48.8338 106.387 49.2733 106.167 49.7127 106.167V106.387V106.606C49.493 106.606 49.493 106.826 49.7127 106.826C49.7127 106.826 49.7127 106.826 49.9324 106.826C49.9324 107.265 50.1521 107.705 50.1521 107.925C49.7127 108.144 49.0535 107.925 48.6141 107.705ZM51.031 108.584C50.8113 108.584 50.8113 108.584 50.5916 108.364C50.5916 107.925 50.3719 107.485 50.3719 107.046C50.8113 107.046 51.2508 106.826 51.6902 106.826C51.6902 107.046 51.9099 107.265 51.9099 107.485C51.9099 107.485 51.9099 107.485 51.6902 107.485C51.4705 107.485 51.4705 107.705 51.6902 107.705H51.9099C51.9099 107.925 52.1297 108.364 52.1297 108.584C51.9099 108.584 51.4705 108.584 51.031 108.584ZM52.5691 108.803C52.5691 108.364 52.3494 108.144 52.3494 107.705C53.0086 107.705 53.448 107.485 54.1072 107.265C54.3269 107.705 54.3269 108.144 54.3269 108.584C54.1072 108.584 53.8874 108.803 53.6677 108.803C53.448 108.803 53.0086 108.803 52.5691 108.803Z" fill="#FDFFF8"/>
<path d="M36.9687 88.5924C37.4082 87.9333 38.2871 87.7137 38.9463 87.7137C39.6054 87.7137 40.2646 87.7137 40.704 87.9333C41.8027 88.153 42.9013 88.5924 43.9999 88.8121C46.1971 89.4711 48.3944 90.7892 50.3719 92.1073C50.3719 92.1073 50.8113 92.1073 50.5916 91.8876C48.1747 90.1301 45.538 89.0317 42.6816 88.153C41.5829 87.7137 40.2646 87.2743 38.9463 87.494C38.0674 87.494 36.9687 87.9333 36.5293 88.5924H36.9687Z" fill="#FDFFF8"/>
<path d="M199.761 170.164C199.761 170.164 197.881 173.336 194.645 175.113C193.497 175.747 180.916 181.901 175.121 184.629C167.03 188.436 159.252 191.544 156.068 198.65C155.024 200.934 154.919 201.885 156.746 199.982C161.497 195.097 164.159 193.638 174.391 189.197C182.847 185.454 194.332 180.949 196.89 177.777C197.412 177.079 200.439 171.433 199.761 170.164Z" fill="#FDFFF8"/>
<path d="M281.966 0C281.966 0 279.653 3.99453 275.669 6.23146C274.256 7.03037 258.772 14.7798 251.64 18.215C241.682 23.0085 232.109 26.9231 228.189 35.8709C226.905 38.7469 226.776 39.9453 229.025 37.5486C234.871 31.397 238.148 29.5595 250.741 23.9672C261.149 19.2536 275.284 13.5814 278.432 9.58687C279.075 8.70807 282.801 1.59781 281.966 0Z" fill="#FDFFF8"/>
<g clip-path="url(#clip0_265_6025)">
<path d="M129.774 33.3027C129.774 33.3027 127.706 36.2198 124.144 37.8534C122.881 38.4368 109.037 44.096 102.66 46.6047C93.7563 50.1052 85.1971 52.9639 81.693 59.4982C80.5441 61.5985 80.4292 62.4737 82.4398 60.7234C87.6672 56.2311 90.5969 54.8892 101.856 50.8053C111.162 47.3631 123.8 43.2209 126.614 40.3038C127.189 39.662 130.521 34.4696 129.774 33.3027Z" fill="#FDFFF8"/>
<path d="M117.179 79.6408C116.318 81.6244 114.25 84.5415 112.067 85.1249C109.711 85.7667 107.988 83.7831 106.782 81.041C106.092 82.908 104.771 84.4832 102.416 85.475C98.2225 87.2836 95.6376 84.0748 95.4652 80.1075C95.4652 79.6992 95.4652 79.0574 95.5227 78.2406C95.695 74.8568 96.0397 69.0226 92.9951 70.1311C92.9951 70.1311 93.627 68.9643 94.0291 68.7309C98.9119 65.5221 98.9693 71.2979 99.0268 75.1485C99.0268 76.257 99.0842 77.1905 99.2565 77.7155C100.348 81.7995 104.369 80.8076 105.575 78.3573V78.299C105.403 77.8322 104.082 73.3982 104.312 68.5559C104.369 66.9223 107.241 65.4054 107.873 64.8803L107.931 66.9223C107.529 71.1812 108.218 76.607 111.033 79.9325C111.55 80.5743 112.584 81.7411 113.56 81.3327C115.054 80.7493 114.652 77.7739 114.364 76.7237C113.618 73.7483 112.526 71.998 112.296 68.9643C112.182 67.8558 113.388 66.7473 114.077 66.1055C114.192 65.9888 116.26 63.9469 116.26 64.8803C116.26 69.8977 119.305 74.5651 117.179 79.6408Z" fill="#FDFFF8"/>
</g>
<defs>
<clipPath id="clip0_265_6025">
<rect width="49" height="57" fill="white" transform="translate(83 29)"/>
</clipPath>
</defs>
</svg>
