<svg width="112" height="72" viewBox="0 0 112 72" fill="none" xmlns="http://www.w3.org/2000/svg">
<path d="M8.12129 58.2435L6.14941 57.2205C7.09592 54.9385 12.2228 53.7581 13.3271 51.9482C14.4313 50.1383 15.9299 47.6988 17.1919 46.4398C18.3751 45.1807 19.6371 44.2364 20.9779 43.6069C22.3188 42.9774 23.8175 42.6626 25.3161 42.6626C26.026 42.6626 26.7358 42.7413 27.6035 42.82C28.3922 42.8987 29.2598 43.0561 30.0486 43.1347C30.8373 43.2134 31.5472 43.2921 32.1782 43.2921C32.967 43.2921 33.5191 43.4495 33.9135 43.843C34.3079 44.2364 34.4656 44.7086 34.4656 45.4168C34.4656 46.9119 34.0712 48.2497 33.3613 49.5087C32.6515 50.7678 31.6261 51.7908 30.443 52.5777C29.2598 53.3646 27.919 53.7581 26.4203 53.7581C25.395 53.7581 24.2907 53.6007 23.1865 53.2072C22.0033 52.8138 20.8991 52.6564 19.8737 52.6564C18.1384 52.6564 15.7722 53.0499 14.6679 53.8368C11.9862 55.7254 9.3833 56.591 8.12129 58.2435Z" fill="#BABE8E"/>
<path d="M38.1728 62.4143C37.6995 61.9422 37.3051 61.47 36.8319 61.0766C36.3586 60.6831 35.8854 60.2896 35.491 59.8962C35.0966 59.5027 34.6234 59.188 34.229 58.7945V58.3224C34.3868 58.0076 34.7023 57.6141 35.0966 57.2207C35.491 56.7485 35.8854 56.2764 36.3586 55.8042C36.753 55.3321 37.2263 54.8599 37.6206 54.4665C38.015 54.073 38.3305 53.837 38.4883 53.7583H38.8826C39.6714 54.2304 40.3813 54.7026 40.9334 55.096C41.4855 55.4895 41.8799 55.9616 42.1954 56.4338C42.7475 55.7255 43.3785 55.0173 44.0884 54.2304C44.7983 53.4435 45.2715 53.05 45.587 52.814H45.9814C47.2434 53.6009 48.1899 54.3091 48.8209 54.9386C49.4519 55.5682 49.7674 56.1977 49.7674 56.8272C49.7674 57.4568 49.4519 58.165 48.8209 58.8732C48.1899 59.6601 47.2434 60.447 45.9025 61.3913H45.5082C44.956 60.8405 44.4039 60.3683 43.9307 59.8962C43.4574 59.424 42.9053 59.0306 42.432 58.6371C41.9588 59.6601 40.7756 60.9192 38.7249 62.3356H38.1728V62.4143Z" fill="#BABE8E"/>
<path d="M35.0178 51.0039C34.0713 51.0039 33.3614 50.6892 32.8093 50.0597C32.336 49.4301 32.0205 48.4858 32.0205 47.2268C32.0205 45.5742 32.336 44.3152 33.0459 43.2922C33.7558 42.3479 34.5445 41.6397 35.5699 41.1675C36.5164 40.6954 37.4629 40.538 38.3305 40.538C39.6714 40.538 40.9334 40.1445 42.2743 39.2789C43.5363 38.4133 44.7983 36.8395 45.9814 34.4788L47.4012 34.7935C46.7702 37.469 46.0603 39.8298 45.2715 41.8757C44.4828 43.9217 43.5363 45.5742 42.432 46.9907C41.4067 48.3284 40.2235 49.4301 38.9615 50.0597C37.7784 50.6105 36.4375 51.0039 35.0178 51.0039Z" fill="#BABE8E"/>
<path d="M51.5028 65.0898L51.1873 63.5947C52.4493 62.8077 53.9479 61.9421 55.5254 60.8405C57.1818 59.7388 58.7593 58.6371 60.4157 57.4567C62.072 56.2764 63.4918 55.096 64.8327 53.9156C66.1735 52.7352 67.1989 51.7123 67.9088 50.768C68.382 50.1384 68.8553 49.5089 69.1708 48.8794C69.4863 48.3285 69.7229 47.7777 69.8807 47.3842C69.0919 47.4629 68.1454 47.5416 67.12 47.699C66.0947 47.7777 65.3848 47.8564 64.8327 47.8564C63.6495 47.7777 62.703 47.6203 61.8354 47.2268C60.9678 46.8334 60.3368 46.2826 59.8635 45.5743C59.3903 44.8661 59.1536 44.0792 59.1536 43.2136C59.1536 42.4267 59.2325 41.6398 59.4691 40.8528C59.7058 40.0659 60.0213 39.2003 60.4945 38.256L62.7819 33.8493C63.8862 31.8033 65.4637 30.7017 67.4355 30.7017C68.7764 30.7017 69.8807 31.0951 70.7483 31.9607C71.6159 32.7476 72.3258 34.0067 72.7991 35.6592C73.2723 37.3117 73.5089 39.3577 73.5089 41.8758C73.5089 43.1349 73.4301 44.4726 73.1934 45.8891C72.9568 47.3055 72.6413 48.8007 72.1681 50.3745C71.6948 51.9483 70.9849 53.4435 70.1962 54.9386C69.4074 56.4337 68.382 57.8502 67.1989 59.2666C66.5679 59.6601 65.7003 60.1322 64.5172 60.6831C63.334 61.2339 61.9932 61.7848 60.4945 62.3356C58.9959 62.8864 57.4184 63.4373 55.9198 63.9094C54.2634 64.3029 52.8436 64.6963 51.5028 65.0898Z" fill="#BABE8E"/>
<path d="M72.4047 46.6759C72.0892 46.6759 71.6948 46.5185 71.3004 46.2038C70.906 45.889 70.7483 45.3382 70.7483 44.6299C70.7483 43.4496 71.1427 42.5053 71.9314 41.9544C72.7202 41.3249 73.5089 41.0888 74.1399 41.0888C76.2696 41.0888 78.4781 40.6954 80.6866 39.9871C82.8951 39.2789 84.8669 38.492 86.5233 37.6264C85.3402 37.0756 84.5514 36.2887 83.9993 35.423C83.4472 34.4788 83.2106 33.4558 83.2106 32.1967C83.2106 30.8589 83.4472 29.4425 83.9993 28.1048C84.4726 26.767 85.3402 25.4292 86.6022 24.0915C86.9966 23.6193 87.4698 23.2259 87.9431 22.7537C88.4163 22.2816 88.8896 21.8094 89.3628 21.416C89.3628 21.3373 89.3628 21.2586 89.3628 21.1799C89.3628 21.1012 89.3628 21.0225 89.3628 20.9438C89.3628 20.2356 89.5995 19.37 90.0727 18.347C90.546 17.324 91.3347 16.1437 92.2812 14.8059L92.9122 14.9633C93.2277 15.5928 93.9376 16.301 95.0418 17.088C96.1461 17.8749 97.6447 18.6618 99.5377 19.6061C101.746 20.7078 103.56 21.6521 104.98 22.439C106.4 23.2259 107.504 23.8554 108.214 24.3276C109.555 25.2719 110.58 26.2948 111.132 27.3965C111.685 28.4982 112 29.7573 112 31.1737C112 33.0623 111.685 34.6361 110.975 36.0526C110.344 37.3903 109.555 38.492 108.608 39.2789C107.662 40.0658 106.321 40.4593 104.586 40.4593C103.008 40.4593 101.194 40.3806 99.3011 40.1445C97.3292 39.9085 95.1996 39.6724 92.9122 39.2789C88.5741 42.1118 84.8669 44.0791 81.5542 45.1808C78.3203 46.1251 75.2442 46.6759 72.4047 46.6759ZM93.6221 33.7705C94.963 32.9836 95.9095 32.1967 96.4616 31.5672C97.0137 30.8589 97.2504 30.072 97.2504 29.049C97.2504 27.3965 96.6982 26.1375 95.5151 25.3506C94.332 24.4849 93.2277 24.0915 92.1235 24.0915C91.3347 24.0915 90.4671 24.4063 89.6783 24.9571C88.8896 25.5866 88.1797 26.2948 87.6276 27.1605C87.0755 28.0261 86.8388 28.8917 86.8388 29.6786C86.8388 30.7803 87.391 31.7246 88.4952 32.4328C89.6783 33.0623 91.4136 33.5345 93.6221 33.7705ZM107.11 35.2657C107.189 35.2657 107.267 35.2657 107.425 35.2657C107.583 35.2657 107.662 35.2657 107.741 35.2657C108.608 35.2657 109.082 34.7148 109.082 33.6131C109.082 32.7475 108.687 31.8819 107.899 31.0163C107.268 30.3868 106.4 29.836 105.217 29.2851C104.034 28.7343 102.693 28.1834 101.115 27.6326C101.036 27.8687 101.036 28.1047 101.036 28.3408C101.036 28.5769 100.957 28.813 100.879 29.049C100.721 29.9933 100.405 30.9376 100.011 31.8819C99.6166 32.8262 99.0645 33.6918 98.4335 34.4788C100.563 34.7148 102.298 34.9509 103.718 35.1083C105.059 35.187 106.242 35.2657 107.11 35.2657Z" fill="#BABE8E"/>
<path d="M8.22283 29.8455C7.59183 30.0029 7.11858 30.3964 6.7242 30.7898C6.25095 31.262 5.85658 31.8128 5.4622 32.3637C5.22557 32.6784 5.1467 33.0719 5.4622 33.3079C5.38332 33.3079 5.30445 33.3866 5.22557 33.3866C5.1467 33.3866 4.98895 33.3866 4.91007 33.3079C4.8312 33.3079 4.8312 33.2293 4.75232 33.2293C4.67345 33.1506 4.59457 33.1506 4.43682 33.0719C4.35795 32.9932 4.27907 32.9145 4.35795 32.8358C4.35795 32.8358 4.35795 32.8358 4.43682 32.7571L4.5157 32.8358C4.91007 32.7571 5.1467 32.285 5.38332 31.9702C5.61995 31.6554 5.93545 31.1833 6.25095 30.8685C6.80308 30.3177 7.43408 29.9242 8.14396 29.6881C8.14396 29.6095 8.14396 29.6095 8.14396 29.5308C7.51295 29.6881 7.0397 30.0029 6.48758 30.3964C6.0932 30.7111 5.7777 31.1046 5.4622 31.498C5.30445 31.7341 5.1467 31.8915 4.98895 32.1276C4.8312 32.3637 4.67345 32.5997 4.43682 32.6784H4.35795C4.2002 32.6784 4.04245 32.6784 4.12132 32.9145C4.2002 32.9932 4.27907 33.0719 4.35795 33.1506C4.59457 33.2293 4.67345 33.3079 4.8312 33.3866C4.91007 33.4653 4.91007 33.4653 4.98895 33.4653C5.06782 33.4653 5.22557 33.4653 5.30445 33.4653C5.38332 33.4653 5.4622 33.4653 5.54107 33.4653C5.61995 33.4653 5.54107 33.3866 5.61995 33.3866V33.3079C5.1467 32.9145 5.69883 32.3637 6.01433 31.9702C6.32983 31.5767 6.64533 31.1833 7.0397 30.8685C7.43408 30.4751 7.82845 30.1603 8.38058 30.0029C8.22283 29.9242 8.22283 29.8455 8.22283 29.8455Z" fill="#BABE8E"/>
<path d="M5.93536 41.5706C6.64523 40.941 7.11848 39.9967 7.51286 39.1311C7.90724 38.2655 8.22274 37.3999 8.30161 36.4556C8.38049 35.59 8.30161 34.7244 7.90724 34.0162C7.43399 33.1506 6.64523 32.5997 5.77761 32.285H5.69873C5.61986 32.285 5.61986 32.3637 5.69873 32.4424C6.56636 32.7571 7.27624 33.2293 7.74949 34.0162C8.14386 34.7244 8.22274 35.59 8.22274 36.3769C8.06499 37.9508 7.35511 39.5246 6.48748 40.7837C6.01423 41.4919 5.38323 42.0427 4.5156 42.2788C3.72685 42.5149 2.85923 42.4362 2.14935 42.1214C1.20285 41.6493 0.571845 40.8623 0.33522 39.8394C0.177469 39.0524 0.256344 38.5803 0.414095 37.7934C0.65072 36.613 0.887346 35.1966 1.51835 34.1736C2.22822 33.0719 3.64798 32.1276 5.06773 32.285H5.14661C5.22548 32.2063 5.14661 32.2063 5.06773 32.1276C3.5691 31.8915 1.9916 32.9145 1.28172 34.1736C0.887346 34.8031 0.65072 35.59 0.49297 36.2982C0.33522 37.0852 0.098594 37.8721 0.0197188 38.7377C-0.0591564 39.4459 0.098594 40.1541 0.49297 40.7837C0.887346 41.4132 1.28172 41.8853 1.91272 42.1214C2.54372 42.3575 3.2536 42.5149 3.96348 42.4362C4.75223 42.3575 5.38323 42.0427 5.93536 41.5706Z" fill="#BABE8E"/>
<path d="M6.17188 32.521C6.17188 32.4423 6.09301 32.3636 6.01413 32.4423C5.93526 32.5996 5.77751 32.6783 5.61976 32.8357L5.38313 32.9931C5.30426 32.9931 5.30426 33.0718 5.38313 33.1505C5.46201 33.1505 5.54088 33.0718 5.61976 33.0718C5.85638 32.8357 6.01413 32.6783 6.17188 32.521Z" fill="#BABE8E"/>
<path d="M6.25093 33.1506C6.40868 32.9932 6.48755 32.9145 6.56643 32.7572C6.56643 32.7572 6.48755 32.6785 6.40868 32.6785C6.3298 32.8358 6.25093 32.9145 6.09318 33.0719C5.93543 33.2293 5.77768 33.308 5.61993 33.4654C5.22555 33.7801 4.83117 33.8588 4.35792 34.0162C4.27905 34.0162 4.4368 34.1736 4.51567 34.0949C4.91005 33.9375 5.30442 33.8588 5.6988 33.6228C5.93543 33.4654 6.09318 33.308 6.25093 33.1506Z" fill="#BABE8E"/>
<path d="M6.48737 33.544C6.64512 33.3866 6.80287 33.2292 6.96062 33.0719C7.0395 33.0719 7.11837 32.9932 7.0395 32.9932H6.96062C6.88175 33.0719 6.80287 33.2292 6.64512 33.3079C6.48737 33.544 6.25075 33.7014 6.093 33.8588C5.69862 34.0948 5.30424 34.2522 4.90987 34.3309C4.83099 34.3309 4.90987 34.4883 4.98874 34.4883C5.38312 34.4096 5.7775 34.3309 6.17187 34.0162C6.17187 33.8588 6.32962 33.7014 6.48737 33.544Z" fill="#BABE8E"/>
<path d="M7.35523 33.3867C7.4341 33.3867 7.4341 33.3867 7.35523 33.3867C7.35523 33.308 7.27635 33.2293 7.27635 33.308C6.88198 33.7014 6.56647 34.0162 6.01435 34.331C5.61997 34.4884 5.06785 34.6457 4.59459 34.8031C4.51572 34.8031 4.67347 34.9605 4.67347 34.8818C5.2256 34.7244 5.69885 34.567 6.1721 34.331C6.72422 34.0949 7.03973 33.7801 7.35523 33.3867Z" fill="#BABE8E"/>
<path d="M7.11849 34.4096C7.27624 34.3309 7.35511 34.1735 7.51286 34.0948C7.59174 34.0161 7.67061 33.8587 7.74949 33.8587C7.82836 33.8587 7.67061 33.78 7.67061 33.78C7.51286 33.78 7.35511 34.0948 7.27624 34.1735C7.03961 34.4096 6.72411 34.6456 6.40861 34.803C6.17199 34.9604 5.85649 35.0391 5.61986 35.1965C5.30436 35.3539 4.90998 35.3539 4.59448 35.4325C4.59448 35.4325 4.67336 35.5112 4.75223 35.5112C5.38323 35.4325 5.93536 35.1965 6.48749 34.9604C6.64524 34.803 6.88186 34.5669 7.11849 34.4096Z" fill="#BABE8E"/>
<path d="M7.98607 34.4884C8.06495 34.4884 8.06495 34.4884 7.98607 34.4884C8.06495 34.3311 7.98607 34.3311 7.9072 34.3311C7.43395 34.8032 6.88182 35.118 6.32969 35.4327C6.09307 35.5901 5.77757 35.5901 5.54094 35.6688C5.22544 35.8262 4.90994 35.9049 4.59444 35.9049C4.51556 35.9049 4.59444 36.0623 4.67331 36.0623C4.98881 35.9836 5.30432 35.9836 5.61982 35.8262C5.77757 35.7475 5.85644 35.6688 6.01419 35.6688C6.17194 35.5901 6.25082 35.5901 6.40857 35.5901C6.96069 35.354 7.51282 34.9606 7.98607 34.4884Z" fill="#BABE8E"/>
<path d="M8.22268 35.0391C8.22268 34.9604 8.1438 34.9604 8.06493 34.9604C7.74943 35.1965 7.5128 35.4326 7.1973 35.59C6.8818 35.7474 6.5663 35.9047 6.2508 36.0621C5.6198 36.3769 4.90992 36.4556 4.27892 36.6917C4.20005 36.6917 4.3578 36.849 4.3578 36.7704C4.9888 36.5343 5.69867 36.4556 6.32968 36.2195C6.64518 36.0621 6.96068 35.9047 7.27618 35.7474C7.59168 35.59 7.90718 35.2752 8.22268 35.0391C8.30155 35.1178 8.22268 35.1178 8.22268 35.0391Z" fill="#BABE8E"/>
<path d="M8.30164 35.9048C8.22277 35.7474 8.14389 35.8261 7.98614 35.9048C7.67064 36.2196 7.27627 36.377 6.88189 36.5344C5.93539 36.9278 4.91001 37.1639 3.88463 37.3213C3.80576 37.3213 3.96351 37.4787 3.96351 37.4C4.75226 37.2426 5.54101 37.0852 6.25089 36.8491C6.64527 36.6917 7.03964 36.5344 7.35514 36.377C7.51289 36.2983 7.74952 36.1409 7.90727 36.0622C7.90727 36.0622 7.90727 36.0622 7.98614 35.9835L8.06502 35.9048C8.22277 35.9835 8.22277 35.9835 8.30164 35.9048C8.38052 35.9835 8.30164 35.9835 8.30164 35.9048Z" fill="#BABE8E"/>
<path d="M8.14376 36.6129C7.90713 36.5342 7.59163 36.8489 7.43388 36.9276C7.0395 37.1637 6.56625 37.3998 6.17188 37.5572C5.93525 37.6359 5.69863 37.7145 5.54087 37.8719C5.30425 37.9506 5.06762 37.9506 4.75212 38.0293C4.27887 38.0293 3.8845 38.0293 3.41125 37.9506C3.33237 37.9506 3.49012 38.0293 3.49012 38.0293C4.27887 38.108 5.1465 38.1867 5.85638 37.7932C6.25075 37.6359 6.64513 37.4785 7.0395 37.2424C7.27613 37.085 7.51275 37.0063 7.67051 36.8489C7.74938 36.7702 7.98601 36.6129 8.06488 36.6129C8.30151 36.7702 8.22263 36.6916 8.14376 36.6129Z" fill="#BABE8E"/>
<path d="M7.90729 37.5574C7.82841 37.5574 7.74954 37.5574 7.67066 37.6361C7.43404 37.7148 7.27629 37.7934 7.03966 37.8721C6.64529 38.0295 6.25091 38.1869 5.77766 38.3443C4.91003 38.5804 3.96353 38.423 3.0959 38.423C3.01703 38.423 3.0959 38.5804 3.17478 38.5804C4.04241 38.6591 4.91003 38.7377 5.69878 38.5804C6.09316 38.5017 6.40866 38.3443 6.80304 38.1869C6.96079 38.1082 7.19741 38.0295 7.35516 37.9508C7.51291 37.8721 7.82841 37.7148 7.98617 37.7148C8.06504 37.7148 7.98616 37.6361 7.90729 37.5574Z" fill="#BABE8E"/>
<path d="M7.7495 38.5016C7.7495 38.4229 7.67063 38.3442 7.59175 38.3442C7.27625 38.5803 6.803 38.659 6.4875 38.8164C6.09313 38.9738 5.61987 39.0525 5.2255 39.1312C4.83112 39.2098 4.51562 39.3672 4.12125 39.3672C3.72687 39.3672 3.25362 39.2098 2.85924 39.1312C2.78037 39.1312 2.93812 39.2098 2.93812 39.2098C3.33249 39.2885 3.80575 39.3672 4.20012 39.4459C4.51562 39.4459 4.91 39.3672 5.2255 39.2885C5.61987 39.1312 6.01425 39.1312 6.40863 38.9738C6.56638 38.8951 6.803 38.8164 6.96075 38.7377C7.27625 38.659 7.51288 38.5803 7.7495 38.5016Z" fill="#BABE8E"/>
<path d="M7.11843 39.3672C7.03956 39.3672 7.03956 39.3672 6.96068 39.3672C6.80293 39.5246 6.48743 39.6033 6.32968 39.682C5.9353 39.8393 5.46205 39.918 4.9888 39.9967C4.51555 40.0754 4.12118 39.9967 3.64792 39.9967C3.4113 39.9967 3.17467 39.9967 2.93805 39.9967C2.70142 39.918 2.4648 39.8393 2.22817 39.7606C2.1493 39.682 2.22817 39.8393 2.22817 39.8393C2.54367 39.9967 2.85917 40.0754 3.25355 40.1541C3.49017 40.1541 3.7268 40.1541 3.88455 40.1541C4.12118 40.1541 4.27893 40.2328 4.51555 40.2328C4.9888 40.2328 5.38318 40.0754 5.85643 39.9967C6.09306 39.918 6.32968 39.8393 6.56631 39.7606C6.64518 39.7606 7.03956 39.5246 7.03956 39.5246C7.27618 39.5246 7.19731 39.4459 7.11843 39.3672Z" fill="#BABE8E"/>
<path d="M6.56629 40.4689C6.56629 40.3902 6.48741 40.3902 6.40854 40.3902C6.09304 40.4689 5.77754 40.705 5.38316 40.7837C5.06766 40.8624 4.67329 40.8624 4.27891 40.8624C4.12116 40.8624 3.88453 40.8624 3.72678 40.8624C3.49016 40.8624 3.33241 40.7837 3.09578 40.705C2.70141 40.6263 2.30703 40.4689 1.99153 40.3115C1.91265 40.3115 1.91265 40.3902 1.99153 40.3902C2.46478 40.6263 2.85916 40.7837 3.25353 40.8624C3.56903 40.9411 3.88453 41.0197 4.27891 41.0197C4.67329 41.0197 5.14654 41.0197 5.54091 40.9411C5.85641 40.8624 6.17191 40.6263 6.56629 40.4689C6.56629 40.5476 6.56629 40.5476 6.56629 40.4689Z" fill="#BABE8E"/>
<path d="M5.77759 41.3345C5.69872 41.3345 5.69872 41.3345 5.61984 41.3345C5.46209 41.4132 5.30434 41.4132 5.06771 41.4919C4.75221 41.5706 4.35784 41.6493 4.04234 41.6493C3.64796 41.6493 3.25359 41.4919 2.93808 41.3345C2.54371 41.1771 2.14933 41.0197 1.75496 40.8624C1.67608 40.7837 1.67608 40.9411 1.75496 40.9411C2.46483 41.2558 3.17471 41.4919 3.88459 41.6493C4.20009 41.728 4.51559 41.6493 4.75221 41.6493C4.98884 41.6493 5.14659 41.5706 5.30434 41.4919C5.38322 41.4919 5.61984 41.3345 5.69872 41.4132C5.85647 41.4919 5.85647 41.4132 5.77759 41.3345Z" fill="#BABE8E"/>
<path d="M4.43667 42.1214C4.27892 42.0427 4.12117 42.1214 3.96342 42.1214C3.72679 42.1214 3.49016 42.0427 3.25354 41.964C2.62254 41.8066 1.99154 41.6493 1.51828 41.2558C1.43941 41.1771 1.36053 41.1771 1.43941 41.2558C1.83379 41.6493 2.30704 41.8066 2.85916 41.964C3.17466 42.0427 3.49016 42.1214 3.80566 42.2001C3.88454 42.2001 4.04229 42.2788 4.20004 42.2788C4.27892 42.2788 4.51554 42.2001 4.51554 42.2788C4.59442 42.2788 4.51554 42.2001 4.43667 42.1214Z" fill="#BABE8E"/>
<path d="M6.72418 32.8359C6.6453 32.8359 6.48755 32.7572 6.40868 32.7572C6.25093 32.7572 6.09318 32.6785 5.93543 32.5998C5.77768 32.5211 5.54105 32.4424 5.3833 32.5211C5.3833 32.5998 5.54105 32.6785 5.54105 32.5998C5.54105 32.5998 6.6453 32.9146 6.80305 32.9146C6.80305 32.9933 6.80305 32.8359 6.72418 32.8359Z" fill="#BABE8E"/>
<path d="M7.27616 33.544C6.96066 33.3866 6.56628 33.2292 6.25078 33.1505C6.01415 33.1505 5.8564 33.0718 5.61978 33.0718C5.5409 33.0718 5.46203 32.9931 5.46203 33.0718C5.38315 33.1505 5.5409 33.2292 5.5409 33.1505C5.5409 33.1505 5.69865 33.1505 5.77753 33.1505C5.8564 33.2292 6.01415 33.2292 6.1719 33.2292C6.56628 33.3079 6.88178 33.4653 7.27616 33.6227C7.35503 33.7014 7.35503 33.544 7.27616 33.544Z" fill="#BABE8E"/>
<path d="M7.51275 34.095C7.35499 34.095 7.19725 33.9376 7.03949 33.9376C6.88174 33.8589 6.72399 33.8589 6.56624 33.7802C6.25074 33.7015 5.93524 33.6228 5.61974 33.6228C5.54087 33.6228 5.69862 33.7015 5.69862 33.7015C6.09299 33.7015 6.40849 33.7802 6.80287 33.9376C6.96062 34.0163 7.03949 34.0163 7.19724 34.0163C7.355 34.095 7.43387 34.095 7.59162 34.1736C7.6705 34.2523 7.59162 34.1736 7.51275 34.095Z" fill="#BABE8E"/>
<path d="M7.74943 34.7243C7.51281 34.7243 7.19731 34.6457 6.96068 34.567C6.64518 34.4883 6.32968 34.4096 6.01418 34.2522C5.9353 34.2522 5.9353 34.2522 5.9353 34.3309C5.9353 34.3309 5.9353 34.3309 6.01418 34.3309C6.32968 34.4883 6.64518 34.567 6.88181 34.6457C7.03956 34.6457 7.11843 34.7243 7.27618 34.7243C7.43393 34.7243 7.59168 34.803 7.74943 34.803C7.90718 34.803 7.82831 34.7243 7.74943 34.7243Z" fill="#BABE8E"/>
<path d="M7.67071 35.2753C7.51296 35.1966 7.27634 35.1966 7.11859 35.1179C7.03971 35.1179 6.48758 34.9605 6.48758 34.9605C6.48758 34.8818 6.32983 34.8031 6.32983 34.9605C6.32983 35.1179 6.64533 35.1179 6.72421 35.1966C7.03971 35.2753 7.35521 35.3539 7.67071 35.4326C7.74959 35.4326 7.74959 35.354 7.67071 35.2753Z" fill="#BABE8E"/>
<path d="M7.59185 35.9048C7.1186 35.7475 6.64534 35.5114 6.09322 35.354C6.01434 35.354 6.09322 35.4327 6.17209 35.4327C6.40872 35.5114 6.64534 35.5901 6.88197 35.6688C7.1186 35.7475 7.4341 35.8262 7.67072 35.9048C7.7496 36.0622 7.67072 35.9048 7.59185 35.9048Z" fill="#BABE8E"/>
<path d="M7.51287 36.4555C7.27624 36.4555 6.96074 36.2981 6.80299 36.2194C6.64524 36.1407 6.40861 36.062 6.25086 35.9833C6.25086 35.9046 6.09311 35.9046 6.17199 35.9833C6.32974 36.2194 6.64524 36.2194 6.88186 36.3768C7.11849 36.4555 7.35512 36.6129 7.59174 36.6129C7.67062 36.5342 7.51287 36.4555 7.51287 36.4555Z" fill="#BABE8E"/>
<path d="M7.43394 36.8491C7.19732 36.7704 7.03957 36.7704 6.80294 36.6917C6.48744 36.613 6.17194 36.4556 5.93532 36.2982C5.85644 36.2195 5.77757 36.2982 5.93532 36.3769C6.17194 36.5343 6.40857 36.613 6.64519 36.6917C6.96069 36.7704 7.27619 36.7704 7.51282 36.9278C7.59169 37.0064 7.51282 36.8491 7.43394 36.8491Z" fill="#BABE8E"/>
<path d="M7.27616 37.5573C7.11841 37.4786 7.03953 37.3999 6.88178 37.3999C6.56628 37.3212 6.40853 37.2425 6.09303 37.0851C5.93528 36.9277 5.61978 36.7703 5.46203 36.6917C5.38315 36.6917 5.5409 36.7703 5.5409 36.7703C5.69865 36.7703 5.8564 36.9277 5.93528 37.0064C6.09303 37.0851 6.25078 37.2425 6.40853 37.3212C6.72403 37.4786 7.03953 37.4786 7.35503 37.6359C7.43391 37.7146 7.35503 37.5573 7.27616 37.5573Z" fill="#BABE8E"/>
<path d="M7.11842 38.3442C6.80292 38.1869 6.56629 37.9508 6.25079 37.7934C5.85642 37.5573 5.54092 37.3213 5.22542 37.1639C5.14654 37.0852 5.14654 37.2426 5.22542 37.2426C5.54092 37.4 5.85642 37.636 6.17192 37.7934C6.48742 37.9508 6.80292 38.2656 7.11842 38.4229C7.1973 38.4229 7.1973 38.3442 7.11842 38.3442Z" fill="#BABE8E"/>
<path d="M6.72407 38.7375C6.56632 38.7375 6.40857 38.5802 6.32969 38.5015C6.09307 38.3441 5.93532 38.2654 5.69869 38.108C5.38319 37.8719 4.98881 37.7145 4.67331 37.3998C4.59444 37.3211 4.51556 37.3998 4.59444 37.4785C4.90994 37.7932 5.38319 38.0293 5.77757 38.2654C6.01419 38.4228 6.17194 38.5015 6.40857 38.6588C6.56632 38.7375 6.64519 38.8162 6.80294 38.8162C6.88182 38.8162 6.80294 38.7375 6.72407 38.7375Z" fill="#BABE8E"/>
<path d="M6.40851 39.4459C6.25076 39.2885 6.01414 39.1311 5.85639 38.9737C5.69864 38.8163 5.54089 38.7376 5.38314 38.5803C4.98876 38.3442 4.59438 38.1081 4.27888 37.7933C4.20001 37.7146 4.20001 37.7933 4.27888 37.872C4.90988 38.4229 5.69864 38.8163 6.40851 39.4459C6.48739 39.5245 6.40851 39.5245 6.40851 39.4459Z" fill="#BABE8E"/>
<path d="M6.4085 39.9967C6.17188 39.9181 6.01413 39.682 5.85637 39.5246C5.54087 39.2885 5.30425 39.0525 5.06762 38.8951C4.831 38.7377 4.59437 38.5016 4.27887 38.3442C4.2 38.2655 3.96337 38.1082 3.80562 38.1082C3.72675 38.1082 3.80562 38.2655 3.8845 38.2655C3.96337 38.2655 4.04225 38.3442 4.04225 38.3442C4.2 38.4229 4.27887 38.5016 4.43662 38.5803C4.67325 38.7377 4.90987 38.9738 5.22537 39.1311C5.38312 39.2885 5.462 39.4459 5.61975 39.5246C5.69862 39.6033 5.85637 39.682 5.93525 39.7607C6.093 39.8394 6.25075 39.9967 6.4085 40.0754C6.48738 40.1541 6.48738 40.0754 6.4085 39.9967Z" fill="#BABE8E"/>
<path d="M6.01414 40.3902C5.85639 40.3115 5.69864 40.0754 5.54089 39.9967C5.38314 39.8394 5.14652 39.7607 4.98877 39.6033C4.83102 39.4459 4.67327 39.2885 4.51551 39.2098C4.27889 39.0524 4.04226 38.8951 3.80564 38.7377C3.72676 38.659 3.64789 38.7377 3.72676 38.8164C3.88451 38.9737 4.12114 39.1311 4.27889 39.2098C4.51551 39.3672 4.67327 39.5246 4.83102 39.682C5.06764 39.8394 5.30427 39.9967 5.46202 40.1541C5.61977 40.3115 5.77752 40.4689 5.93527 40.5476C6.09302 40.5476 6.09302 40.3902 6.01414 40.3902Z" fill="#BABE8E"/>
<path d="M5.54096 40.7835C5.30434 40.6262 5.06771 40.4688 4.90996 40.2327C4.67334 40.0753 4.51559 39.8392 4.27896 39.6819C4.04233 39.5245 3.88458 39.3671 3.64796 39.131C3.56908 39.0523 3.49021 38.9736 3.41133 38.9736C3.33246 38.9736 3.41133 39.0523 3.49021 39.0523C3.64796 39.0523 3.88458 39.3671 3.96346 39.4458C4.12121 39.6032 4.27896 39.7605 4.43671 39.8392C4.59446 39.9966 4.75221 40.154 4.90996 40.2327C5.06771 40.3901 5.30434 40.5475 5.46209 40.7048C5.54096 40.8622 5.61984 40.8622 5.54096 40.7835Z" fill="#BABE8E"/>
<path d="M5.06779 41.2558C4.83117 40.941 4.51566 40.7836 4.27904 40.4689C4.12129 40.3115 3.96354 40.1541 3.80579 39.9967C3.64804 39.8393 3.56916 39.682 3.33254 39.6033H3.25366C3.25366 39.682 3.33254 39.682 3.41141 39.682C3.49029 39.7607 3.64804 39.918 3.72691 39.9967C3.88466 40.1541 4.04241 40.2328 4.20016 40.3902C4.51566 40.6263 4.83117 40.8623 5.06779 41.1771C4.98892 41.2558 5.14667 41.3345 5.06779 41.2558Z" fill="#BABE8E"/>
<path d="M4.75212 41.4919C4.59437 41.4132 4.51549 41.3345 4.43662 41.1771C4.27887 41.0985 4.04224 41.0198 3.88449 40.8624C3.72674 40.705 3.56899 40.5476 3.41124 40.4689C3.33236 40.3902 3.09574 40.3115 3.09574 40.2328C3.09574 40.1542 2.93799 40.1542 2.93799 40.2328C3.01686 40.3115 3.09574 40.3115 3.25349 40.3902C3.49011 40.5476 3.64787 40.705 3.88449 40.9411C4.04224 41.0985 4.19999 41.1771 4.35774 41.3345C4.51549 41.4132 4.59437 41.5706 4.75212 41.6493C4.75212 41.6493 4.83099 41.5706 4.75212 41.4919Z" fill="#BABE8E"/>
<path d="M4.19998 41.8853C3.88448 41.7279 3.72673 41.4131 3.49011 41.177C3.41123 41.0983 3.33236 41.0196 3.25348 41.0196C3.17461 40.941 2.93798 40.8623 2.8591 40.7836C2.78023 40.7049 2.70135 40.7836 2.78023 40.8623C2.8591 40.941 2.93798 40.941 3.01686 41.0196C3.25348 41.0983 3.41123 41.3344 3.56898 41.4918C3.80561 41.7279 3.96336 41.9639 4.19998 42.0426C4.27886 42.0426 4.27886 41.8853 4.19998 41.8853Z" fill="#BABE8E"/>
<path d="M3.56921 42.0427C3.25371 41.6492 2.85933 41.3344 2.54383 40.941C2.54383 40.941 2.38608 40.8623 2.46496 40.941C2.78046 41.3344 3.09596 41.6492 3.41146 41.964C3.49033 42.1213 3.64808 42.1214 3.56921 42.0427Z" fill="#BABE8E"/>
<path d="M3.01687 42.0428C2.85912 41.8854 2.78025 41.728 2.6225 41.6493C2.46474 41.5706 2.30699 41.4132 2.22812 41.3345L2.14924 41.2559C2.07037 41.2559 2.07037 41.2559 2.14924 41.3345C2.22812 41.4919 2.38587 41.5706 2.46475 41.6493C2.6225 41.8067 2.78025 41.9641 2.938 42.1215C2.938 42.0428 3.09575 42.1215 3.01687 42.0428Z" fill="#BABE8E"/>
<path d="M1.04499 35.5899C0.966118 35.6686 0.808367 35.6686 0.729492 35.7473C0.729492 35.7473 0.808367 35.9047 0.887243 35.826C0.966118 35.7473 1.12387 35.7473 1.20274 35.6686C1.20274 35.6686 1.04499 35.5112 1.04499 35.5899Z" fill="#BABE8E"/>
<path d="M1.28163 35.8262C1.20275 35.8262 1.20275 35.8262 1.20275 35.9049C1.12388 35.9836 1.045 35.9836 0.966127 35.9836C0.887252 35.9836 0.808377 36.0622 0.729502 36.1409C0.650627 36.1409 0.571751 36.2196 0.492876 36.2983C0.414001 36.2983 0.492876 36.4557 0.571751 36.4557C0.729502 36.4557 0.808377 36.2983 0.887252 36.2983C0.966127 36.2983 1.045 36.2196 1.12388 36.2196C1.20275 36.2196 1.28163 36.1409 1.3605 36.0622C1.51825 35.9836 1.3605 35.8262 1.28163 35.8262Z" fill="#BABE8E"/>
<path d="M1.12407 36.3769C1.04519 36.3769 0.966319 36.4556 0.808569 36.5343C0.650818 36.613 0.493068 36.6917 0.335317 36.8491C0.256442 36.9278 0.414193 37.0064 0.414193 37.0064C0.493068 36.9278 0.650818 36.8491 0.729693 36.7704C0.808568 36.6917 0.966319 36.613 1.04519 36.5343C1.36069 36.4556 1.20294 36.2982 1.12407 36.3769Z" fill="#BABE8E"/>
<path d="M1.12407 36.7703C1.04519 36.7703 0.966319 36.849 0.808569 36.9277C0.650818 37.0064 0.493068 37.0851 0.335317 37.2425C0.256442 37.3212 0.414193 37.3999 0.414193 37.3999C0.650818 37.1638 0.729693 37.1638 0.887444 37.0851C0.966319 37.0064 1.12407 36.9277 1.20294 36.849C1.28182 36.849 1.20294 36.6916 1.12407 36.7703Z" fill="#BABE8E"/>
<path d="M1.04521 37.1638C0.966337 37.1638 0.887461 37.2425 0.729711 37.3212C0.571961 37.3999 0.41421 37.4786 0.25646 37.636C0.177585 37.7147 0.335335 37.7933 0.335335 37.7933C0.41421 37.7147 0.571961 37.636 0.650836 37.5573C0.729711 37.4786 0.887461 37.3999 0.966337 37.3212C1.20296 37.2425 1.12409 37.1638 1.04521 37.1638Z" fill="#BABE8E"/>
<path d="M0.96611 37.6359C0.887235 37.6359 0.80836 37.7146 0.65061 37.7933C0.492859 37.872 0.335109 37.9507 0.177358 38.1081C0.0984833 38.1868 0.256234 38.2655 0.256234 38.2655C0.335109 38.1868 0.492859 38.1081 0.571734 38.0294C0.65061 37.9507 0.80836 37.872 0.887235 37.7933C1.12386 37.7146 1.04499 37.5573 0.96611 37.6359Z" fill="#BABE8E"/>
<path d="M0.887253 38.0295C0.808378 38.0295 0.729502 38.1082 0.571752 38.1869C0.414002 38.2656 0.256251 38.3443 0.0985011 38.5017C0.0196259 38.5804 0.177376 38.6591 0.177376 38.6591C0.256251 38.5804 0.414002 38.5017 0.492877 38.423C0.571752 38.3443 0.729502 38.2656 0.808378 38.1869C1.045 38.1869 0.966128 38.0295 0.887253 38.0295Z" fill="#BABE8E"/>
<path d="M0.808378 38.5015C0.729503 38.5015 0.650627 38.5802 0.492877 38.6588C0.414002 38.7375 0.256251 38.8162 0.0985011 38.8949C0.0196259 38.9736 0.177376 39.0523 0.177376 39.0523C0.256251 38.9736 0.414002 38.8949 0.492877 38.8162C0.650627 38.7375 0.808378 38.6588 0.887253 38.6588C1.045 38.5802 0.887253 38.5015 0.808378 38.5015Z" fill="#BABE8E"/>
<path d="M0.808527 38.9737C0.729652 38.9737 0.650777 39.0524 0.493026 39.1311C0.335276 39.2098 0.177526 39.2885 0.0197754 39.4458C0.0197754 39.4458 0.0986505 39.5245 0.177526 39.5245C0.256401 39.4458 0.414151 39.3672 0.493026 39.2885C0.571902 39.2098 0.729652 39.1311 0.808527 39.0524C0.966278 39.0524 0.887402 38.895 0.808527 38.9737Z" fill="#BABE8E"/>
<path d="M0.887253 39.2886C0.808378 39.2886 0.729502 39.3673 0.571752 39.446C0.414002 39.5246 0.256251 39.6033 0.0985011 39.7607C0.0196259 39.8394 0.177376 39.9181 0.177376 39.9181C0.256251 39.8394 0.414002 39.7607 0.492877 39.682C0.571752 39.6033 0.729502 39.5246 0.808378 39.446C1.045 39.446 0.966128 39.2886 0.887253 39.2886Z" fill="#BABE8E"/>
<path d="M1.04521 39.6819C0.966337 39.6819 0.887461 39.7606 0.729711 39.8393C0.571961 39.918 0.41421 39.9966 0.25646 40.154C0.177585 40.2327 0.335335 40.3114 0.335335 40.3114C0.41421 40.2327 0.571961 40.154 0.650836 40.0753C0.729711 39.9967 0.887461 39.918 0.966336 39.8393C1.20296 39.7606 1.04521 39.6819 1.04521 39.6819Z" fill="#BABE8E"/>
<path d="M1.12407 40.0754C1.04519 40.0754 0.966319 40.1541 0.808569 40.2328C0.650818 40.3115 0.493068 40.3902 0.335317 40.5475C0.256442 40.6262 0.414193 40.7049 0.414193 40.7049C0.493068 40.6262 0.650818 40.5476 0.729693 40.4689C0.808569 40.3902 0.966319 40.3115 1.04519 40.2328C1.28182 40.1541 1.20294 39.9967 1.12407 40.0754Z" fill="#BABE8E"/>
<path d="M1.28178 40.3901C1.20291 40.3901 1.12403 40.4688 0.966283 40.5475C0.808533 40.6262 0.650783 40.7049 0.493032 40.8623C0.414157 40.941 0.571907 41.0197 0.571907 41.0197C0.650783 40.941 0.808533 40.8623 0.887408 40.7836C0.966283 40.7049 1.12403 40.6262 1.20291 40.5475C1.51841 40.5475 1.36066 40.3901 1.28178 40.3901Z" fill="#BABE8E"/>
<path d="M1.59721 40.7048C1.51834 40.7048 1.43946 40.7835 1.28171 40.8622C1.12396 40.9409 0.966212 41.0196 0.808462 41.177C0.729587 41.2557 0.887337 41.3344 0.887337 41.3344C0.966212 41.2557 1.12396 41.177 1.20284 41.0983C1.28171 41.0196 1.43946 40.9409 1.51834 40.8622C1.75496 40.8622 1.59721 40.7048 1.59721 40.7048Z" fill="#BABE8E"/>
<path d="M1.83379 41.0198C1.75491 41.0198 1.67604 41.0985 1.51829 41.1772C1.36053 41.2558 1.20278 41.3345 1.04503 41.4919C0.966159 41.5706 1.12391 41.6493 1.12391 41.6493C1.20278 41.5706 1.36053 41.4919 1.43941 41.4132C1.51829 41.3345 1.67604 41.2558 1.75491 41.1772C1.99154 41.1772 1.91266 41.0198 1.83379 41.0198Z" fill="#BABE8E"/>
<path d="M2.14935 41.3345C2.07047 41.3345 1.9916 41.4132 1.83385 41.4919C1.6761 41.5705 1.51835 41.6492 1.3606 41.8066C1.3606 41.8066 1.51835 41.8853 1.59722 41.8853C1.6761 41.8066 1.83385 41.7279 1.91272 41.6492C1.9916 41.5705 2.14935 41.4919 2.22822 41.4132C2.38597 41.4132 2.22822 41.3345 2.14935 41.3345Z" fill="#BABE8E"/>
<path d="M5.8566 41.4131C6.09323 41.177 6.32985 40.9409 6.4876 40.7049C6.72423 40.4688 6.88198 40.0753 7.1186 39.8393C7.19748 39.7606 7.1186 39.7606 7.1186 39.6819C7.4341 39.2884 7.67073 38.8163 7.82848 38.4228C8.14398 37.6359 8.30173 36.6916 8.30173 35.826C8.30173 34.9604 8.06511 34.0161 7.51298 33.3866C7.27635 33.0718 6.88198 32.8357 6.56648 32.521C6.32985 32.3636 6.09323 32.2062 5.77773 32.2062V32.1275C5.69885 32.0488 5.69885 32.1275 5.61998 32.1275C5.46223 32.2849 5.30448 32.4423 5.2256 32.6783C5.2256 32.8357 5.2256 32.9144 5.30448 33.0718C5.30448 33.1505 5.38335 33.1505 5.38335 33.2292C5.30448 33.1505 5.2256 33.3866 5.30448 33.4653C5.5411 33.6226 5.69885 33.3866 5.61998 33.1505C5.61998 33.0718 5.46223 32.9144 5.38335 32.8357C5.30448 32.6783 5.46223 32.521 5.5411 32.4423H5.61998C5.93548 32.4423 6.25098 32.6783 6.4876 32.9144C6.8031 33.1505 7.1186 33.3866 7.35523 33.78C7.59186 34.0948 7.67073 34.5669 7.82848 34.9604C7.90736 35.3538 7.98623 35.7473 7.98623 36.1408C7.98623 36.9277 7.82848 37.7146 7.51298 38.5015C7.19748 39.2884 6.64535 39.9179 6.1721 40.6262V40.7049C6.09323 40.7836 6.01435 40.8622 5.93548 40.9409C5.5411 41.3344 5.06785 41.8065 4.51572 41.9639C4.04247 42.1213 3.56922 42.1213 3.0171 42.1213C2.38609 42.1213 1.83397 41.9639 1.36072 41.5705C1.28184 41.4918 1.04522 41.5705 1.20297 41.7278C1.99172 42.4361 3.25372 42.5148 4.2791 42.2787C4.98898 42.2 5.46223 41.8065 5.8566 41.4131Z" fill="#BABE8E"/>
<path d="M19.423 39.0524C19.5019 39.0524 19.5019 39.0524 19.5807 39.0524H19.6596C19.8962 38.9737 20.054 38.8951 20.2906 38.7377C20.2906 38.7377 20.2906 38.7377 20.3695 38.7377C20.9216 38.3442 21.3949 37.7147 21.4737 37.0065C21.7104 35.59 21.0005 34.1736 19.9751 33.2293C18.8709 32.285 17.4511 31.3407 15.9525 31.1046C14.7693 30.8685 12.9552 30.7898 12.2453 31.9702C12.2453 31.9702 12.1665 31.9702 12.1665 31.8915C11.851 31.7341 11.5355 31.5768 11.2988 31.4194C11.1411 31.3407 8.69596 29.6095 7.98608 29.4521C7.74945 29.3734 7.51283 29.3734 7.19733 29.2947C7.19733 29.2947 7.19733 29.2947 7.2762 29.2947C7.51283 29.216 7.90721 29.0586 8.22271 29.0586C8.85371 29.1373 9.56358 29.0586 10.2735 29.216C10.589 29.2947 10.8256 29.2947 11.1411 29.216C11.2988 29.216 11.9298 29.1373 12.0876 29.1373C12.6397 29.1373 13.6651 29.2947 13.6651 29.2947C13.744 29.2947 13.8228 29.2947 13.9017 29.2947C13.9017 29.2947 13.9017 29.2947 13.9806 29.2947C14.5327 29.2947 15.0848 29.1373 15.637 28.9799H15.7158C16.0313 28.8226 16.3468 28.7439 16.7412 28.5865C16.899 28.5078 17.0567 28.4291 17.2145 28.4291C17.2145 28.4291 17.2145 28.4291 17.2934 28.4291C17.53 28.3504 17.6877 28.2717 17.9244 28.193C18.161 28.0356 18.4765 27.957 18.7131 27.8783C18.7131 27.8783 18.792 27.8783 18.8709 27.7996C19.0286 27.7209 19.1864 27.7209 19.3441 27.6422H19.423C19.5807 27.5635 19.8174 27.5635 19.9751 27.4848C20.054 27.4848 20.2117 27.4061 20.2906 27.4061C20.6061 27.3274 21.0005 27.3274 21.316 27.3274H21.3949C21.7104 27.3274 22.0259 27.3274 22.3414 27.3274H22.4202C22.6569 27.3274 22.8935 27.3274 23.1301 27.3274C23.6822 27.3274 24.1555 27.4848 24.7076 27.5635C24.8654 27.5635 25.0231 27.5635 25.1809 27.5635C25.1809 27.5635 25.1809 27.5635 25.2597 27.5635C25.5752 27.6422 25.9696 27.7209 26.2851 27.7996C26.364 27.7996 26.4429 27.7209 26.364 27.7209C26.364 27.7209 26.364 27.7209 26.2851 27.7209C26.2851 27.7209 26.2062 27.7209 26.2062 27.6422C26.2062 27.6422 26.1274 27.6422 26.1274 27.5635C25.4964 27.0914 24.8654 26.5405 24.2344 25.9897C23.7611 25.5962 23.3667 25.2814 22.8935 24.888C22.7357 24.7306 22.4991 24.6519 22.3414 24.4945C21.7104 24.1798 21.0794 24.0224 20.3695 23.865C20.2117 23.865 20.054 23.865 19.8962 23.7863H19.8174C19.2652 23.7076 18.7131 23.7076 18.161 23.7863C17.8455 23.7863 17.53 23.865 17.2145 23.9437H17.1356C16.7412 24.0224 16.4257 24.1798 16.0313 24.2585C15.3215 24.5732 14.5327 24.8093 13.8228 25.1241C13.113 25.4388 12.482 25.911 11.7721 26.3044C11.0622 26.7766 10.4312 27.17 9.72133 27.6422C9.01146 28.1143 8.22271 28.5865 7.43395 28.9799C7.11845 29.0586 6.88183 29.216 6.56633 29.216H6.48745C6.40858 29.216 6.3297 29.216 6.25083 29.216C6.0142 29.2947 5.85645 29.3734 5.61982 29.4521C5.22545 29.6095 3.41132 30.7898 2.93807 31.0259H2.85919C2.70144 31.1046 2.78032 31.262 2.85919 31.3407C1.83382 32.5211 2.70144 31.8128 2.70144 31.8128C2.85919 31.7341 4.27895 30.7898 5.0677 30.239C5.14657 30.239 5.22545 30.1603 5.22545 30.1603C5.61982 30.0029 6.09308 29.8455 6.48745 29.6882C6.72408 29.6095 6.88183 29.5308 7.11845 29.4521C7.43395 29.4521 7.74945 29.5308 7.98608 29.6095C8.06496 29.6882 8.14383 29.6882 8.30158 29.7669C8.53821 29.9242 8.77483 30.0816 8.93258 30.1603C9.32696 30.3964 9.72133 30.6325 10.1157 30.8685C10.5101 31.1046 10.8256 31.4194 11.1411 31.7341C11.3777 31.9702 11.6143 32.2063 11.851 32.4424C11.851 32.5211 11.7721 32.5997 11.7721 32.5997C11.3777 33.2293 11.3777 34.0949 11.6143 34.7244C11.6143 34.8031 11.6932 34.8818 11.6932 34.9605C11.9298 35.5113 12.3242 35.9835 12.7975 36.3769C12.8763 36.5343 13.0341 36.613 13.113 36.6917C13.9017 37.4786 14.8482 37.8721 15.7947 38.1868C15.9525 38.2655 16.1102 38.3442 16.268 38.3442C16.4257 38.4229 16.5835 38.4229 16.7412 38.5016C17.3722 38.7377 18.0032 38.8951 18.6342 38.8951C18.7131 38.8951 18.792 38.8951 18.8709 38.8951C19.0286 39.1311 19.2652 39.1311 19.423 39.0524ZM9.09033 28.8226C9.01146 28.8226 8.93258 28.8226 8.85371 28.8226C8.85371 28.7439 8.93258 28.6652 9.01146 28.5865C9.09033 28.5865 9.09033 28.5865 9.16921 28.5078C9.16921 28.5078 9.16921 28.5078 9.16921 28.5865C9.16921 28.5865 9.16921 28.5865 9.16921 28.6652V28.7439C9.16921 28.8226 9.24808 28.8226 9.32696 28.7439C9.32696 28.7439 9.32696 28.7439 9.32696 28.8226C9.24808 28.9013 9.16921 28.8226 9.09033 28.8226ZM9.95796 28.9013C9.80021 28.9013 9.64246 28.9013 9.56358 28.9013C9.56358 28.8226 9.48471 28.7439 9.40583 28.6652V28.5865V28.5078C9.48471 28.5078 9.56358 28.4291 9.64246 28.4291V28.5078C9.64246 28.5865 9.56358 28.5865 9.56358 28.6652C9.56358 28.7439 9.48471 28.8226 9.48471 28.8226C9.48471 28.9013 9.64246 28.9013 9.64246 28.8226C9.64246 28.7439 9.72133 28.7439 9.72133 28.6652V28.5865C9.80021 28.6652 9.87908 28.7439 9.87908 28.7439L10.0368 28.6652C9.95796 28.5865 9.87908 28.5078 9.80021 28.3504C9.80021 28.2717 9.87908 28.2717 9.95796 28.193C10.0368 28.2717 10.1157 28.3504 10.1946 28.5078C10.1157 28.5865 10.1157 28.6652 10.1157 28.7439C10.1157 28.8226 10.2735 28.7439 10.2735 28.6652C10.2735 28.5865 10.2735 28.5865 10.2735 28.5078C10.3523 28.5865 10.4312 28.6652 10.4312 28.7439C10.3523 28.9013 10.1157 28.9013 9.95796 28.9013ZM12.4031 27.3274C12.482 27.2487 12.5608 27.2487 12.5608 27.2487C12.5608 27.3274 12.6397 27.4061 12.6397 27.4848C12.5608 27.6422 12.5608 27.7996 12.5608 27.8783C12.482 27.7209 12.4031 27.5635 12.3242 27.4848C12.3242 27.4061 12.3242 27.4061 12.4031 27.3274ZM12.1665 27.4061C12.2453 27.4061 12.2453 27.4061 12.1665 27.4061V27.4061ZM17.9244 25.2814H18.0032C18.0032 25.2814 18.0032 25.2814 18.0032 25.3601C18.0032 25.4388 18.0032 25.4388 17.9244 25.5175C17.9244 25.5962 17.8455 25.6749 17.8455 25.7536C17.7666 25.5962 17.7666 25.5175 17.6877 25.3601H17.7666C17.8455 25.2814 17.9244 25.2814 17.9244 25.2814ZM22.2625 25.9897C22.1836 26.0684 22.1836 26.1471 22.1836 26.1471C22.1047 26.0684 22.1047 25.9897 22.0259 25.911C22.0259 25.8323 22.1047 25.8323 22.1836 25.7536C22.1836 25.7536 22.1836 25.7536 22.1836 25.8323C22.1836 25.911 22.1836 25.911 22.2625 25.9897ZM22.3414 25.8323C22.4202 25.911 22.4202 25.911 22.3414 25.8323V25.8323ZM23.3667 26.5405C23.2879 26.4618 23.209 26.3044 23.1301 26.2257C23.209 26.2257 23.2879 26.3044 23.3667 26.3044C23.4456 26.3044 23.4456 26.3831 23.5245 26.3831C23.4456 26.4618 23.4456 26.5405 23.3667 26.5405ZM23.6034 26.4618C23.6822 26.5405 23.6822 26.5405 23.7611 26.6192C23.6822 26.6979 23.6822 26.7766 23.6034 26.7766C23.6034 26.6979 23.5245 26.6192 23.4456 26.6192C23.4456 26.6192 23.4456 26.6192 23.4456 26.5405C23.5245 26.5405 23.5245 26.5405 23.6034 26.4618ZM22.9724 26.3044C22.8935 26.3831 22.8935 26.4618 22.8146 26.5405C22.7357 26.4618 22.6569 26.3831 22.6569 26.3044L22.7357 26.2257C22.7357 26.2257 22.8146 26.2257 22.8146 26.1471C22.8146 26.0684 22.6569 26.1471 22.6569 26.1471C22.6569 26.1471 22.6569 26.2257 22.578 26.2257C22.4991 26.1471 22.4991 26.0684 22.4202 26.0684L22.4991 25.9897C22.578 25.9897 22.6569 26.0684 22.7357 26.1471C22.8146 26.1471 22.8935 26.2257 22.9724 26.3044ZM22.4991 26.3044C22.4202 26.3831 22.4202 26.4618 22.3414 26.4618C22.2625 26.3831 22.2625 26.3044 22.1836 26.2257C22.2625 26.1471 22.2625 26.1471 22.3414 26.0684C22.4202 26.1471 22.4202 26.2257 22.4991 26.3044ZM16.9778 26.2257C16.9778 26.1471 17.0567 26.0684 17.0567 25.9897C17.0567 25.911 17.0567 25.7536 17.1356 25.5962C17.1356 25.6749 17.2145 25.7536 17.2145 25.8323C17.2145 25.8323 17.2145 25.911 17.2934 25.911C17.2145 25.9897 17.2145 26.0684 17.1356 26.1471C17.1356 26.2257 17.0567 26.2257 17.0567 26.3044C16.9779 26.3044 16.9778 26.2257 16.9778 26.2257ZM16.6623 26.6979C16.5835 26.6192 16.5046 26.4618 16.5046 26.3831C16.5046 26.3044 16.5046 26.3044 16.5835 26.2257C16.5835 26.1471 16.6623 26.0684 16.6623 25.9897C16.7412 26.0684 16.8201 26.2257 16.899 26.3044C16.7412 26.3831 16.7412 26.5405 16.6623 26.6979ZM20.2906 26.1471C20.2906 26.1471 20.2906 26.0684 20.3695 26.0684C20.6061 26.3831 20.7639 26.6979 21.0005 27.0127C20.8427 27.0127 20.7639 27.0127 20.6061 27.0914C20.3695 26.7766 20.2117 26.5405 19.9751 26.2257C20.054 26.1471 20.1329 25.9897 20.2117 25.911C20.2117 25.9897 20.2906 25.9897 20.2906 26.0684C20.2117 26.1471 20.054 26.2257 20.1329 26.3044C20.2117 26.2257 20.2906 26.1471 20.2906 26.1471ZM18.6342 26.3044V26.2257C18.6342 26.2257 18.6342 26.2257 18.6342 26.3044C18.9497 26.5405 19.1864 26.934 19.5019 27.2487C19.423 27.2487 19.2652 27.3274 19.1864 27.3274C18.9497 27.0127 18.6342 26.6979 18.3976 26.3044C18.3187 26.2257 18.3187 26.1471 18.2399 26.0684C18.3187 25.9897 18.3187 25.8323 18.3976 25.7536C18.4765 25.8323 18.4765 25.911 18.5554 25.9897C18.5554 26.0684 18.4765 26.1471 18.4765 26.2257C18.4765 26.4618 18.6342 26.3831 18.6342 26.3044ZM20.3695 27.0127C20.2906 27.0127 20.2117 27.0127 20.1329 27.0914C20.054 27.0127 19.9751 26.934 19.8962 26.8553C19.7385 26.6979 19.6596 26.4618 19.5019 26.3044C19.5019 26.2257 19.423 26.2257 19.423 26.2257H19.5019C19.5019 26.1471 19.5807 26.0684 19.5807 25.9897C19.6596 26.0684 19.7385 26.1471 19.8174 26.3044C19.9751 26.4618 20.2117 26.7766 20.3695 27.0127ZM20.3695 25.6749C20.4484 25.5962 20.5272 25.5175 20.5272 25.5175C20.6061 25.5962 20.6061 25.6749 20.685 25.6749C20.6061 25.7536 20.5272 25.7536 20.4484 25.8323C20.4484 25.8323 20.3695 25.7536 20.3695 25.6749ZM19.8962 26.0684C19.8174 25.9897 19.7385 25.911 19.6596 25.8323C19.7385 25.7536 19.8174 25.6749 19.8962 25.5962L19.9751 25.5175C20.054 25.5962 20.1329 25.6749 20.1329 25.7536C20.054 25.8323 19.9751 25.911 19.8962 26.0684ZM19.5019 25.8323C19.423 25.911 19.423 25.9897 19.3441 26.0684L19.2652 25.9897C19.3441 25.911 19.3441 25.8323 19.423 25.6749C19.423 25.7536 19.5019 25.8323 19.5019 25.8323ZM19.1075 26.0684C19.1075 26.1471 19.0286 26.2257 19.0286 26.3044C18.9497 26.3831 19.1075 26.3831 19.1864 26.3044L19.2652 26.2257C19.3441 26.3044 19.3441 26.3831 19.423 26.4618C19.5807 26.6192 19.6596 26.8553 19.8174 27.0127C19.8174 27.0127 19.8962 27.0914 19.9751 27.17H19.8962C19.8174 27.17 19.7385 27.2487 19.5807 27.2487C19.2652 26.8553 18.9497 26.5405 18.6342 26.1471C18.6342 26.1471 18.6342 26.1471 18.6342 26.0684C18.7131 25.9897 18.7131 25.911 18.792 25.8323C18.792 25.8323 18.792 25.7536 18.8709 25.7536C18.9497 25.8323 19.0286 25.911 19.1075 26.0684ZM18.6342 25.8323L18.5554 25.911C18.4765 25.8323 18.4765 25.7536 18.3976 25.5962C18.4765 25.5175 18.4765 25.4388 18.5554 25.2814C18.6342 25.3601 18.7131 25.4388 18.792 25.5175C18.792 25.6749 18.7131 25.7536 18.6342 25.8323ZM18.3187 25.6749C18.3187 25.7536 18.2399 25.8323 18.2399 25.911C18.2399 25.9897 18.161 25.9897 18.161 26.0684C18.0821 25.9897 18.0821 25.911 18.0032 25.8323V25.7536C18.0821 25.6749 18.0821 25.5962 18.161 25.4388C18.161 25.5175 18.2399 25.5962 18.3187 25.6749ZM17.8455 25.8323C17.7666 25.9897 17.6877 26.1471 17.6877 26.3044C17.6089 26.1471 17.53 25.9897 17.4511 25.911C17.53 25.7536 17.6089 25.5962 17.6877 25.4388C17.6877 25.5962 17.7666 25.6749 17.8455 25.8323ZM17.2934 26.0684C17.2934 26.1471 17.3722 26.1471 17.3722 26.2257C17.53 26.4618 17.6089 26.6192 17.7666 26.8553C17.9244 27.0914 18.161 27.3274 18.3187 27.5635C18.2399 27.5635 18.161 27.6422 18.0032 27.6422C17.6877 27.3274 17.4511 26.934 17.2145 26.6192C17.1356 26.5405 17.1356 26.4618 17.0567 26.3831C17.1356 26.3044 17.2145 26.1471 17.2934 26.0684ZM17.7666 26.5405C17.7666 26.4618 17.6877 26.4618 17.6877 26.3831C17.6877 26.3831 17.7666 26.3831 17.7666 26.3044C17.7666 26.1471 17.8455 25.9897 17.8455 25.911C17.8455 25.911 17.8455 25.9897 17.9244 25.9897C17.9244 26.0684 18.0032 26.0684 18.0032 26.1471C17.9244 26.2257 17.9244 26.3831 17.9244 26.4618C17.9244 26.5405 18.0821 26.4618 18.0821 26.3831C18.0821 26.3044 18.0821 26.3044 18.0821 26.2257C18.161 26.3044 18.161 26.3831 18.2399 26.4618C18.4765 26.7766 18.7131 27.0127 18.9497 27.3274C18.792 27.4061 18.6342 27.4061 18.5554 27.4848C18.2399 27.17 18.0032 26.8553 17.7666 26.5405ZM21.1582 26.934C20.9216 26.6192 20.685 26.3044 20.5272 25.911C20.5272 25.911 20.6061 25.911 20.6061 25.8323C20.685 25.8323 20.685 25.7536 20.7639 25.7536C20.8427 25.911 20.9216 25.9897 21.0005 26.1471C21.0005 26.1471 21.0005 26.2257 20.9216 26.2257C20.8427 26.3044 21.0005 26.2257 21.0005 26.2257C21.1582 26.4618 21.316 26.6979 21.4737 26.934C21.3949 26.934 21.2371 26.934 21.1582 26.934ZM21.1582 26.1471C21.1582 25.9897 21.2371 25.911 21.316 25.8323L21.3949 25.911C21.3949 25.9897 21.4737 25.9897 21.4737 26.0684C21.3949 26.1471 21.3949 26.2257 21.316 26.3044C21.1582 26.2257 21.1582 26.1471 21.1582 26.1471ZM21.5526 25.9897C21.6315 25.911 21.6315 25.8323 21.7104 25.7536C21.7892 25.8323 21.7892 25.911 21.8681 25.9897C21.7892 26.0684 21.7892 26.1471 21.7104 26.2257C21.7104 26.2257 21.7104 26.2257 21.7104 26.1471C21.6315 26.0684 21.5526 26.0684 21.5526 25.9897ZM21.947 25.8323C21.947 25.7536 21.8681 25.7536 21.8681 25.6749C21.8681 25.6749 21.8681 25.6749 21.947 25.6749C22.0259 25.6749 22.0259 25.6749 22.1047 25.7536C22.0259 25.7536 21.947 25.8323 21.947 25.8323ZM21.7104 25.7536C21.6315 25.8323 21.5526 25.8323 21.5526 25.911C21.4737 25.8323 21.4737 25.7536 21.3949 25.6749L21.4737 25.5962H21.5526C21.6315 25.5962 21.6315 25.5962 21.7104 25.5962C21.6315 25.5962 21.6315 25.6749 21.7104 25.7536C21.6315 25.6749 21.6315 25.6749 21.7104 25.7536ZM21.316 25.5962L21.2371 25.5175C21.316 25.5175 21.316 25.5175 21.316 25.5962ZM21.2371 25.7536C21.1582 25.8323 21.1582 25.911 21.0794 25.9897C21.0005 25.911 20.9216 25.7536 20.8427 25.6749L20.9216 25.5962H21.0005C21.0794 25.5962 21.1582 25.6749 21.2371 25.7536ZM20.7639 25.5962C20.685 25.5175 20.685 25.4388 20.6061 25.4388C20.685 25.4388 20.7639 25.4388 20.9216 25.4388C20.8427 25.5175 20.8427 25.5175 20.7639 25.5962ZM20.2906 25.5962C20.2117 25.5175 20.2117 25.4388 20.1329 25.3601C20.2117 25.3601 20.3695 25.3601 20.4484 25.3601C20.3695 25.5175 20.3695 25.5175 20.2906 25.5962ZM19.9751 25.4388C19.8962 25.5175 19.7385 25.5962 19.6596 25.6749C19.6596 25.5962 19.5807 25.5962 19.5807 25.5175L19.6596 25.4388C19.6596 25.4388 19.7385 25.4388 19.7385 25.3601V25.2814C19.8174 25.2814 19.8174 25.2814 19.8962 25.2814C19.8962 25.3601 19.8962 25.3601 19.9751 25.4388ZM19.423 25.4388C19.3441 25.3601 19.3441 25.2814 19.2652 25.2814C19.3441 25.2814 19.423 25.2814 19.5019 25.2814C19.5807 25.3601 19.5019 25.3601 19.423 25.4388ZM19.3441 25.5962C19.2652 25.6749 19.2652 25.7536 19.1864 25.911C19.1075 25.8323 19.0286 25.6749 18.9497 25.5962C19.0286 25.5175 19.0286 25.3601 19.1075 25.2814C19.1864 25.3601 19.2652 25.5175 19.3441 25.5962ZM18.8709 25.4388C18.792 25.3601 18.7131 25.2814 18.7131 25.2028C18.792 25.2028 18.9497 25.2028 19.0286 25.2028C18.9497 25.2814 18.9497 25.3601 18.8709 25.4388ZM18.3976 25.5175C18.3187 25.4388 18.2399 25.3601 18.2399 25.2814C18.3187 25.2814 18.3976 25.2814 18.4765 25.2814H18.5554C18.4765 25.2814 18.3976 25.3601 18.3976 25.5175ZM17.53 25.3601C17.4511 25.5175 17.3722 25.6749 17.2934 25.8323C17.2145 25.7536 17.2145 25.6749 17.1356 25.5175C17.1356 25.5175 17.1356 25.5175 17.1356 25.4388C17.2934 25.3601 17.3722 25.3601 17.53 25.3601ZM16.9778 25.4388C16.9778 25.5175 17.0567 25.5175 16.9778 25.4388C16.899 25.5962 16.899 25.7536 16.8201 25.911V25.9897C16.7412 25.911 16.7412 25.8323 16.6623 25.6749C16.6623 25.5962 16.7412 25.5175 16.7412 25.5175H16.8201C16.899 25.5175 16.899 25.4388 16.9778 25.4388ZM16.5046 25.7536C16.4257 25.911 16.4257 26.0684 16.3468 26.1471C16.3468 26.0684 16.268 26.0684 16.268 25.9897C16.268 25.9897 16.268 25.911 16.1891 25.911C16.268 25.8323 16.3468 25.6749 16.268 25.5962H16.3468C16.4257 25.6749 16.5046 25.7536 16.5046 25.7536ZM16.1102 25.8323C16.1102 25.7536 16.1102 25.7536 16.1102 25.7536H16.1891C16.1891 25.7536 16.1102 25.7536 16.1102 25.8323ZM16.0313 25.9897C15.9525 26.1471 15.7947 26.3831 15.7947 26.3831C15.7158 26.3044 15.7158 26.2257 15.637 26.1471C15.637 26.1471 15.637 26.1471 15.637 26.0684C15.637 25.9897 15.7158 25.911 15.7158 25.8323C15.7947 25.8323 15.8736 25.7536 15.9525 25.7536C15.9525 25.8323 15.9525 25.911 16.0313 25.9897ZM15.637 26.6192C15.5581 26.7766 15.5581 26.934 15.4792 27.0914C15.4003 27.0127 15.3215 26.8553 15.3215 26.7766C15.3215 26.6979 15.4003 26.6192 15.4003 26.6192C15.4003 26.5405 15.4792 26.4618 15.4792 26.3831C15.4792 26.3831 15.4792 26.4618 15.5581 26.4618C15.5581 26.4618 15.637 26.5405 15.637 26.6192ZM15.4792 25.9897C15.4792 25.911 15.4792 25.911 15.4792 25.911C15.5581 25.9897 15.4792 25.9897 15.4792 25.9897ZM15.4003 26.1471C15.3215 26.3044 15.2426 26.4618 15.2426 26.5405C15.1637 26.3831 15.0848 26.3044 15.006 26.1471C15.006 26.0684 15.006 26.0684 15.006 25.9897C15.0848 25.9897 15.1637 25.911 15.3215 25.911C15.3215 26.0684 15.4003 26.1471 15.4003 26.1471ZM14.7693 26.2257C14.7693 26.2257 14.7693 26.3044 14.8482 26.3044C14.8482 26.3831 14.8482 26.4618 14.7693 26.5405C14.7693 26.6192 14.6905 26.6979 14.6905 26.7766C14.6116 26.6979 14.5327 26.6192 14.5327 26.5405C14.5327 26.4618 14.5327 26.4618 14.5327 26.3831C14.6116 26.3831 14.6116 26.3044 14.6905 26.3044C14.6905 26.2257 14.6905 26.2257 14.7693 26.2257ZM14.2172 26.4618C14.2172 26.5405 14.1383 26.6979 14.1383 26.7766C14.1383 26.8553 14.1383 26.8553 14.1383 26.934C14.0595 26.8553 14.0595 26.7766 13.9806 26.6979C13.9806 26.6192 13.9806 26.6192 14.0595 26.5405C14.0595 26.5405 14.0595 26.5405 14.0595 26.4618C14.1383 26.4618 14.1383 26.4618 14.2172 26.4618ZM13.8228 26.6979C13.8228 26.6979 13.8228 26.7766 13.9017 26.7766C13.8228 26.934 13.8228 27.0127 13.744 27.17C13.6651 27.0914 13.6651 27.0127 13.5862 26.8553V26.7766H13.6651C13.6651 26.6979 13.6651 26.6979 13.8228 26.6979C13.744 26.6979 13.744 26.6979 13.8228 26.6979ZM13.2707 27.4848C13.2707 27.4061 13.3496 27.3274 13.3496 27.3274C13.3496 27.2487 13.4285 27.17 13.4285 27.0914C13.5073 27.17 13.5073 27.2487 13.5862 27.3274C13.5073 27.4061 13.4285 27.5635 13.4285 27.7209C13.3496 27.6422 13.2707 27.5635 13.2707 27.4848ZM13.0341 27.6422C13.0341 27.7209 13.0341 27.7996 13.0341 27.8783C12.9552 27.7209 12.8763 27.6422 12.7975 27.4848C12.7975 27.4061 12.8763 27.3274 12.9552 27.2487C13.0341 27.3274 13.113 27.4848 13.113 27.5635C13.113 27.5635 13.0341 27.5635 13.0341 27.6422ZM13.3496 26.8553C13.2707 26.934 13.1918 27.17 13.1918 27.2487C13.1918 27.17 13.113 27.0127 13.0341 27.0127C13.113 27.0127 13.1918 26.934 13.3496 26.8553ZM12.7186 27.2487C12.6397 27.17 12.6397 27.17 12.7186 27.2487C12.7186 27.17 12.7186 27.17 12.7975 27.17C12.7186 27.17 12.7186 27.2487 12.7186 27.2487ZM12.0876 27.5635C12.0876 27.6422 12.0087 27.7209 12.0087 27.7209C11.9298 27.7996 11.9298 27.8783 11.851 28.0356C11.7721 27.957 11.7721 27.8783 11.6932 27.7996C11.7721 27.7209 11.7721 27.5635 11.851 27.4848H11.9298C12.0876 27.4848 12.0876 27.4848 12.0876 27.5635ZM11.5355 28.2717C11.5355 28.193 11.6143 28.193 11.6143 28.1143V28.0356C11.6932 28.1143 11.6932 28.1143 11.7721 28.193C11.6932 28.2717 11.6932 28.3504 11.6143 28.3504C11.6143 28.3504 11.6143 28.2717 11.5355 28.2717ZM11.3777 28.3504C11.3777 28.4291 11.2988 28.5078 11.2988 28.5078C11.22 28.4291 11.1411 28.3504 11.0622 28.2717C11.0622 28.193 11.1411 28.193 11.1411 28.1143C11.2988 28.193 11.2988 28.2717 11.3777 28.3504ZM11.6932 27.7209C11.6143 27.7209 11.6143 27.6422 11.6143 27.6422C11.5355 27.6422 11.4566 27.7209 11.4566 27.7209C11.5355 27.7209 11.6143 27.7996 11.6143 27.8783C11.6143 27.957 11.5355 28.0356 11.5355 28.1143C11.4566 28.0356 11.3777 27.957 11.2988 27.8783C11.3777 27.7996 11.3777 27.7209 11.4566 27.6422C11.6143 27.5635 11.6932 27.5635 11.851 27.4848C11.6932 27.6422 11.6932 27.6422 11.6932 27.7209ZM11.22 27.8783C11.1411 27.8783 11.0622 27.957 11.1411 27.957L11.0622 28.0356V28.1143C10.9833 28.0356 10.9045 27.957 10.8256 27.8783C10.9833 27.7996 11.1411 27.7996 11.2988 27.7209C11.22 27.7996 11.22 27.7996 11.22 27.8783ZM10.9833 28.2717C10.9833 28.3504 10.9045 28.3504 10.9045 28.4291C10.8256 28.3504 10.7467 28.193 10.6678 28.1143C10.6678 28.0356 10.7467 28.0356 10.7467 27.957C10.7467 28.1143 10.8256 28.193 10.9833 28.2717ZM10.3523 28.1143C10.3523 28.193 10.4312 28.193 10.4312 28.193C10.4312 28.2717 10.3523 28.3504 10.3523 28.4291L10.1946 28.193C10.1946 28.1143 10.2735 28.1143 10.3523 28.1143ZM11.1411 28.9799C11.0622 28.9799 10.9833 28.9799 10.9045 28.9799C10.8256 28.9799 10.7467 28.9799 10.7467 28.9799C10.6678 28.8226 10.589 28.7439 10.4312 28.5865C10.4312 28.5078 10.5101 28.5078 10.5101 28.4291V28.3504C10.6678 28.5865 10.8256 28.7439 10.9833 28.9799C10.9833 29.0586 11.1411 28.9799 11.1411 28.9013C11.0622 28.8226 10.9833 28.7439 10.9045 28.6652C10.9045 28.6652 10.9045 28.6652 10.9833 28.6652C10.9833 28.6652 10.9833 28.5865 11.0622 28.5865C11.22 28.7439 11.2988 28.9013 11.4566 29.0586C11.3777 28.9013 11.22 28.9799 11.1411 28.9799ZM11.6143 28.9013C11.5355 28.8226 11.4566 28.6652 11.3777 28.5865C11.4566 28.5078 11.4566 28.5078 11.5355 28.4291C11.6932 28.5865 11.7721 28.7439 11.9298 28.9013C11.7721 28.9013 11.6932 28.9013 11.6143 28.9013ZM12.0876 28.9013C11.9298 28.7439 11.851 28.5865 11.6932 28.5078C11.7721 28.4291 11.7721 28.4291 11.851 28.3504C12.0087 28.5865 12.1665 28.7439 12.3242 28.9799C12.2453 28.9013 12.1665 28.9013 12.0876 28.9013ZM12.5608 28.9013C12.3242 28.6652 12.1665 28.4291 11.9298 28.193C12.0087 28.1143 12.0087 28.0356 12.0087 27.957C12.0876 27.8783 12.0876 27.7996 12.1665 27.6422C12.1665 27.7209 12.2453 27.7209 12.2453 27.7209C12.3242 27.8783 12.4031 27.957 12.5608 28.1143C12.7975 28.3504 12.9552 28.5865 13.113 28.8226C12.9552 28.9013 12.7975 28.9013 12.5608 28.9013ZM13.3496 28.9013C13.113 28.5865 12.8763 28.3504 12.6397 28.0356C12.6397 28.0356 12.6397 28.0356 12.6397 27.957C12.6397 27.8783 12.6397 27.7209 12.6397 27.6422C12.7975 27.8783 12.9552 28.1143 13.113 28.3504C13.1918 28.4291 13.5073 28.7439 13.5862 28.9799C13.5862 28.9013 13.4285 28.9013 13.3496 28.9013ZM13.9017 28.9799C13.8228 28.9799 13.8228 28.9799 13.9017 28.9799C13.9017 28.8226 13.5073 28.4291 13.4285 28.3504C13.2707 28.193 13.1918 28.0356 13.113 27.8783C13.113 27.8783 13.1918 27.8783 13.1918 27.7996C13.1918 27.7209 13.1918 27.6422 13.2707 27.5635C13.3496 27.7209 13.5073 27.7996 13.5862 27.957C13.8228 28.3504 14.1383 28.6652 14.375 28.9799C14.1383 28.9799 13.9806 28.9799 13.9017 28.9799ZM14.4538 28.9799C14.1383 28.5865 13.9017 28.193 13.5862 27.8783V27.7996C13.5862 27.7209 13.5862 27.5635 13.6651 27.4848C13.744 27.6422 13.9017 27.7996 13.9806 27.957C14.2172 28.2717 14.4538 28.6652 14.7693 28.9799C14.6116 28.9013 14.5327 28.9799 14.4538 28.9799ZM15.3215 28.7439C15.1637 28.8226 15.006 28.8226 14.8482 28.8226C14.5327 28.5078 14.2961 28.1143 14.0595 27.7209C13.9806 27.5635 13.8228 27.4061 13.744 27.2487C13.8228 27.17 13.8228 27.0914 13.8228 27.0914C13.8228 27.0127 13.9017 27.0127 13.9017 26.934C13.9806 27.0127 13.9806 27.0914 14.0595 27.17C14.0595 27.2487 14.0595 27.4061 14.0595 27.4848C14.0595 27.5635 14.2172 27.4848 14.2172 27.4061C14.5327 27.8783 14.9271 28.3504 15.3215 28.7439ZM15.4792 28.7439C15.006 28.2717 14.6116 27.7209 14.2172 27.0914C14.2172 27.0127 14.2172 26.934 14.2961 26.7766C14.2961 26.6979 14.2961 26.5405 14.375 26.4618C14.375 26.5405 14.375 26.5405 14.4538 26.6192C14.5327 26.6979 14.5327 26.7766 14.6116 26.8553C14.5327 27.0127 14.4538 27.17 14.5327 27.4061C14.5327 27.4848 14.6905 27.4061 14.6905 27.3274C14.6905 27.17 14.6905 27.0914 14.6905 26.934C14.7693 27.0914 14.9271 27.3274 15.006 27.4848C15.2426 27.8783 15.5581 28.193 15.7947 28.5865C15.7158 28.6652 15.637 28.6652 15.4792 28.7439ZM15.9525 28.5865C15.637 28.193 15.3215 27.7996 15.006 27.3274C14.9271 27.17 14.8482 27.0127 14.6905 26.8553C14.6905 26.7766 14.7693 26.6979 14.7693 26.6192C14.7693 26.5405 14.8482 26.4618 14.8482 26.4618C14.9271 26.6192 15.006 26.6979 15.0848 26.8553C15.0848 26.934 15.0848 27.0914 15.0848 27.2487C15.0848 27.3274 15.2426 27.2487 15.2426 27.17C15.2426 27.0914 15.2426 27.0127 15.2426 26.8553C15.4003 27.0914 15.5581 27.2487 15.637 27.4848C15.7947 27.7209 15.9525 27.8783 16.0313 28.0356C16.1102 28.1143 16.1891 28.193 16.268 28.2717C16.1891 28.4291 16.1102 28.5078 15.9525 28.5865ZM16.899 28.193C16.7412 28.2717 16.6623 28.2717 16.5046 28.3504C16.3468 28.2717 16.1891 27.957 16.0313 27.7996C15.8736 27.6422 15.7947 27.4061 15.637 27.2487L15.5581 27.17C15.5581 27.17 15.637 27.17 15.637 27.0914C15.637 27.0127 15.7158 26.8553 15.7158 26.7766C15.7947 26.8553 15.8736 27.0127 15.9525 27.0914C16.268 27.4061 16.5835 27.7996 16.899 28.193ZM17.3722 27.957C17.2934 28.0356 17.1356 28.0356 17.0567 28.1143C16.7412 27.6422 16.3468 27.2487 16.0313 26.8553C15.9525 26.7766 15.9525 26.6979 15.8736 26.6192C15.9525 26.4618 16.0313 26.3044 16.1102 26.1471C16.1891 26.2257 16.268 26.3044 16.268 26.4618C16.1891 26.6192 16.1102 26.8553 16.1102 27.0127C16.1102 27.0914 16.268 27.0127 16.268 26.934C16.268 26.7766 16.3468 26.6979 16.3468 26.5405C16.3468 26.5405 16.3468 26.6192 16.4257 26.6192C16.4257 26.6979 16.5046 26.7766 16.5046 26.7766C16.5046 26.7766 16.5046 26.7766 16.4257 26.8553C16.3468 26.934 16.4257 26.8553 16.5046 26.8553C16.8201 27.2487 17.1356 27.6422 17.3722 27.957ZM17.9244 27.7209C17.7666 27.7996 17.6877 27.7996 17.53 27.8783C17.2145 27.4848 16.9779 27.17 16.6623 26.6979C16.7412 26.6192 16.8201 26.4618 16.8201 26.3044C16.8201 26.3831 16.899 26.3831 16.899 26.4618C16.899 26.5405 16.899 26.6192 16.899 26.6192H16.9778C16.9778 26.6192 16.9778 26.6192 16.9778 26.6979C17.3722 27.0914 17.6089 27.4061 17.9244 27.7209ZM21.6315 26.934C21.4737 26.7766 21.316 26.5405 21.2371 26.3831H21.316C21.3949 26.3044 21.3949 26.3044 21.4737 26.2257C21.5526 26.3044 21.5526 26.3831 21.6315 26.4618C21.7892 26.6192 21.8681 26.8553 22.0259 27.0127C21.8681 26.934 21.7892 26.934 21.6315 26.934ZM22.1836 26.934C22.0259 26.6979 21.8681 26.5405 21.7104 26.3044C21.7892 26.2257 21.7892 26.1471 21.8681 26.0684C21.947 26.1471 21.947 26.2257 22.0259 26.3044L21.947 26.3831C21.8681 26.4618 22.0259 26.4618 22.0259 26.4618C22.1047 26.6192 22.2625 26.8553 22.3414 27.0127C22.3414 26.934 22.2625 26.934 22.1836 26.934ZM22.6569 26.934C22.578 26.7766 22.4991 26.6979 22.4202 26.5405C22.4991 26.4618 22.4991 26.4618 22.578 26.3831C22.578 26.3831 22.578 26.4618 22.6569 26.4618C22.7357 26.5405 22.7357 26.6192 22.8146 26.6192C22.8146 26.6192 22.8146 26.6979 22.8935 26.6192C22.9724 26.6979 23.0512 26.7766 23.0512 26.8553C22.8935 26.934 22.7357 26.934 22.6569 26.934ZM23.1301 27.0127C23.0512 26.934 22.9724 26.7766 22.8935 26.6192C22.9724 26.5405 22.9724 26.4618 23.0512 26.3831C23.1301 26.4618 23.209 26.6192 23.2879 26.6979C23.2879 26.7766 23.209 26.7766 23.209 26.8553C23.1301 26.934 23.2879 26.8553 23.2879 26.8553C23.2879 26.8553 23.2879 26.8553 23.2879 26.7766C23.3667 26.8553 23.3667 26.934 23.4456 27.0127C23.3667 27.0127 23.2879 27.0127 23.1301 27.0127ZM23.6822 27.0127C23.6822 27.0127 23.6822 26.934 23.6034 26.934C23.6822 26.8553 23.6822 26.8553 23.7611 26.7766C23.84 26.8553 23.9977 27.0127 24.0766 27.17C23.9189 27.0914 23.84 27.0127 23.6822 27.0127ZM24.3132 27.0914C24.2344 26.934 24.0766 26.7766 23.9189 26.6192C24.0766 26.6979 24.1555 26.7766 24.3132 26.8553C24.3921 26.934 24.471 27.0914 24.5499 27.17C24.471 27.17 24.3921 27.17 24.3132 27.0914ZM24.1555 26.1471C24.6287 26.5405 25.102 26.8553 25.4964 27.2487C25.1809 27.17 24.9442 27.17 24.6287 27.17C24.5499 27.0127 24.471 26.8553 24.3132 26.7766H24.2344C23.9977 26.6192 23.7611 26.4618 23.4456 26.3831C23.209 26.3044 22.9724 26.1471 22.8146 26.0684C22.8146 26.0684 22.8146 25.9897 22.7357 25.9897H22.6569C22.6569 25.9897 22.578 25.9897 22.578 25.911C22.578 25.911 22.578 25.8323 22.4991 25.911C22.4202 25.911 22.3414 25.8323 22.2625 25.8323C22.3414 25.8323 22.3414 25.7536 22.4202 25.7536C22.6569 25.6749 22.8935 25.5962 23.1301 25.4388C23.5245 25.5962 23.84 25.911 24.1555 26.1471ZM22.8935 25.1241C22.8146 25.1241 22.8935 25.2028 22.8935 25.1241C22.9724 25.2028 23.0512 25.2814 23.1301 25.2814C22.9724 25.3601 22.8146 25.3601 22.7357 25.4388C22.6569 25.5175 22.4991 25.5175 22.4202 25.5962C22.4202 25.5962 22.3414 25.6749 22.2625 25.6749C22.1047 25.5962 21.8681 25.5175 21.7104 25.5175C21.7104 25.5175 21.7104 25.5175 21.7892 25.5175C21.947 25.4388 22.1836 25.3601 22.3414 25.3601C22.4202 25.3601 22.4202 25.3601 22.4991 25.2814C22.4991 25.2028 22.8146 25.1241 22.8935 25.1241ZM22.578 24.888C22.6569 24.9667 22.7357 24.9667 22.8146 25.0454C22.578 25.0454 22.3414 25.2028 22.1047 25.2028C21.947 25.2028 21.8681 25.2814 21.7104 25.3601C21.7104 25.3601 21.7104 25.3601 21.6315 25.4388H21.5526C21.4737 25.4388 21.3949 25.4388 21.316 25.3601C21.6315 25.1241 22.1047 24.9667 22.578 24.888ZM22.2625 24.6519C22.3414 24.7306 22.4202 24.7306 22.4991 24.8093C22.0259 24.888 21.5526 25.0454 21.2371 25.2814H21.1582C21.0794 25.2814 21.0005 25.2814 20.9216 25.2814H20.8427C21.0005 25.1241 21.2371 25.0454 21.4737 24.9667C21.7104 24.8093 21.947 24.7306 22.1836 24.6519C22.1047 24.6519 22.1047 24.6519 22.2625 24.6519C22.1836 24.6519 22.1836 24.6519 22.2625 24.6519ZM21.7104 24.4158C21.2371 24.6519 20.8427 24.888 20.3695 25.2814C20.2906 25.3601 20.4484 25.2814 20.4484 25.2814C20.8427 24.888 21.316 24.6519 21.7104 24.4158C21.8681 24.4945 22.0259 24.5732 22.1047 24.5732C21.8681 24.6519 21.6315 24.7306 21.4737 24.888C21.2371 25.0454 21.0005 25.1241 20.7639 25.2814C20.6061 25.2814 20.4484 25.2814 20.2906 25.2028C20.2906 25.2028 20.2906 25.2028 20.2117 25.2028C20.1329 25.2028 20.054 25.2028 19.8962 25.2028C20.3695 24.8093 20.8427 24.4945 21.3949 24.2585C21.4737 24.3372 21.5526 24.3372 21.7104 24.4158ZM21.2371 24.2585C20.685 24.4945 20.1329 24.8093 19.6596 25.2028C19.5019 25.2028 19.3441 25.2028 19.1864 25.1241C19.1864 25.1241 19.1864 25.1241 19.1075 25.1241C19.423 24.8093 19.7385 24.5732 20.1329 24.4158C20.2906 24.3372 20.5272 24.2585 20.685 24.1011C20.9216 24.1011 21.0794 24.1798 21.2371 24.2585ZM20.1329 23.9437C20.2906 23.9437 20.5272 24.0224 20.685 24.0224C20.4484 24.1798 20.1329 24.2585 19.8962 24.4158C19.5807 24.6519 19.3441 24.8093 19.0286 25.0454C18.8709 25.0454 18.792 25.0454 18.6342 25.0454C18.5554 25.0454 18.4765 25.0454 18.4765 25.0454C18.6342 24.9667 18.7131 24.8093 18.8709 24.6519C19.0286 24.5732 19.1864 24.4158 19.3441 24.3372C19.5807 24.2585 19.8174 24.1011 20.1329 23.9437ZM20.054 23.9437C19.7385 24.1798 19.423 24.3372 19.1075 24.4945C18.9497 24.5732 18.8709 24.6519 18.7131 24.8093C18.6342 24.888 18.4765 25.0454 18.3976 25.1241H18.3187H18.2399H18.161C18.2399 24.9667 18.3976 24.888 18.5554 24.7306C18.7131 24.5732 18.8709 24.4945 19.1075 24.3372C19.3441 24.1798 19.5807 24.0224 19.8174 23.865C19.7385 23.9437 19.8962 23.9437 20.054 23.9437ZM19.423 23.865C19.1864 24.0224 18.9497 24.1798 18.7131 24.3372C18.5554 24.4945 18.3187 24.6519 18.0821 24.8093C17.9244 24.9667 17.8455 25.0454 17.7666 25.2028H17.6877H17.6089H17.53C17.3722 25.2028 17.1356 25.2814 16.9778 25.3601C17.1356 25.2028 17.2145 25.0454 17.2934 24.888C17.4511 24.7306 17.6089 24.6519 17.7666 24.4945C18.0821 24.2585 18.3976 24.0224 18.792 23.865C18.792 23.865 18.8709 23.7863 18.792 23.7863C19.0286 23.865 19.2652 23.865 19.423 23.865ZM18.7131 23.865C18.3187 24.1011 18.0032 24.2585 17.6877 24.5732C17.53 24.7306 17.2934 24.888 17.1356 25.0454C17.0567 25.1241 16.9779 25.2814 16.8201 25.4388C16.7412 25.4388 16.5835 25.5175 16.5046 25.5175V25.4388L16.3468 25.5175H16.268C16.3468 25.3601 16.3468 25.2028 16.5046 25.1241C16.6623 24.9667 16.7412 24.8093 16.899 24.6519C17.2145 24.3372 17.6089 24.0224 18.0821 23.7863C18.2399 23.865 18.4765 23.865 18.7131 23.865ZM17.7666 23.865C17.8455 23.865 17.8455 23.865 17.9244 23.865C17.7666 23.9437 17.53 24.1011 17.3722 24.2585C17.2145 24.4158 17.0567 24.4945 16.899 24.6519C16.7412 24.8093 16.5046 25.0454 16.3468 25.2028C16.268 25.3601 16.1891 25.5175 16.1102 25.6749H16.0313C15.9525 25.6749 15.8736 25.7536 15.7158 25.7536C15.7158 25.7536 15.7158 25.7536 15.637 25.7536C15.7158 25.5175 15.7947 25.2814 15.9525 25.1241C16.0313 25.0454 16.1102 24.888 16.1891 24.8093C16.4257 24.4945 16.7412 24.2585 16.9778 23.9437C17.2934 23.9437 17.53 23.865 17.7666 23.865ZM13.9806 25.1241C14.4538 24.888 14.9271 24.7306 15.4003 24.5732C15.8736 24.4158 16.3468 24.1798 16.899 24.1011C16.6623 24.3372 16.3468 24.6519 16.1102 24.9667C16.0313 25.1241 15.8736 25.2814 15.7947 25.4388C15.7158 25.5962 15.637 25.7536 15.5581 25.911C15.5581 25.911 15.4792 25.911 15.4792 25.9897C15.4003 25.9897 15.4003 25.9897 15.3215 26.0684C15.2426 26.0684 15.1637 26.1471 15.1637 26.1471C15.2426 25.9897 15.3215 25.911 15.4003 25.7536C15.4792 25.5962 15.637 25.4388 15.7158 25.2814C15.7947 25.1241 15.8736 24.9667 16.0313 24.8093C16.1102 24.7306 16.1102 24.7306 16.1891 24.6519C16.1891 24.5732 16.1102 24.5732 16.1102 24.5732V24.6519C16.0313 24.7306 15.8736 24.888 15.8736 24.9667C15.7947 25.1241 15.7158 25.2028 15.637 25.3601C15.4792 25.5962 15.3215 25.8323 15.2426 26.0684V26.1471C15.2426 26.1471 15.2426 26.1471 15.1637 26.1471C15.006 26.2257 14.9271 26.2257 14.8482 26.3044C14.8482 26.3044 14.9271 26.3044 14.9271 26.2257C14.9271 26.1471 14.8482 26.2257 14.7693 26.2257C14.8482 25.9897 15.0848 25.7536 15.1637 25.5962C15.3215 25.2814 15.4792 24.9667 15.7158 24.7306C15.7947 24.6519 15.637 24.6519 15.637 24.7306C15.4003 24.9667 15.2426 25.2814 15.0848 25.5962C14.9271 25.8323 14.6905 26.1471 14.6116 26.4618C14.5327 26.4618 14.5327 26.5405 14.4538 26.5405H14.375C14.375 26.5405 14.375 26.5405 14.2961 26.5405H14.2172C14.2172 26.5405 14.2172 26.5405 14.1383 26.5405C14.0595 26.6192 13.9017 26.6192 13.8228 26.6979C14.2961 26.1471 14.6116 25.5175 15.006 24.9667C15.006 24.888 15.006 24.888 14.9271 24.888C14.8482 24.888 14.8482 24.9667 14.8482 24.9667C14.6905 25.2028 14.6116 25.4388 14.375 25.6749C14.2172 25.8323 14.1383 25.9897 13.9806 26.1471C13.9017 26.3044 13.8228 26.4618 13.6651 26.5405C13.5862 26.6192 13.6651 26.6192 13.744 26.6192C13.5862 26.6979 13.4285 26.7766 13.1918 26.8553C13.1918 26.7766 13.1918 26.6979 13.2707 26.6192C13.3496 26.5405 13.4285 26.4618 13.4285 26.3831C13.5073 26.2257 13.6651 26.0684 13.744 25.911C13.9017 25.5962 14.1383 25.3601 14.2961 25.0454C14.0595 25.2028 14.0595 25.1241 13.9806 25.1241ZM13.2707 25.4388C13.4285 25.3601 13.6651 25.2028 13.8228 25.1241C13.8228 25.1241 13.8228 25.1241 13.8228 25.2028C13.744 25.3601 13.6651 25.4388 13.5862 25.5962C13.5073 25.7536 13.3496 25.911 13.2707 26.0684C13.1918 26.2257 13.0341 26.4618 12.8763 26.6192C12.7975 26.7766 12.7975 26.8553 12.7186 26.934V27.0127C12.5608 27.0914 12.482 27.0914 12.3242 27.17C12.4031 27.0914 12.4031 27.0127 12.4031 26.934C12.482 26.7766 12.5608 26.6979 12.5608 26.6192C12.6397 26.4618 12.7186 26.3044 12.7975 26.1471C12.9552 26.0684 13.3496 25.5962 13.2707 25.4388ZM11.851 26.3044C12.0087 26.1471 12.1665 26.0684 12.4031 25.9897C12.3242 26.0684 12.3242 26.1471 12.3242 26.3044C12.2453 26.4618 12.1665 26.5405 12.1665 26.6979C12.0876 26.934 11.851 27.17 11.7721 27.4061C11.7721 27.4848 11.9298 27.4061 11.9298 27.4061C12.0087 27.17 12.1665 26.934 12.3242 26.6979C12.4031 26.5405 12.482 26.4618 12.482 26.3044C12.482 26.2257 12.5608 26.0684 12.5608 25.9897C12.7186 25.911 12.8763 25.7536 13.0341 25.6749C13.0341 25.6749 13.113 25.6749 13.113 25.5962C13.113 25.7536 12.7975 26.2257 12.7186 26.3044C12.6397 26.3831 12.6397 26.5405 12.5608 26.6979C12.482 26.8553 12.4031 26.934 12.4031 27.0127C12.4031 27.0914 12.3242 27.17 12.3242 27.2487C12.2453 27.2487 12.1665 27.3274 12.1665 27.3274C12.1665 27.3274 12.0876 27.3274 12.0876 27.4061C11.851 27.4848 11.6143 27.5635 11.3777 27.6422C11.4566 27.5635 11.4566 27.4848 11.4566 27.4061C11.5355 27.2487 11.6932 27.0127 11.7721 26.8553C11.7721 26.7766 11.9298 26.4618 11.851 26.3044ZM10.4312 27.2487C10.8256 26.934 11.2988 26.6979 11.6932 26.3831C11.6932 26.4618 11.6143 26.6192 11.6143 26.6979C11.5355 26.8553 11.4566 26.934 11.3777 27.0914C11.2988 27.17 11.22 27.3274 11.22 27.4061C11.22 27.4848 11.1411 27.6422 11.1411 27.7209C11.0622 27.7209 10.9833 27.7996 10.8256 27.7996H10.7467C10.9045 27.4848 11.0622 27.17 11.22 26.8553C11.22 26.8553 11.1411 26.8553 11.0622 26.8553V26.934C10.9833 27.0127 10.8256 27.4848 10.8256 27.4848C10.7467 27.6422 10.6678 27.7209 10.589 27.8783C10.4312 27.957 10.2735 28.0356 10.1157 28.1143C10.1157 27.957 10.2735 27.7996 10.3523 27.6422C10.3523 27.5635 10.4312 27.4061 10.4312 27.2487C10.5101 27.17 10.5101 27.17 10.4312 27.2487ZM8.53821 28.8226C8.45933 28.8226 8.30158 28.7439 8.22271 28.8226C7.98608 28.9013 7.82833 28.9013 7.5917 28.9799C8.06496 28.7439 8.45933 28.5078 8.85371 28.2717C9.32696 27.957 9.87908 27.6422 10.3523 27.3274C10.2735 27.4848 10.1946 27.6422 10.1157 27.7996C10.0368 27.8783 9.95796 28.0356 9.95796 28.1143C9.87908 28.193 9.80021 28.193 9.64246 28.2717C9.72133 28.193 9.72133 28.1143 9.80021 28.0356C9.80021 27.957 9.87908 27.8783 9.87908 27.7996C9.87908 27.7209 9.87908 27.7209 9.87908 27.6422C9.95796 27.5635 9.80021 27.5635 9.80021 27.5635C9.72133 27.6422 9.72133 27.7209 9.72133 27.7996C9.64246 27.8783 9.64246 28.0356 9.56358 28.1143C9.56358 28.1143 9.40583 28.1143 9.40583 28.193V28.2717C9.32696 28.2717 9.24808 28.3504 9.24808 28.3504C9.32696 28.193 9.32696 28.1143 9.40583 28.0356C9.48471 27.957 9.32696 27.957 9.32696 27.957C9.32696 27.957 9.32696 27.957 9.32696 28.0356C9.24808 28.1143 9.16921 28.2717 9.16921 28.3504L9.09033 28.4291C9.01146 28.5078 9.01146 28.5865 9.01146 28.6652C8.69596 28.8226 8.61708 28.8226 8.53821 28.8226ZM19.6596 38.8164C19.6596 38.659 19.5807 38.5016 19.5019 38.3442C19.6596 38.2655 19.8174 38.1868 19.9751 38.0295C19.9751 38.0295 19.9751 38.1081 19.9751 38.1868C19.9751 38.3442 20.054 38.4229 20.054 38.5803C19.9751 38.659 19.8174 38.7377 19.6596 38.8164ZM11.9298 34.567C12.0087 34.4096 12.0876 34.2523 12.1665 34.0949C12.3242 34.0949 12.482 34.0162 12.5608 33.9375C12.5608 34.0949 12.5608 34.2523 12.482 34.4096C12.482 34.4096 12.482 34.4096 12.482 34.4883C12.3242 34.567 12.0876 34.567 11.9298 34.567ZM13.113 34.2523C12.9552 34.331 12.7975 34.4096 12.6397 34.4883C12.6397 34.331 12.7186 34.1736 12.7186 33.9375C12.9552 33.8588 13.1918 33.7014 13.4285 33.4654V33.544C13.3496 33.7014 13.3496 33.8588 13.2707 34.0162C13.1918 34.0949 13.1918 34.0949 13.113 34.2523ZM13.8228 33.7014C13.8228 33.8588 13.744 34.0949 13.6651 34.2523C13.6651 34.331 13.5862 34.4096 13.5862 34.567C13.5073 34.6457 13.4285 34.7244 13.3496 34.8031C13.2707 34.8818 13.1918 34.8818 13.113 34.8818C13.113 34.8031 13.113 34.8031 13.113 34.7244C13.1918 34.567 13.1918 34.331 13.2707 34.1736C13.5073 34.0949 13.6651 33.8588 13.8228 33.7014ZM13.113 34.331C13.113 34.4883 13.0341 34.6457 13.0341 34.8031C13.0341 34.8818 13.0341 34.8818 12.9552 34.9605C12.7975 35.0392 12.5608 35.0392 12.4031 35.1179C12.482 34.9605 12.482 34.8031 12.5608 34.567C12.7975 34.4883 12.9552 34.4096 13.113 34.331ZM13.5862 34.7244C13.5073 34.8818 13.5073 35.0392 13.4285 35.1966C13.4285 35.2753 13.4285 35.2753 13.3496 35.3539C13.1918 35.4326 13.113 35.4326 12.9552 35.4326C13.0341 35.2753 13.0341 35.1179 13.113 34.9605C13.2707 34.8818 13.4285 34.8031 13.5862 34.7244ZM14.0595 35.1179C13.9806 35.3539 13.9806 35.5113 13.9806 35.7474C13.8228 35.8261 13.5862 35.8261 13.4285 35.9048V35.8261C13.5073 35.6687 13.5073 35.5113 13.5862 35.3539C13.6651 35.3539 13.9017 35.1966 14.0595 35.1179ZM14.5327 35.5113C14.5327 35.6687 14.4538 35.9048 14.4538 36.0622C14.2961 36.1409 14.1383 36.1409 14.0595 36.1409C14.0595 35.9835 14.1383 35.8261 14.1383 35.7474C14.2172 35.7474 14.375 35.6687 14.5327 35.5113ZM15.0848 35.9048C15.0848 35.9835 15.006 36.1409 15.006 36.2195C15.006 36.2982 14.9271 36.3769 14.9271 36.5343C14.7693 36.613 14.6116 36.613 14.4538 36.6917C14.4538 36.5343 14.5327 36.3769 14.5327 36.2982C14.6905 36.0622 14.9271 35.9835 15.0848 35.9048ZM15.5581 36.2195C15.5581 36.3769 15.4792 36.613 15.4792 36.8491C15.3215 36.9278 15.1637 36.9278 15.006 37.0065C15.006 37.0065 15.006 37.0065 15.006 36.9278C15.006 36.8491 15.006 36.6917 15.006 36.5343C15.2426 36.4556 15.4003 36.3769 15.5581 36.2195ZM19.7385 38.1081C19.6596 38.1868 19.5807 38.1868 19.5019 38.2655C19.423 38.1081 19.423 37.9508 19.3441 37.7934C19.5019 37.636 19.6596 37.5573 19.7385 37.3999C19.7385 37.3999 19.7385 37.3999 19.7385 37.4786C19.8174 37.636 19.8962 37.7934 19.9751 37.9508C19.8962 38.0295 19.8174 38.1081 19.7385 38.1081ZM20.4484 37.636C20.5272 37.7934 20.5272 38.0295 20.5272 38.1868C20.4484 38.2655 20.3695 38.3442 20.2906 38.4229C20.2906 38.2655 20.2117 38.1868 20.2117 38.0295C20.2117 37.9508 20.2117 37.9508 20.1329 37.8721C20.2117 37.7934 20.3695 37.7147 20.4484 37.636ZM19.0286 37.8721C18.9497 37.9508 18.792 38.0295 18.6342 38.0295V37.9508C18.6342 37.8721 18.5554 37.7147 18.5554 37.636C18.7131 37.5573 18.8709 37.3999 19.0286 37.2425C19.0286 37.3212 19.0286 37.3212 19.0286 37.3212C19.0286 37.4786 19.1075 37.5573 19.1864 37.7147C19.1075 37.7934 19.1075 37.8721 19.0286 37.8721ZM18.3976 37.7147C18.2399 37.7934 18.161 37.8721 18.0032 37.9508C18.0032 37.7934 18.0032 37.636 18.0032 37.5573C18.161 37.4786 18.3187 37.3212 18.3976 37.2425C18.3976 37.4786 18.3976 37.636 18.3976 37.636C18.3976 37.5573 18.3976 37.636 18.3976 37.7147ZM17.7666 37.4786C17.6089 37.5573 17.53 37.636 17.3722 37.636C17.3722 37.4786 17.3722 37.3212 17.3722 37.1638C17.53 37.0852 17.6877 36.9278 17.8455 36.7704C17.8455 36.9278 17.8455 37.0852 17.8455 37.1638C17.8455 37.3212 17.8455 37.3999 17.7666 37.4786ZM17.2145 37.1638L17.1356 37.2425C16.9779 37.3212 16.899 37.3999 16.7412 37.3999C16.7412 37.2425 16.7412 37.0065 16.7412 36.8491C16.899 36.6917 17.0567 36.5343 17.2934 36.3769C17.2145 36.6917 17.2145 36.9278 17.2145 37.1638ZM16.4257 37.0065C16.3468 37.0852 16.268 37.0852 16.1102 37.1638C16.1102 36.9278 16.1891 36.7704 16.1891 36.5343C16.3468 36.3769 16.5046 36.2196 16.6623 36.0622C16.6623 36.1409 16.6623 36.1409 16.6623 36.2195C16.5835 36.4556 16.5835 36.6917 16.5835 36.9278C16.5046 36.9278 16.5046 36.9278 16.4257 37.0065ZM15.8736 36.613C15.7947 36.6917 15.7158 36.6917 15.637 36.7704C15.637 36.5343 15.7158 36.2982 15.7158 36.1409C15.8736 35.9835 16.0313 35.8261 16.1891 35.6687C16.1891 35.9048 16.1102 36.2196 16.1102 36.5343C16.0313 36.5343 15.9525 36.613 15.8736 36.613ZM16.1102 36.613C16.1102 36.8491 16.1102 37.0065 16.0313 37.1638C15.8736 37.2425 15.7158 37.2425 15.5581 37.2425C15.5581 37.0852 15.5581 37.0065 15.637 36.8491C15.7947 36.7704 15.9525 36.6917 16.1102 36.613ZM16.5835 37.0065C16.5835 37.1638 16.5835 37.3212 16.5835 37.4786C16.4257 37.4786 16.268 37.5573 16.1891 37.5573C16.1891 37.5573 16.1891 37.5573 16.1891 37.4786C16.1891 37.3999 16.1891 37.3212 16.1891 37.1638C16.268 37.1638 16.4257 37.0852 16.5835 37.0065ZM17.2145 37.2425C17.2145 37.3999 17.2145 37.5573 17.2145 37.7147C17.0567 37.7934 16.899 37.7934 16.6623 37.7934C16.6623 37.7934 16.6623 37.7934 16.6623 37.7147C16.6623 37.636 16.6623 37.5573 16.6623 37.4786C16.899 37.4786 17.0567 37.3999 17.2145 37.2425ZM17.8455 37.5573C17.8455 37.7147 17.8455 37.7934 17.8455 37.9508C17.6877 38.0295 17.53 38.0295 17.3722 38.0295C17.3722 37.9508 17.3722 37.8721 17.3722 37.7934C17.53 37.7147 17.6877 37.636 17.8455 37.5573ZM18.4765 37.7934C18.4765 37.9508 18.4765 38.0295 18.5554 38.1868C18.3976 38.2655 18.2399 38.2655 18.0821 38.2655C18.0821 38.1868 18.0821 38.1868 18.0821 38.1081V38.0295C18.161 37.9508 18.3187 37.8721 18.4765 37.7934ZM19.1864 37.8721C19.2652 38.0295 19.2652 38.1868 19.3441 38.3442C19.1864 38.4229 18.9497 38.4229 18.7131 38.5016C18.7131 38.4229 18.6342 38.3442 18.6342 38.1868C18.8709 38.1081 19.0286 38.0295 19.1864 37.8721ZM20.4484 38.4229C20.5272 38.3442 20.5272 38.2655 20.6061 38.2655C20.6061 38.3442 20.5272 38.3442 20.4484 38.4229ZM20.685 38.1868C20.685 38.1081 20.7639 38.1081 20.7639 38.1081C20.7639 38.1081 20.7639 38.1081 20.685 38.1868ZM14.5327 30.9472C15.2426 30.9472 15.9525 31.1046 16.5835 31.3407C17.9244 31.8128 19.2652 32.6784 20.2117 33.7014C20.8427 34.4883 21.316 35.5113 21.2371 36.5343C21.1582 36.4556 21.0794 36.2982 21.0794 36.2195C21.0005 36.0622 20.9216 35.8261 20.685 35.7474C20.6061 35.7474 20.5272 35.8261 20.6061 35.8261C20.7639 35.9048 20.8427 36.1409 20.9216 36.2982C21.0005 36.4556 21.0794 36.5343 21.1582 36.7704H21.2371C21.2371 37.0065 21.1582 37.3212 21.0005 37.5573C20.9216 37.3212 20.8427 37.0852 20.7639 36.8491C20.685 36.6917 20.685 36.5343 20.6061 36.3769C20.5272 36.2982 20.4484 36.1409 20.4484 36.0622C20.4484 35.9835 20.2906 36.0622 20.2906 36.1409C20.2906 36.2982 20.4484 36.3769 20.4484 36.4556C20.5272 36.613 20.5272 36.7704 20.6061 36.8491C20.685 37.1638 20.8427 37.4786 20.8427 37.7934C20.7639 37.8721 20.685 37.9508 20.6061 38.0295C20.6061 37.8721 20.5272 37.7147 20.4484 37.4786L20.5272 37.3999C20.6061 37.3212 20.4484 37.3212 20.4484 37.3212C20.4484 37.2425 20.3695 37.1638 20.3695 37.0065C20.2906 36.7704 20.2906 36.613 20.1329 36.4556C20.054 36.3769 20.054 36.1409 19.8962 36.1409C19.8174 36.1409 19.7385 36.2195 19.8174 36.2195C19.8962 36.2982 20.054 36.5343 20.054 36.6917C20.1329 36.8491 20.1329 37.0065 20.2117 37.1638C20.2117 37.2425 20.2906 37.3212 20.2906 37.3999C20.2117 37.4786 20.054 37.636 19.9751 37.7147C19.8962 37.5573 19.8174 37.3999 19.8174 37.2425V37.1638C19.8174 37.1638 19.8174 37.0852 19.8962 37.0852C19.9751 37.0065 19.8174 37.0065 19.8174 37.0065C19.7385 36.8491 19.7385 36.613 19.6596 36.4556C19.5807 36.2982 19.5019 36.0622 19.423 35.9048C19.423 35.8261 19.3441 35.9048 19.2652 35.9048C19.1864 35.9048 19.3441 36.0622 19.3441 36.1409C19.423 36.2982 19.423 36.3769 19.5019 36.4556C19.5807 36.613 19.6596 36.8491 19.7385 37.0065C19.5807 37.1638 19.5019 37.3212 19.3441 37.3999C19.3441 37.2425 19.2652 37.1638 19.2652 37.0065C19.2652 36.9278 19.2652 36.9278 19.1864 36.8491C19.2652 36.7704 19.2652 36.6917 19.3441 36.6917C19.423 36.613 19.2652 36.613 19.2652 36.613C19.2652 36.6917 19.1864 36.6917 19.1864 36.7704C19.0286 36.8491 19.0286 36.613 18.9497 36.3769C18.9497 36.2196 18.9497 35.9048 18.8709 35.7474C18.8709 35.7474 18.8709 35.7474 18.792 35.7474C18.7131 35.7474 18.9497 36.6917 19.0286 37.1638C18.8709 37.3212 18.7131 37.4786 18.5554 37.5573C18.5554 37.3212 18.5554 37.1638 18.5554 36.9278C18.6342 36.8491 18.6342 36.8491 18.7131 36.7704C18.792 36.6917 18.6342 36.6917 18.6342 36.6917L18.5554 36.7704C18.5554 36.4556 18.5554 36.2195 18.4765 35.9048C18.4765 35.7474 18.4765 35.6687 18.3187 35.6687C18.3187 35.6687 18.3187 36.4556 18.3976 37.0065C18.2399 37.1638 18.161 37.2425 18.0032 37.3999V37.3212C18.0032 37.0852 18.0032 36.9278 18.0032 36.6917L18.0821 36.613C18.161 36.5343 18.0821 36.5343 18.0032 36.5343C18.0032 36.2196 18.0032 35.8261 18.0821 35.5113C18.0821 35.4326 17.9244 35.5113 17.9244 35.5113C17.8455 35.9048 17.8455 36.2982 17.8455 36.6917C17.6877 36.8491 17.53 37.0065 17.3722 37.1638C17.3722 37.1638 17.3722 37.1638 17.3722 37.0852C17.3722 36.7704 17.3722 36.4556 17.4511 36.0622C17.53 35.9048 17.6089 35.59 17.53 35.4326C17.53 35.4326 17.3722 35.4326 17.3722 35.5113C17.3722 35.6687 17.3722 35.8261 17.2934 35.9835C17.2934 36.0622 17.2145 36.2195 17.2145 36.2982C17.0567 36.4556 16.899 36.6917 16.6623 36.8491C16.6623 36.613 16.7412 36.2982 16.8201 36.0622C16.899 35.8261 16.9779 35.59 17.0567 35.2753C17.0567 35.2753 17.0567 35.2753 17.0567 35.1966C17.0567 35.1179 16.899 35.1966 16.899 35.2753C16.8201 35.5113 16.7412 35.7474 16.7412 35.9835H16.6623C16.5046 36.1409 16.3468 36.2982 16.1891 36.4556C16.1891 36.1409 16.268 35.9048 16.268 35.59C16.3468 35.3539 16.4257 35.1179 16.4257 34.8818C16.4257 34.8031 16.268 34.8818 16.268 34.9605C16.268 35.1966 16.1891 35.3539 16.1102 35.59H16.0313C15.8736 35.7474 15.7947 35.9048 15.637 36.0622C15.7158 35.59 15.7947 35.1179 15.9525 34.567C15.9525 34.4883 15.7947 34.4883 15.7947 34.567C15.637 35.1179 15.5581 35.6687 15.4792 36.1409C15.4003 36.2196 15.3215 36.2982 15.2426 36.2982C15.2426 36.3769 15.1637 36.3769 15.0848 36.4556C15.0848 36.4556 15.0848 36.4556 15.0848 36.3769C15.1637 36.2196 15.1637 36.0622 15.1637 35.9048C15.1637 35.8261 15.1637 35.8261 15.1637 35.7474C15.3215 35.59 15.4792 35.4326 15.637 35.2753C15.7158 35.1966 15.5581 35.1966 15.5581 35.1966C15.4003 35.3539 15.3215 35.5113 15.1637 35.59C15.2426 35.3539 15.3215 35.1179 15.3215 34.8818C15.3215 34.7244 15.3215 34.567 15.4003 34.4096C15.4003 34.331 15.4792 34.2523 15.4003 34.1736C15.4003 34.1736 15.2426 34.1736 15.2426 34.2523C15.2426 34.4096 15.1637 34.567 15.1637 34.6457C15.1637 34.8031 15.1637 34.9605 15.0848 35.1179C15.006 35.2753 15.006 35.4326 15.006 35.6687C14.9271 35.7474 14.8482 35.8261 14.6905 35.9048C14.6116 35.9835 14.5327 35.9835 14.4538 36.0622C14.4538 35.9835 14.4538 35.9835 14.5327 35.9048C14.6116 35.7474 14.6116 35.5113 14.6116 35.3539C14.7693 35.1966 14.9271 35.0392 15.0848 34.8818C15.1637 34.8031 15.006 34.8031 15.006 34.8031C14.9271 34.9605 14.7693 35.0392 14.6905 35.1966C14.7693 34.8818 14.8482 34.4883 14.9271 34.1736C14.9271 34.0949 14.7693 34.0949 14.7693 34.1736C14.6116 34.567 14.5327 34.9605 14.4538 35.3539C14.375 35.4326 14.2961 35.5113 14.1383 35.59C14.0595 35.6687 13.9806 35.6687 13.9017 35.6687C13.9017 35.59 13.9017 35.5113 13.9017 35.4326C13.9017 35.2753 13.9806 35.1179 14.0595 34.9605C14.2172 34.8031 14.4538 34.6457 14.6116 34.4096C14.6905 34.331 14.5327 34.331 14.5327 34.331C14.375 34.4883 14.2961 34.6457 14.1383 34.7244C14.1383 34.6457 14.2172 34.567 14.2172 34.4883C14.2961 34.2523 14.375 34.0162 14.375 33.7801C14.375 33.7801 14.2172 33.7801 14.2172 33.8588C14.2961 34.1736 14.1383 34.567 13.9806 34.8031C13.9806 34.8818 13.9806 34.8818 13.9017 34.9605C13.8228 35.0392 13.744 35.1179 13.6651 35.1179C13.5862 35.1966 13.5073 35.1966 13.4285 35.2753C13.5073 35.1179 13.5073 35.0392 13.5862 34.8818C13.5862 34.8031 13.6651 34.6457 13.6651 34.567C13.8228 34.4096 13.9806 34.2523 14.1383 34.0949C14.2172 34.0162 14.0595 34.0162 14.0595 34.0162C13.9017 34.1736 13.8228 34.2523 13.6651 34.4096C13.744 34.2523 13.744 34.0949 13.744 33.9375C13.744 33.8588 13.8228 33.7014 13.8228 33.6227V33.544C13.8228 33.4654 13.8228 33.4654 13.8228 33.3867C13.8228 33.308 13.6651 33.3867 13.6651 33.4654C13.6651 33.4654 13.6651 33.4654 13.6651 33.544C13.6651 33.544 13.6651 33.6227 13.6651 33.7014C13.5073 33.8588 13.3496 34.0949 13.1918 34.2523C13.1918 34.1736 13.2707 34.0949 13.2707 34.0162C13.3496 33.8588 13.3496 33.7014 13.4285 33.544C13.5073 33.4654 13.5862 33.3867 13.6651 33.2293C13.744 33.1506 13.5862 33.1506 13.5862 33.1506C13.5073 33.2293 13.5073 33.308 13.4285 33.308V33.2293C13.4285 33.1506 13.2707 33.2293 13.2707 33.308C13.2707 33.3867 13.2707 33.3867 13.2707 33.4654C13.113 33.6227 12.9552 33.7801 12.7975 33.8588C12.7186 33.9375 12.6397 33.9375 12.5608 33.9375C12.6397 33.7801 12.6397 33.544 12.7975 33.3867C12.7975 33.3867 12.8763 33.3867 12.8763 33.308C12.8763 33.2293 12.7186 33.308 12.7186 33.308C12.6397 33.4654 12.5608 33.7014 12.482 33.8588V33.9375C12.3242 34.0162 12.2453 34.0162 12.0876 34.0162C12.2453 33.7801 12.2453 33.4654 12.3242 33.1506H12.4031C12.4031 33.1506 12.482 33.1506 12.482 33.0719C12.7186 32.9145 12.7975 32.6784 12.8763 32.4424C12.8763 32.285 13.0341 31.9702 12.8763 31.8128C12.7975 31.8128 12.7186 31.8128 12.6397 31.8915C12.6397 31.8915 12.5608 31.8915 12.482 31.9702C12.4031 32.0489 12.2453 31.9702 12.1665 31.8915H12.2453C12.7186 31.1046 13.744 30.9472 14.5327 30.9472ZM2.93807 31.262C3.17469 31.1046 3.4902 30.8685 3.88457 30.6325C4.04232 30.5538 4.20007 30.5538 4.27895 30.4751C3.8057 30.7898 3.33244 31.1046 2.93807 31.262ZM11.851 32.285C11.6143 32.0489 11.2988 31.8915 11.0622 31.6555C10.8256 31.4194 10.589 31.262 10.3523 31.1046C9.95796 30.7898 9.56358 30.5538 9.16921 30.3177C8.77483 30.0816 8.45933 29.8455 8.06496 29.6882C7.74945 29.5308 7.35508 29.4521 6.9607 29.4521C6.80295 29.4521 6.6452 29.5308 6.40858 29.6095C6.17195 29.6882 5.85645 29.7669 5.61982 29.9242C5.46207 30.0029 5.30432 30.0816 5.0677 30.1603C5.14657 30.0816 5.22545 30.0029 5.30432 30.0029C5.3832 29.9242 5.22545 29.9242 5.22545 29.9242C5.14657 30.0029 4.83107 30.1603 4.4367 30.3964C4.27895 30.4751 4.1212 30.5538 3.96345 30.6325C4.59445 30.239 5.22545 29.7669 5.3832 29.7669C5.61982 29.6882 5.93533 29.4521 6.25083 29.4521V29.5308C6.40858 29.4521 6.6452 29.4521 6.80295 29.3734C7.2762 29.3734 7.74945 29.4521 8.22271 29.6095C8.53821 29.7669 8.77483 30.0029 9.01146 30.1603C9.16921 30.239 10.9045 31.4194 11.4566 31.7341C11.6143 31.8128 11.7721 31.8915 11.9298 31.9702C12.0087 32.0489 12.1665 32.1276 12.2453 32.1276C12.3242 32.1276 12.4031 32.1276 12.5608 32.1276C12.6397 32.1276 12.7975 31.9702 12.7975 31.9702C12.9552 31.8128 12.9552 32.1276 12.9552 32.2063C12.9552 32.3637 12.8763 32.5211 12.7975 32.6784C12.7186 32.7571 12.7186 32.9145 12.5608 32.9145H12.482H12.4031C12.3242 32.6784 12.1665 32.4424 11.851 32.285ZM11.851 32.7571C11.851 32.8358 11.9298 32.8358 11.9298 32.9145C11.9298 32.9145 11.9298 32.9145 11.9298 32.9932V33.0719C11.9298 33.0719 11.6143 33.3867 11.5355 33.6227C11.6143 33.2293 11.6932 32.9932 11.851 32.7571ZM11.5355 33.7801C11.6932 33.544 11.9298 33.308 12.0876 33.0719C12.1665 33.1506 12.2453 33.1506 12.3242 33.1506C12.2453 33.4654 12.1665 33.7801 12.0876 34.0162C12.0087 34.0162 11.851 34.0162 11.7721 34.0162C11.6932 34.0162 11.6932 34.0949 11.7721 34.0949C11.851 34.0949 11.9298 34.0949 12.0087 34.0949C11.9298 34.331 11.7721 34.4883 11.6932 34.7244C11.6143 34.4096 11.5355 34.0949 11.5355 33.7801ZM11.851 35.0392C11.851 34.9605 11.851 34.9605 11.7721 34.8818C11.7721 34.8031 11.851 34.7244 11.851 34.6457C11.851 34.6457 11.851 34.6457 11.9298 34.6457C12.0876 34.6457 12.3242 34.6457 12.482 34.567C12.4031 34.7244 12.4031 34.8818 12.3242 35.0392H12.2453C12.1665 35.0392 12.1665 35.1179 12.2453 35.1179H12.3242C12.3242 35.1966 12.2453 35.3539 12.2453 35.4326C12.0087 35.3539 11.9298 35.1966 11.851 35.0392ZM12.2453 35.6687C12.3242 35.5113 12.3242 35.3539 12.4031 35.1966C12.6397 35.1966 12.7975 35.1179 12.9552 35.0392C12.9552 35.1966 12.8763 35.3539 12.8763 35.4326C12.7975 35.4326 12.7186 35.4326 12.6397 35.4326C12.5608 35.4326 12.5608 35.5113 12.6397 35.5113C12.7186 35.5113 12.7975 35.5113 12.7975 35.5113C12.7975 35.59 12.7975 35.59 12.7186 35.6687C12.6397 35.8261 12.6397 35.9048 12.5608 36.0622C12.482 35.9835 12.3242 35.8261 12.2453 35.6687ZM12.7186 36.2195C12.7186 36.1409 12.7975 35.9835 12.7975 35.9048C12.8763 35.7474 12.8763 35.6687 12.9552 35.5113C13.113 35.5113 13.1918 35.4326 13.3496 35.4326C13.2707 35.59 13.2707 35.7474 13.1918 35.9048H13.113C13.0341 35.9048 13.0341 35.9835 13.113 35.9835H13.1918C13.113 36.1409 13.113 36.2982 13.113 36.5343C12.9552 36.4556 12.7975 36.3769 12.7186 36.2195ZM13.5862 37.0852C13.5073 37.0065 13.4285 37.0065 13.4285 36.9278C13.3496 36.8491 13.2707 36.7704 13.1918 36.6917C13.1918 36.4556 13.2707 36.2196 13.2707 35.9835C13.5073 35.9835 13.6651 35.9048 13.8228 35.8261C13.8228 35.9835 13.744 36.0622 13.744 36.2195C13.6651 36.2195 13.5862 36.2195 13.5073 36.2195C13.4285 36.2195 13.4285 36.2982 13.5073 36.2982C13.5862 36.2982 13.6651 36.2982 13.6651 36.2982C13.744 36.613 13.6651 36.9278 13.5862 37.0852C13.6651 37.1638 13.6651 37.0852 13.5862 37.0852ZM13.8228 37.2425C13.8228 36.9278 13.8228 36.613 13.9017 36.3769C14.0595 36.3769 14.2172 36.2982 14.2961 36.2982C14.2961 36.4556 14.2172 36.5343 14.2172 36.6917C14.1383 36.6917 14.1383 36.6917 14.0595 36.6917C13.9806 36.6917 13.9806 36.7704 14.0595 36.7704C14.1383 36.7704 14.1383 36.7704 14.1383 36.7704C14.0595 37.0065 14.0595 37.2425 14.0595 37.4786C14.0595 37.3999 13.9806 37.3212 13.8228 37.2425ZM14.6116 37.636C14.5327 37.5573 14.4538 37.5573 14.375 37.4786C14.375 37.2425 14.375 36.9278 14.4538 36.6917C14.6116 36.6917 14.7693 36.613 14.9271 36.5343C14.9271 36.6917 14.9271 36.7704 14.9271 36.9278C14.8482 36.9278 14.8482 36.9278 14.7693 36.9278C14.6905 36.9278 14.6905 37.0065 14.7693 37.0065C14.8482 37.0065 14.8482 37.0065 14.9271 37.0065C14.9271 37.0852 14.9271 37.0852 14.9271 37.1638C14.9271 37.3212 14.9271 37.4786 14.9271 37.636V37.7147C14.7693 37.7147 14.6905 37.7147 14.6116 37.636ZM14.9271 37.7934C14.9271 37.7147 14.9271 37.5573 14.9271 37.3999C14.9271 37.2425 14.9271 37.1638 14.9271 37.0065C15.0848 37.0065 15.2426 36.9278 15.4003 36.9278C15.4003 37.0852 15.4003 37.1638 15.4003 37.3212C15.3215 37.3212 15.3215 37.3212 15.2426 37.3212C15.1637 37.3212 15.1637 37.3999 15.2426 37.3999H15.3215C15.3215 37.5573 15.3215 37.7934 15.3215 37.9508C15.2426 37.9508 15.0848 37.8721 14.9271 37.7934ZM15.7158 38.1081C15.637 38.1081 15.5581 38.0295 15.4792 38.0295C15.4792 37.7934 15.4792 37.636 15.4792 37.3999C15.637 37.3999 15.7947 37.3212 15.9525 37.3212C15.9525 37.3999 15.9525 37.5573 15.9525 37.636C15.9525 37.636 15.9525 37.636 15.8736 37.636C15.7947 37.636 15.7947 37.7147 15.8736 37.7147C15.8736 37.7147 15.8736 37.7147 15.9525 37.7147C15.9525 37.8721 16.0313 38.0295 16.0313 38.1868C15.9525 38.1868 15.7947 38.1081 15.7158 38.1081ZM16.1891 38.2655C16.1891 38.1868 16.1891 38.1081 16.1891 38.0295C16.1891 37.9508 16.1891 37.7934 16.1891 37.7147C16.3468 37.7147 16.5046 37.636 16.6623 37.636C16.6623 37.7147 16.6623 37.7934 16.6623 37.8721V37.9508V38.0295C16.6623 38.1081 16.6623 38.2655 16.6623 38.4229C16.4257 38.3442 16.3468 38.2655 16.1891 38.2655ZM16.7412 38.4229C16.7412 38.2655 16.7412 38.1081 16.7412 37.9508C16.899 37.9508 17.0567 37.8721 17.2145 37.8721C17.2145 37.9508 17.2145 38.0295 17.2145 38.1081C17.1356 38.1081 17.1356 38.1868 17.2145 38.1868C17.2145 38.3442 17.2145 38.4229 17.2145 38.5803C17.1356 38.5016 16.9779 38.4229 16.7412 38.4229ZM17.4511 38.5803C17.4511 38.4229 17.4511 38.2655 17.3722 38.1081C17.53 38.1081 17.6877 38.0295 17.8455 38.0295V38.1081V38.1868C17.7666 38.1868 17.7666 38.2655 17.8455 38.2655C17.8455 38.2655 17.8455 38.2655 17.9244 38.2655C17.9244 38.4229 18.0032 38.5803 18.0032 38.659C17.8455 38.7377 17.6089 38.659 17.4511 38.5803ZM18.3187 38.8951C18.2399 38.8951 18.2399 38.8951 18.161 38.8164C18.161 38.659 18.0821 38.5016 18.0821 38.3442C18.2399 38.3442 18.3976 38.2655 18.5554 38.2655C18.5554 38.3442 18.6342 38.4229 18.6342 38.5016C18.6342 38.5016 18.6342 38.5016 18.5554 38.5016C18.4765 38.5016 18.4765 38.5803 18.5554 38.5803H18.6342C18.6342 38.659 18.7131 38.8164 18.7131 38.8951C18.6342 38.8951 18.4765 38.8951 18.3187 38.8951ZM18.8709 38.9737C18.8709 38.8164 18.792 38.7377 18.792 38.5803C19.0286 38.5803 19.1864 38.5016 19.423 38.4229C19.5019 38.5803 19.5019 38.7377 19.5019 38.8951C19.423 38.8951 19.3441 38.9737 19.2652 38.9737C19.1864 38.9737 19.0286 38.9737 18.8709 38.9737Z" fill="#BABE8E"/>
<path d="M13.2708 31.7342C13.4285 31.4981 13.744 31.4194 13.9807 31.4194C14.2173 31.4194 14.4539 31.4194 14.6117 31.4981C15.006 31.5768 15.4004 31.7342 15.7948 31.8129C16.5835 32.049 17.3723 32.5211 18.0822 32.9933C18.0822 32.9933 18.2399 32.9933 18.161 32.9146C17.2934 32.2851 16.3469 31.8916 15.3215 31.5768C14.9272 31.4194 14.4539 31.2621 13.9807 31.3408C13.6652 31.3408 13.2708 31.4981 13.113 31.7342H13.2708Z" fill="#BABE8E"/>
<g clip-path="url(#clip0_17_3388)">
<path d="M49.9097 9.11328C49.9097 9.11328 48.8968 10.5462 47.1523 11.3487C46.5333 11.6353 39.7526 14.4152 36.6295 15.6476C32.2684 17.3671 28.0761 18.7714 26.3598 21.9812C25.7971 23.013 25.7408 23.4429 26.7256 22.5831C29.286 20.3763 30.7209 19.7172 36.2356 17.711C40.7936 16.0201 46.9835 13.9853 48.3622 12.5524C48.6435 12.2371 50.2754 9.68646 49.9097 9.11328Z" fill="#BABE8E"/>
<path d="M43.741 31.876C43.319 32.8505 42.3061 34.2834 41.2369 34.57C40.0833 34.8853 39.2392 33.9108 38.6484 32.5639C38.3108 33.481 37.6636 34.2548 36.5101 34.742C34.4561 35.6304 33.19 34.0541 33.1056 32.1053C33.1056 31.9047 33.1056 31.5895 33.1337 31.1882C33.2181 29.526 33.387 26.6601 31.8958 27.2046C31.8958 27.2046 32.2052 26.6314 32.4022 26.5168C34.7938 24.9405 34.8219 27.7778 34.85 29.6693C34.85 30.2138 34.8782 30.6724 34.9626 30.9303C35.4972 32.9364 37.4667 32.4492 38.0575 31.2455V31.2169C37.9731 30.9876 37.326 28.8095 37.4385 26.4308C37.4667 25.6284 38.8735 24.8832 39.183 24.6253L39.2111 25.6284C39.0142 27.7205 39.3518 30.3858 40.7305 32.0193C40.9837 32.3346 41.4901 32.9078 41.9684 32.7072C42.7 32.4206 42.503 30.959 42.3623 30.4431C41.9966 28.9815 41.462 28.1217 41.3494 26.6314C41.2932 26.0869 41.884 25.5424 42.2217 25.2271C42.2779 25.1698 43.2908 24.1667 43.2908 24.6253C43.2908 27.09 44.782 29.3827 43.741 31.876Z" fill="#BABE8E"/>
</g>
<path d="M71.7087 60.9546C71.7087 60.9546 71.0341 62.0909 69.8723 62.7272C69.46 62.9544 64.9438 65.1588 62.8638 66.136C59.9592 67.4996 57.1671 68.6131 56.024 71.1584C55.6492 71.9765 55.6117 72.3174 56.2676 71.6357C57.9729 69.8858 58.9286 69.3631 62.6014 67.7723C65.6372 66.4315 69.7598 64.818 70.678 63.6817C70.8654 63.4317 71.9523 61.4091 71.7087 60.9546Z" fill="#BABE8E"/>
<path d="M101.219 0C101.219 0 100.388 1.43088 98.9584 2.23217C98.451 2.51834 92.8926 5.29424 90.3326 6.52479C86.7577 8.24184 83.3212 9.6441 81.9143 12.8493C81.4531 13.8795 81.4069 14.3088 82.2142 13.4502C84.3129 11.2467 85.4892 10.5885 90.0097 8.58525C93.746 6.89682 98.82 4.86498 99.9501 3.4341C100.181 3.11931 101.518 0.57235 101.219 0Z" fill="#BABE8E"/>
<defs>
<clipPath id="clip0_17_3388">
<rect width="24" height="28" fill="white" transform="translate(27 7)"/>
</clipPath>
</defs>
</svg>
