<svg width="30" height="31" viewBox="0 0 30 31" fill="none" xmlns="http://www.w3.org/2000/svg">
<path d="M8.00387 8.63233C7.41539 8.79867 6.87652 9.10639 6.43421 9.52868C5.9919 9.95097 5.65957 10.475 5.46618 11.0552L0 27.4531L0.860738 28.3139L9.6562 19.5184C9.48101 19.1516 9.37495 18.7462 9.37495 18.3126C9.37495 16.7592 10.6341 15.5001 12.1874 15.5001C13.7408 15.5001 14.9999 16.7592 14.9999 18.3126C14.9999 19.8659 13.7408 21.125 12.1874 21.125C11.7538 21.125 11.3484 21.019 10.9816 20.8438L2.18612 29.6393L3.04686 30.5L19.4448 25.0338C20.025 24.8404 20.549 24.5081 20.9713 24.0658C21.3936 23.6235 21.7013 23.0846 21.8677 22.4961L24.3749 13.6251L16.8749 6.12512L8.00387 8.63233ZM29.176 4.84602L25.654 1.32397C24.5553 0.225343 22.7735 0.225343 21.6749 1.32397L18.3614 4.63743L25.8626 12.1386L29.176 8.82511C30.2747 7.72648 30.2747 5.94524 29.176 4.84602Z" fill="white"/>
</svg>
