<svg width="27" height="30" viewBox="0 0 27 30" fill="none" xmlns="http://www.w3.org/2000/svg">
<path fill-rule="evenodd" clip-rule="evenodd" d="M27 13.6466V21.1361C27 25.7801 27 28.1036 25.899 29.1176C25.374 29.6021 24.711 29.9066 24.0045 29.9876C22.524 30.1571 20.7945 28.6271 17.337 25.5686C15.807 24.2171 15.0435 23.5406 14.16 23.3636C13.7244 23.2758 13.2756 23.2758 12.84 23.3636C11.955 23.5406 11.1915 24.2171 9.663 25.5686C6.2055 28.6271 4.476 30.1571 2.9955 29.9861C2.28785 29.905 1.62437 29.6008 1.101 29.1176C-8.9407e-08 28.1036 0 25.7816 0 21.1361V13.6451C0 7.21463 -1.78814e-07 3.99863 1.977 1.99913C3.954 -0.000366211 7.137 -0.000366211 13.5 -0.000366211C19.8645 -0.000366211 23.046 -0.000366211 25.023 1.99763C27 3.99713 27 7.21463 27 13.6466ZM7.875 5.99963C7.875 5.70127 7.99353 5.41512 8.20451 5.20414C8.41548 4.99316 8.70163 4.87463 9 4.87463H18C18.2984 4.87463 18.5845 4.99316 18.7955 5.20414C19.0065 5.41512 19.125 5.70127 19.125 5.99963C19.125 6.298 19.0065 6.58415 18.7955 6.79513C18.5845 7.00611 18.2984 7.12463 18 7.12463H9C8.70163 7.12463 8.41548 7.00611 8.20451 6.79513C7.99353 6.58415 7.875 6.298 7.875 5.99963Z" fill="#F8F8F8"/>
</svg>
