<svg width="23" height="24" viewBox="0 0 23 24" fill="none" xmlns="http://www.w3.org/2000/svg">
<path d="M3.6609 2.99686C3.76008 2.94813 3.76008 2.74167 3.6609 2.69293L3.0787 2.40717C2.95072 2.34427 2.83444 2.2383 2.73907 2.09765C2.6437 1.95699 2.57187 1.78553 2.52927 1.59685L2.3354 0.739122C2.30234 0.592919 2.16227 0.592919 2.12921 0.739122L1.93535 1.59729C1.89267 1.78594 1.82078 1.95735 1.72536 2.09792C1.62994 2.23849 1.51362 2.34438 1.38561 2.40717L0.803714 2.69293C0.781995 2.70344 0.763082 2.72379 0.749673 2.75108C0.736264 2.77837 0.729044 2.8112 0.729044 2.8449C0.729044 2.87859 0.736264 2.91143 0.749673 2.93871C0.763082 2.966 0.781995 2.98635 0.803714 2.99686L1.38591 3.28262C1.51386 3.34548 1.63012 3.45138 1.72549 3.59196C1.82085 3.73253 1.8927 3.9039 1.93535 4.0925L2.12921 4.95067C2.13634 4.98269 2.15015 5.01056 2.16866 5.03033C2.18717 5.05009 2.20945 5.06074 2.23231 5.06074C2.25516 5.06074 2.27744 5.05009 2.29595 5.03033C2.31447 5.01056 2.32827 4.98269 2.3354 4.95067L2.52927 4.0925C2.57191 3.9039 2.64376 3.73253 2.73912 3.59196C2.83449 3.45138 2.95075 3.34548 3.0787 3.28262L3.6609 2.99686ZM5.19349 4.70833C5.2065 4.70197 5.21783 4.68974 5.22586 4.67335C5.23389 4.65697 5.23821 4.63727 5.23821 4.61706C5.23821 4.59685 5.23389 4.57715 5.22586 4.56077C5.21783 4.54439 5.2065 4.53215 5.19349 4.52579L4.84423 4.35434C4.68853 4.27769 4.5665 4.09782 4.51451 3.86832L4.39819 3.35351C4.39388 3.33432 4.38557 3.31763 4.37446 3.30579C4.36334 3.29396 4.34998 3.28759 4.33627 3.28759C4.32256 3.28759 4.3092 3.29396 4.29808 3.30579C4.28697 3.31763 4.27866 3.33432 4.27435 3.35351L4.15803 3.86832C4.13245 3.98151 4.08934 4.08436 4.03211 4.16871C3.97487 4.25307 3.9051 4.31663 3.82831 4.35434L3.47905 4.52579C3.46604 4.53215 3.45471 4.54439 3.44668 4.56077C3.43866 4.57715 3.43433 4.59685 3.43433 4.61706C3.43433 4.63727 3.43866 4.65697 3.44668 4.67335C3.45471 4.68974 3.46604 4.70197 3.47905 4.70833L3.82831 4.87978C3.9051 4.91749 3.97487 4.98105 4.0321 5.06541C4.08934 5.14977 4.13245 5.25261 4.15803 5.3658L4.27435 5.88061C4.27866 5.8998 4.28697 5.9165 4.29808 5.92833C4.3092 5.94016 4.32256 5.94653 4.33627 5.94653C4.34998 5.94653 4.36334 5.94016 4.37446 5.92833C4.38557 5.9165 4.39388 5.8998 4.39819 5.88061L4.51451 5.3658C4.54009 5.25261 4.5832 5.14977 4.64044 5.06541C4.69767 4.98105 4.76744 4.91749 4.84423 4.87978L5.19349 4.70833ZM5.50878 1.57647C5.51734 1.5721 5.52476 1.5639 5.53001 1.55302C5.53526 1.54215 5.53809 1.52913 5.53809 1.51577C5.53809 1.50242 5.53526 1.4894 5.53001 1.47852C5.52476 1.46765 5.51734 1.45945 5.50878 1.45508L5.27614 1.34077C5.17215 1.28982 5.09069 1.16976 5.05613 1.01647L4.97858 0.673553C4.97561 0.660938 4.97005 0.649999 4.96267 0.642257C4.95529 0.634515 4.94646 0.630355 4.9374 0.630355C4.92835 0.630355 4.91951 0.634515 4.91213 0.642257C4.90475 0.649999 4.89919 0.660938 4.89623 0.673553L4.81868 1.01647C4.80163 1.09201 4.77287 1.16065 4.73468 1.21695C4.69648 1.27325 4.64991 1.31564 4.59866 1.34077L4.36603 1.45508C4.35747 1.45945 4.35005 1.46765 4.3448 1.47852C4.33954 1.4894 4.33672 1.50242 4.33672 1.51577C4.33672 1.52913 4.33954 1.54215 4.34479 1.55302C4.35005 1.5639 4.35747 1.5721 4.36603 1.57647L4.59866 1.69078C4.64991 1.71591 4.69648 1.7583 4.73468 1.8146C4.77287 1.87089 4.80163 1.93954 4.81868 2.01508L4.89623 2.35755C4.89919 2.37017 4.90475 2.38111 4.91213 2.38885C4.91951 2.39659 4.92835 2.40075 4.9374 2.40075C4.94646 2.40075 4.95529 2.39659 4.96267 2.38885C4.97005 2.38111 4.97561 2.37017 4.97858 2.35755L5.05613 2.01464C5.09069 1.86135 5.17215 1.74128 5.27614 1.69033L5.50878 1.57647Z" fill="#858C36"/>
<path d="M8.09619 21.1454L11.3122 16.2437C10.538 14.6726 10.12 12.7603 10.1214 10.7954C10.1214 5.77644 12.8005 1.69312 16.0934 1.69312C19.3864 1.69312 22.0654 5.77644 22.0654 10.7954C22.0654 15.8144 19.3864 19.8977 16.0934 19.8977C14.8042 19.8999 13.5496 19.2628 12.5188 18.0827L9.30276 22.9844C9.13997 23.2062 8.92764 23.3246 8.70936 23.3153C8.49109 23.306 8.28344 23.1697 8.12904 22.9344C7.97464 22.699 7.8852 22.3825 7.87909 22.0499C7.87298 21.7172 7.95066 21.3936 8.09619 21.1454ZM20.3591 10.7954C20.3591 9.50951 20.109 8.25249 19.6402 7.1833C19.1715 6.11411 18.5053 5.28078 17.7258 4.78868C16.9464 4.29659 16.0887 4.16783 15.2612 4.4187C14.4337 4.66957 13.6737 5.28879 13.0771 6.19806C12.4805 7.10733 12.0742 8.26581 11.9096 9.52701C11.745 10.7882 11.8295 12.0955 12.1524 13.2835C12.4753 14.4715 13.022 15.4869 13.7235 16.2013C14.425 16.9157 15.2497 17.2971 16.0934 17.2971C17.2243 17.295 18.3086 16.6093 19.1082 15.3905C19.9079 14.1716 20.3578 12.5191 20.3591 10.7954Z" fill="#858C36"/>
</svg>
