<svg width="30" height="30" viewBox="0 0 30 30" fill="none" xmlns="http://www.w3.org/2000/svg">
<path fill-rule="evenodd" clip-rule="evenodd" d="M6.51191 0.468196C12.1534 -0.156065 17.8466 -0.156065 23.4881 0.468196C26.6116 0.817701 29.1316 3.27334 29.4981 6.4025C30.1673 12.1147 30.1673 17.8852 29.4981 23.5974C29.1316 26.7266 26.6116 29.1822 23.4881 29.5317C17.8466 30.1561 12.1534 30.1561 6.51191 29.5317C3.38837 29.1822 0.868384 26.7266 0.501874 23.5974C-0.167291 17.8858 -0.167291 12.1159 0.501874 6.40432C0.687258 4.8841 1.38146 3.47093 2.47197 2.39383C3.56248 1.31674 4.98539 0.638842 6.51009 0.470016M15 5.91101C15.3627 5.91101 15.7105 6.05485 15.967 6.31088C16.2235 6.56692 16.3676 6.91417 16.3676 7.27626V13.6347H22.7368C23.0995 13.6347 23.4474 13.7785 23.7039 14.0346C23.9603 14.2906 24.1044 14.6379 24.1044 15C24.1044 15.362 23.9603 15.7093 23.7039 15.9653C23.4474 16.2214 23.0995 16.3652 22.7368 16.3652H16.3676V22.7237C16.3676 23.0857 16.2235 23.433 15.967 23.689C15.7105 23.9451 15.3627 24.0889 15 24.0889C14.6373 24.0889 14.2894 23.9451 14.033 23.689C13.7765 23.433 13.6324 23.0857 13.6324 22.7237V16.3652H7.26317C6.90046 16.3652 6.55262 16.2214 6.29615 15.9653C6.03968 15.7093 5.89559 15.362 5.89559 15C5.89559 14.6379 6.03968 14.2906 6.29615 14.0346C6.55262 13.7785 6.90046 13.6347 7.26317 13.6347H13.6324V7.27626C13.6324 6.91417 13.7765 6.56692 14.033 6.31088C14.2894 6.05485 14.6373 5.91101 15 5.91101Z" fill="white"/>
</svg>
